<svg width="1600" height="1200" viewBox="0 0 1600 1200" fill="none" xmlns="http://www.w3.org/2000/svg">
<g clip-path="url(#clip0)">
<path d="M1673.13 -0.494873H-75.1213V910.943H1673.13V-0.494873Z" fill="url(#paint0_linear)"/>
<path d="M-75.6599 279.29L232.397 343.373L414.072 405.365L564.335 429.259L642.222 472.944L421.981 417.77L452.225 433.623L220.908 397.812L183.804 394.155L222.957 413.036L74.3094 398.4L16.2965 388.197L51.2259 402.288L-75.6948 385.078L-75.6599 279.29Z" fill="#C95E90"/>
<path d="M655.208 475.888L551.986 434.987L378.892 405.043L428.597 420.134L452.226 433.623L204.433 360.345L265.243 398.19L208.251 388.218L153.427 376.121L183.804 394.155L208.251 398.19L655.208 475.888Z" fill="#F67281"/>
<path d="M222.957 413.036L46.4849 380.589L-37.2898 369.834L16.2966 388.197L74.3095 398.4L222.957 413.036Z" fill="#F67281"/>
<path d="M51.2259 402.288L-30.9824 380.589H-75.6599L-75.6948 385.078L51.2259 402.288Z" fill="#F67281"/>
<path d="M1673.78 374.792L1672.56 445.797L1484.37 425.546L1571.28 415.553L1473.88 416.658L1152.9 398.567L1017.71 384.463L1129.86 372.344L1312.08 381.344L1409.63 355.24L1383.82 346.149L1228.95 343.296L1327.12 336.002L1264.4 337.687L1143.81 332.541L1107.25 325.639L1188.89 319.142L1069.49 318.499L820.917 271.591L1203.43 285.605L1409.63 326.835L1673.78 374.792Z" fill="#C95E90"/>
<path d="M1672.56 434.553V445.797L1484.37 425.546L1571.28 415.553L1473.88 416.658L1152.9 398.567L1017.71 384.463L1081.52 377.589L1321.46 387.148L1287.25 400.113L1545.24 381.358L1458.87 409.113L1571.28 415.553L1538.26 419.35L1672.56 434.553Z" fill="#F67281"/>
<path d="M1383.82 346.149L1228.95 343.296L1253.42 337.247L1152.9 337.513L1107.25 325.639L1188.89 319.142L1069.49 318.499L820.917 271.591L1042.47 307.352L1266.45 312.457L1110.02 325.471L1154.65 329.681L1271.46 333.562L1253.42 337.247L1327.12 336.002L1280.4 341.785L1383.82 346.149Z" fill="#F67281"/>
<path d="M1498.72 295.856L1319.63 270.388L1242.32 244.284L1038.92 212.466L1234.86 229.599L1252.15 238.913L1498.72 295.856Z" fill="#C95E90"/>
<path d="M1498.72 295.856L1319.63 270.388L1242.32 244.284L1038.92 212.466L1246.41 241.074L1322.17 267.661L1365.62 267.409L1349.59 271.892L1498.72 295.856Z" fill="#F67281"/>
<path d="M1614.92 100.273C1614.92 100.273 1427.73 63.9586 1365.09 50.9309C1302.45 37.9032 1181.07 26.2041 1181.07 26.2041C1181.07 26.2041 1397.35 69.0215 1460.7 85.6365C1524.04 102.259 1614.92 100.273 1614.92 100.273Z" fill="#905E9C"/>
<path d="M1634.99 100.608C1634.99 100.608 1528.24 68.2173 1507.86 66.4691C1492.31 65.1335 1451.69 64.1685 1451.69 64.1685L1634.99 100.608Z" fill="#905E9C"/>
<path d="M1385.42 68.2874L1310.31 62.749L1484.02 90.7625L1385.42 68.2874Z" fill="#905E9C"/>
<path d="M1284.95 20.2041L1479.79 43.0288C1479.79 43.0288 1394.68 17.5328 1369.69 10.9805C1344.7 4.42114 1284.95 20.2041 1284.95 20.2041Z" fill="#905E9C"/>
<path d="M564.02 75.5036L758.862 98.3283C758.862 98.3283 673.745 72.8323 648.76 66.28C623.774 59.7277 564.02 75.5036 564.02 75.5036Z" fill="#905E9C"/>
<path d="M706.465 58.6788L841.371 74.4827C841.371 74.4827 802.827 58.1404 799.89 58.1404C794.869 58.1404 706.465 58.6788 706.465 58.6788Z" fill="#905E9C"/>
<path d="M1426.16 107.098L1610.68 146.922C1610.68 146.922 1567.74 146.719 1560.46 146.922C1545.89 147.314 1426.16 107.098 1426.16 107.098Z" fill="#905E9C"/>
<path d="M637.208 103.867L946.244 146.614C946.244 146.614 778.792 143.489 771.513 143.691C756.947 144.083 637.208 103.867 637.208 103.867Z" fill="#905E9C"/>
<path d="M1673 877H-75V1200H1673V877Z" fill="url(#paint1_linear)"/>
<path d="M1673 841V882L-75 879.235V845.25L1673 841Z" fill="#22005E"/>
<path opacity="0.3" d="M-75.0653 1005.26L1673.15 982.661V1006.56L-75.0933 1030.65L-75.0653 1005.26Z" fill="white"/>
<path opacity="0.2" d="M1673.15 1081.24L-75.0933 1086.53L-75.0653 1176.64H1673.15V1081.24Z" fill="white"/>
<path opacity="0.3" d="M-75.0652 955.697L1673.15 962.956V959.389L-75.0652 940.236V955.697Z" fill="white"/>
<path opacity="0.3" d="M1673.15 917.013H-75.0652V923.467L1673.15 918.264V917.013Z" fill="white"/>
<path d="M355.409 1007.05C355.409 1007.75 291.816 1008.3 213.363 1008.3C134.917 1008.3 71.3169 1007.74 71.3169 1007.05C71.3169 1006.35 134.91 1005.79 213.363 1005.79C291.816 1005.79 355.409 1006.35 355.409 1007.05Z" fill="white"/>
<path d="M742.969 1108.7C742.969 1109.4 679.375 1109.96 600.922 1109.96C522.469 1109.96 458.876 1109.39 458.876 1108.7C458.876 1108 522.469 1107.44 600.922 1107.44C679.375 1107.44 742.969 1108 742.969 1108.7Z" fill="white"/>
<path d="M419.933 1075.51C438.629 1075.51 453.786 1074.75 453.786 1073.83C453.786 1072.9 438.629 1072.15 419.933 1072.15C401.237 1072.15 386.081 1072.9 386.081 1073.83C386.081 1074.75 401.237 1075.51 419.933 1075.51Z" fill="white"/>
<path d="M63.4431 974.969C82.1393 974.969 97.2956 974.218 97.2956 973.291C97.2956 972.364 82.1393 971.613 63.4431 971.613C44.7469 971.613 29.5906 972.364 29.5906 973.291C29.5906 974.218 44.7469 974.969 63.4431 974.969Z" fill="white"/>
<path d="M852.519 1084.65C852.519 1085.69 811.751 1086.53 761.465 1086.53C711.179 1086.53 670.411 1085.69 670.411 1084.65C670.411 1083.6 711.179 1082.76 761.465 1082.76C811.751 1082.76 852.519 1083.6 852.519 1084.65Z" fill="white"/>
<path d="M1202.84 1074.04C1253.13 1074.04 1293.9 1073.19 1293.9 1072.15C1293.9 1071.11 1253.13 1070.26 1202.84 1070.26C1152.55 1070.26 1111.79 1071.11 1111.79 1072.15C1111.79 1073.19 1152.55 1074.04 1202.84 1074.04Z" fill="white"/>
<path d="M593.741 973.494C644.029 973.494 684.795 972.649 684.795 971.606C684.795 970.563 644.029 969.718 593.741 969.718C543.453 969.718 502.687 970.563 502.687 971.606C502.687 972.649 543.453 973.494 593.741 973.494Z" fill="white"/>
<path d="M80.2259 1141.99C130.514 1141.99 171.28 1141.14 171.28 1140.1C171.28 1139.06 130.514 1138.21 80.2259 1138.21C29.938 1138.21 -10.8284 1139.06 -10.8284 1140.1C-10.8284 1141.14 29.938 1141.99 80.2259 1141.99Z" fill="white"/>
<path d="M892.945 1120.87C901.998 1120.87 909.336 1120.02 909.336 1118.98C909.336 1117.94 901.998 1117.09 892.945 1117.09C883.892 1117.09 876.554 1117.94 876.554 1118.98C876.554 1120.02 883.892 1120.87 892.945 1120.87Z" fill="white"/>
<path d="M1092.58 1064.14C1101.63 1064.14 1108.97 1063.29 1108.97 1062.25C1108.97 1061.2 1101.63 1060.36 1092.58 1060.36C1083.52 1060.36 1076.19 1061.2 1076.19 1062.25C1076.19 1063.29 1083.52 1064.14 1092.58 1064.14Z" fill="white"/>
<path d="M4.74481 1022.02C13.7975 1022.02 21.1361 1021.17 21.1361 1020.13C21.1361 1019.09 13.7975 1018.24 4.74481 1018.24C-4.30785 1018.24 -11.6465 1019.09 -11.6465 1020.13C-11.6465 1021.17 -4.30785 1022.02 4.74481 1022.02Z" fill="white"/>
<path d="M1293.9 1083.69C1302.95 1083.69 1310.29 1082.85 1310.29 1081.81C1310.29 1080.76 1302.95 1079.92 1293.9 1079.92C1284.84 1079.92 1277.5 1080.76 1277.5 1081.81C1277.5 1082.85 1284.84 1083.69 1293.9 1083.69Z" fill="white"/>
<path d="M1379.17 1008.93C1388.23 1008.93 1395.57 1008.09 1395.57 1007.05C1395.57 1006 1388.23 1005.16 1379.17 1005.16C1370.12 1005.16 1362.78 1006 1362.78 1007.05C1362.78 1008.09 1370.12 1008.93 1379.17 1008.93Z" fill="white"/>
<path d="M1563.46 1131.02C1572.52 1131.02 1579.86 1130.18 1579.86 1129.13C1579.86 1128.09 1572.52 1127.25 1563.46 1127.25C1554.41 1127.25 1547.07 1128.09 1547.07 1129.13C1547.07 1130.18 1554.41 1131.02 1563.46 1131.02Z" fill="white"/>
<path d="M667.647 814.534L676.25 323.327L743.288 276.19L773.025 295.001L795.16 819.814L667.647 814.534Z" fill="#B3748F"/>
<path d="M773.025 295.001L786.614 302.52L812.399 812.256L794.711 809.254L773.025 295.001Z" fill="#DFC2CF"/>
<path d="M741.338 296.874L692.714 329.607L688.691 819.814L767.617 820.218L744.54 153.926L742.012 156.389L741.338 296.874Z" fill="#A25576"/>
<path d="M741.377 277.537L743.584 301.693L699.244 331.898L705.211 820.866H691.943L692.713 329.607L741.338 296.874L741.377 277.537Z" fill="#DFC2CF"/>
<path d="M553.601 255.468L561.582 232.397L600.621 223.633L613.074 228.502L625.566 253.774L553.601 255.468Z" fill="#DFC2CF"/>
<path d="M543.669 804.956L547.493 256.462L600.622 247.82L609.488 805.707L543.669 804.956Z" fill="#B3748F"/>
<path d="M600.622 247.82L627.562 254.249L645.43 802.813L609.489 805.707L600.622 247.82Z" fill="#DFC2CF"/>
<path d="M600.621 223.633L599.21 248.051L553.601 255.468L561.582 232.397L600.621 223.633Z" fill="#B3748F"/>
<path d="M72.6843 816.85L78.76 362.989L132.049 322.672L149.763 827.86L72.6843 816.85Z" fill="url(#paint2_linear)"/>
<path d="M78.76 362.989L56.3563 370.476L42.3828 816.17L72.6843 816.85L78.76 362.989Z" fill="url(#paint3_linear)"/>
<path d="M132.049 322.672L112.224 324.751L56.356 370.476L78.6378 366.812L132.049 322.672Z" fill="#B3748F"/>
<path d="M85.6443 354.68L100.702 290.754L123.484 297.715L125.159 324.674L85.6443 354.68Z" fill="url(#paint4_linear)"/>
<path d="M85.6442 354.68L73.7751 356.22L94.4402 292.428L100.702 290.754L85.6442 354.68Z" fill="url(#paint5_linear)"/>
<path d="M388.21 324.86L380.357 250.277L367.121 248.577L369.007 333.412L388.21 324.86Z" fill="#DFC2CF"/>
<path d="M367.122 248.577L333.08 266.945L314.417 357.728L369.008 333.412L367.122 248.577Z" fill="#B3748F"/>
<path d="M407.804 758.197L385.413 299.928L293.809 349.105L273.452 759.859L407.804 758.197Z" fill="#B3748F"/>
<path d="M385.413 299.928L400.965 301.622L430.804 760.238L402.505 760.186L385.413 299.928Z" fill="#DFC2CF"/>
<path d="M367.879 309.34L333.631 760.238L349.491 759.834L379.408 303.156L367.879 309.34Z" fill="#DFC2CF"/>
<path d="M303.529 345.396L316.617 759.962L310.073 760.238L293.809 349.105L303.529 345.396Z" fill="#DFC2CF"/>
<path d="M1490.21 331.032L1490.61 306.03L1420.42 293.808L1420.48 314.159L1490.21 331.032Z" fill="url(#paint6_linear)"/>
<path d="M1514.2 337.044V310.855L1490.61 306.03L1490.21 331.032L1514.2 337.044Z" fill="url(#paint7_linear)"/>
<path d="M1410.37 311.715L1408.41 824.768L1528.24 823.825L1503.87 334.336L1410.37 311.715Z" fill="url(#paint8_linear)"/>
<path d="M1503.87 334.336L1524.64 339.777L1546.44 823.953L1510.48 823.696L1503.87 334.336Z" fill="url(#paint9_linear)"/>
<path d="M1397.98 331.898L1466.67 357.465L1476.66 824.126L1397.98 823.953V331.898Z" fill="url(#paint10_linear)"/>
<path d="M1410.29 333.9L1397.98 331.898L1466.67 357.465L1476.66 824.126L1490.23 825.255L1473.64 358.261L1410.29 333.9Z" fill="url(#paint11_linear)"/>
<path d="M1421.67 383.731H1414.66V400.245H1421.67V383.731Z" fill="white"/>
<path opacity="0.2" d="M1443.32 431.182H1436.31V447.696H1443.32V431.182Z" fill="#B374BA"/>
<path opacity="0.2" d="M1503.12 607.768H1496.11V624.282H1503.12V607.768Z" fill="#B374BA"/>
<path opacity="0.2" d="M1421.67 418.754H1414.66V435.268H1421.67V418.754Z" fill="#B374BA"/>
<path d="M1448.66 536.688H1441.65V553.203H1448.66V536.688Z" fill="white"/>
<path d="M1452.16 769.24H1445.16V785.754H1452.16V769.24Z" fill="white"/>
<path d="M1418.17 626.958H1411.16V643.472H1418.17V626.958Z" fill="white"/>
<path d="M1438.8 511.917H1431.79V528.431H1438.8V511.917Z" fill="white"/>
<path d="M1494.11 356.464H1487.1V372.978H1494.11V356.464Z" fill="white"/>
<path d="M1603.96 801.401L0.0261512 797.725L0.000488281 853.311L1603.96 849.898V801.401Z" fill="#7E4061"/>
<path d="M1385.59 439.849L1387.16 414.635L1428.86 400.906V435.23L1385.59 439.849Z" fill="#A25576"/>
<path d="M1428.86 811.198L1421.1 432.157L1370.16 443.192L1367.96 811.198H1428.86Z" fill="url(#paint12_linear)"/>
<path d="M1421.1 432.157L1460.13 437.694L1484.54 809.196L1428.86 811.198L1421.1 432.157Z" fill="url(#paint13_linear)"/>
<path d="M1428.86 400.906L1446.4 404.717L1448.47 436.038L1428.86 433.254V400.906Z" fill="#D6BCFF"/>
<path d="M1421.1 432.157L1424.87 432.689L1436.16 810.935L1428.86 811.198L1421.1 432.157Z" fill="url(#paint14_linear)"/>
<path d="M1421.1 432.157L1418.13 432.689L1425.69 811.192L1428.86 811.198L1421.1 432.157Z" fill="#591B3B"/>
<path d="M1456.38 437.155L1480.17 808.85L1484.54 809.196L1460.13 437.693L1456.38 437.155Z" fill="url(#paint15_linear)"/>
<path d="M1446.16 435.711L1444.03 379.747L1446.16 381.453L1448.47 436.038L1446.16 435.711Z" fill="#D6BCFF"/>
<path d="M1444.03 379.747L1442.2 381.453L1443.12 435.275L1446.16 435.711L1444.03 379.747Z" fill="#91365D"/>
<path d="M1428.86 433.254L1428.64 374.845L1430.53 376.398L1432.2 433.729L1428.86 433.254Z" fill="#D6BCFF"/>
<path d="M1428.64 374.845L1425.52 376.892V432.779L1428.86 433.254L1428.64 374.845Z" fill="#91365D"/>
<path d="M970.848 309.995L962.687 274.619L953.474 271.924L952.126 306.242L970.848 309.995Z" fill="url(#paint16_linear)"/>
<path d="M953.474 271.924L888.38 280.842L877.685 315.865L952.127 306.242L953.474 271.924Z" fill="url(#paint17_linear)"/>
<path d="M952.127 811.019L948.014 305.421L977.488 311.323L993.688 810.281L952.127 811.019Z" fill="url(#paint18_linear)"/>
<path d="M948.014 305.421L871.943 316.719V809.235L952.127 811.019L948.014 305.421Z" fill="url(#paint19_linear)"/>
<path d="M871.943 527.373L949.034 430.598L984.058 513.791L989.505 681.414L952.127 811.019L871.943 675.294V527.373Z" fill="url(#paint20_linear)"/>
<path d="M949.034 430.598L952.127 811.019L871.943 675.294V527.373L949.034 430.598Z" fill="url(#paint21_linear)"/>
<path d="M888.38 280.842L904.079 264.77L943.459 257.347L953.474 271.924L888.38 280.842Z" fill="url(#paint22_linear)"/>
<path d="M962.686 274.619L943.458 257.347L953.473 271.924L962.686 274.619Z" fill="url(#paint23_linear)"/>
<path d="M871.943 527.373V537.676L949.137 443.423L984.231 519.026L984.058 513.791L949.034 430.598L871.943 527.373Z" fill="url(#paint24_linear)"/>
<path d="M871.943 675.294V670.071L953.301 796.019L989.383 677.764L989.505 686.117L952.127 811.019L871.943 675.294Z" fill="url(#paint25_linear)"/>
<path d="M238.492 349.022L231.14 317.161L222.838 314.729L221.625 345.64L238.492 349.022Z" fill="url(#paint26_linear)"/>
<path d="M222.838 314.729L164.211 322.762L154.581 354.308L221.625 345.64L222.838 314.729Z" fill="url(#paint27_linear)"/>
<path d="M221.625 800.278L217.924 344.896L244.465 350.215L259.055 799.617L221.625 800.278Z" fill="url(#paint28_linear)"/>
<path d="M217.923 344.896L149.403 355.078V798.674L221.625 800.278L217.923 344.896Z" fill="url(#paint29_linear)"/>
<path d="M230.056 316.84L222.838 264.873L224.91 315.333L230.056 316.84Z" fill="url(#paint30_linear)"/>
<path d="M222.838 264.873L220.4 268.164L215.864 310.893L170.363 318.739L171.813 275.42L169.882 274.503L164.211 322.762L224.91 315.333L222.838 264.873Z" fill="url(#paint31_linear)"/>
<path d="M171.813 275.42L174.264 318.066L170.363 318.739L171.813 275.42Z" fill="url(#paint32_linear)"/>
<path d="M197.316 444.065L200.37 434.608L270.353 422.399L323.237 430.38L327.427 438.881L197.316 444.065Z" fill="url(#paint33_linear)"/>
<path d="M270.353 802.37V433.928L329.615 439.067L338.706 804.103L270.353 802.37Z" fill="url(#paint34_linear)"/>
<path d="M178.428 802.12L270.353 802.37V433.928L193.095 444.648L178.428 802.12Z" fill="url(#paint35_linear)"/>
<path d="M323.237 430.38L270.353 422.399V433.928L327.427 438.881L323.237 430.38Z" fill="url(#paint36_linear)"/>
<path d="M323.237 430.38L288.4 412.454L270.353 422.399L323.237 430.38Z" fill="#E1CEFF"/>
<path d="M200.37 434.608L250.31 417.625L288.4 412.454L270.353 422.399L200.37 434.608Z" fill="#A25576"/>
<path d="M226.123 491.535H219.117V508.049H226.123V491.535Z" fill="white"/>
<path opacity="0.2" d="M247.769 538.979H240.763V555.493H247.769V538.979Z" fill="#B374BA"/>
<path d="M253.114 644.486H246.108V661H253.114V644.486Z" fill="white"/>
<path d="M203.88 677.623H196.874V694.137H203.88V677.623Z" fill="white"/>
<path d="M222.62 734.755H215.614V751.269H222.62V734.755Z" fill="white"/>
<path d="M243.253 619.715H236.247V636.229H243.253V619.715Z" fill="white"/>
<path d="M318.625 489.154H311.619V505.668H318.625V489.154Z" fill="white"/>
<path d="M308.032 559.984H301.026V576.498H308.032V559.984Z" fill="white"/>
<path d="M330.93 651.222H323.924V667.736H330.93V651.222Z" fill="white"/>
<path d="M295.06 731.496H288.054V748.01H295.06V731.496Z" fill="white"/>
<path d="M1278.92 314.614L1276.61 305.69L1223.78 294.174L1183.85 301.706L1180.69 309.719L1278.92 314.614Z" fill="url(#paint37_linear)"/>
<path d="M1223.78 801.78V305.048L1179.03 309.899L1172.17 803.409L1223.78 801.78Z" fill="url(#paint38_linear)"/>
<path d="M1293.17 801.542L1223.78 801.78V305.048L1282.1 315.166L1293.17 801.542Z" fill="url(#paint39_linear)"/>
<path d="M1183.85 301.706L1223.78 294.174V305.048L1180.69 309.719L1183.85 301.706Z" fill="url(#paint40_linear)"/>
<path d="M1183.85 301.706L1210.16 284.787L1223.78 294.174L1183.85 301.706Z" fill="#A25576"/>
<path d="M1276.61 305.69L1238.91 289.67L1210.16 284.787L1223.78 294.174L1276.61 305.69Z" fill="#D6BCFF"/>
<path d="M1192.05 372.92H1185.04V389.434H1192.05V372.92Z" fill="white"/>
<path opacity="0.2" d="M1213.7 420.371H1206.7V436.885H1213.7V420.371Z" fill="#B374BA"/>
<path d="M1219.05 525.878H1212.04V542.392H1219.05V525.878Z" fill="white"/>
<path d="M1188.55 616.14H1181.54V632.655H1188.55V616.14Z" fill="white"/>
<path d="M1209.18 501.1H1202.17V517.614H1209.18V501.1Z" fill="white"/>
<path d="M1264.5 345.653H1257.49V362.167H1264.5V345.653Z" fill="white"/>
<path d="M1271.84 412.108H1264.83V428.622H1271.84V412.108Z" fill="white"/>
<path d="M1246.89 594.443H1239.88V610.957H1246.89V594.443Z" fill="white"/>
<path d="M805.392 121.61L791.451 139.773L788.365 161.246H784.727L778.992 246.781H776.894L772.845 341.798L770.452 342.234L754.387 811.846L777.638 812.34L805.392 121.61Z" fill="url(#paint41_linear)"/>
<path d="M863.012 121.61L876.954 139.773L880.04 161.246H883.677L889.419 246.781H893.295L895.559 341.798L897.952 342.234L914.017 811.846L890.767 812.34L863.012 121.61Z" fill="url(#paint42_linear)"/>
<path d="M794.64 163.729L799.464 134.621H871.436L875.503 163.729H794.64Z" fill="url(#paint43_linear)"/>
<path d="M778.401 716.649L785.779 246.781H884.845L897.837 716.232L778.401 716.649Z" fill="url(#paint44_linear)"/>
<path d="M777.638 812.34L781.417 339.943H889.49L899.96 811.917L777.638 812.34Z" fill="url(#paint45_linear)"/>
<path d="M788.211 246.78L791.451 161.246H878.301L881.932 246.78H788.211Z" fill="url(#paint46_linear)"/>
<path d="M849.801 100.534H846.106V134.621H849.801V100.534Z" fill="#E1CEFF"/>
<path d="M818.108 100.534H814.413V134.621H818.108V100.534Z" fill="#E1CEFF"/>
<path d="M826.032 100.534H822.336V134.621H826.032V100.534Z" fill="#E1CEFF"/>
<path d="M833.955 100.534H830.26V134.621H833.955V100.534Z" fill="#E1CEFF"/>
<path d="M841.879 100.534H838.183V134.621H841.879V100.534Z" fill="#E1CEFF"/>
<path d="M857.732 100.534H854.037V134.621H857.732V100.534Z" fill="#E1CEFF"/>
<path d="M799.464 134.621L814.412 101.83V103.53L805.546 134.621H799.464Z" fill="#E1CEFF"/>
<path d="M871.436 134.621L857.726 101.83V103.787L865.88 134.621H871.436Z" fill="#E1CEFF"/>
<path d="M871.435 134.621H799.464L805.392 121.61L865.918 121.424L871.435 134.621Z" fill="#E1CEFF"/>
<path d="M893.294 246.78L889.021 240.897H779.383L776.894 246.78H893.294Z" fill="#E1CEFF"/>
<path d="M897.952 342.234L895.443 337.108H773.044L770.452 342.234H897.952Z" fill="#E1CEFF"/>
<path d="M883.677 161.246L879.718 159.007H788.686L784.727 161.246H883.677Z" fill="#E1CEFF"/>
<g opacity="0.2">
<path opacity="0.2" d="M908.487 643.138H760.149V643.94H908.487V643.138Z" fill="#7C6BB5"/>
</g>
<g opacity="0.2">
<path opacity="0.2" d="M908.487 674.543H760.149V675.345H908.487V674.543Z" fill="#7C6BB5"/>
</g>
<g opacity="0.2">
<path opacity="0.2" d="M911.181 709.74H757.871V710.542H911.181V709.74Z" fill="#7C6BB5"/>
</g>
<g opacity="0.2">
<path opacity="0.2" d="M911.181 739.348H757.871V740.15H911.181V739.348Z" fill="#7C6BB5"/>
</g>
<g opacity="0.2">
<path opacity="0.2" d="M911.181 763.317H757.871V764.119H911.181V763.317Z" fill="#7C6BB5"/>
</g>
<g opacity="0.2">
<path opacity="0.2" d="M911.181 792.9H757.871V793.702H911.181V792.9Z" fill="#7C6BB5"/>
</g>
<g opacity="0.2">
<path opacity="0.2" d="M907.184 611.765H761.252V612.567H907.184V611.765Z" fill="#7C6BB5"/>
</g>
<g opacity="0.2">
<path opacity="0.2" d="M906.215 581.791H762.246V582.593H906.215V581.791Z" fill="#7C6BB5"/>
</g>
<g opacity="0.2">
<path opacity="0.2" d="M904.112 551.81H763.273V552.612H904.112V551.81Z" fill="#7C6BB5"/>
</g>
<g opacity="0.2">
<path opacity="0.2" d="M904.104 521.836H765.319V522.638H904.104V521.836Z" fill="#7C6BB5"/>
</g>
<g opacity="0.2">
<path opacity="0.2" d="M903.591 491.855H765.319V492.657H903.591V491.855Z" fill="#7C6BB5"/>
</g>
<g opacity="0.2">
<path opacity="0.2" d="M902.205 461.874H766.346V462.676H902.205V461.874Z" fill="#7C6BB5"/>
</g>
<g opacity="0.2">
<path opacity="0.2" d="M901.031 431.9H767.328V432.702H901.031V431.9Z" fill="#7C6BB5"/>
</g>
<g opacity="0.2">
<path opacity="0.2" d="M900.005 401.919H767.879V402.721H900.005V401.919Z" fill="#7C6BB5"/>
</g>
<g opacity="0.2">
<path opacity="0.2" d="M898.979 371.945H769.426V372.747H898.979V371.945Z" fill="#7C6BB5"/>
</g>
<g opacity="0.2">
<path opacity="0.2" d="M897.946 341.965H770.452V342.767H897.946V341.965Z" fill="#7C6BB5"/>
</g>
<g opacity="0.2">
<path opacity="0.2" d="M894.853 311.984H774.096V312.786H894.853V311.984Z" fill="#7C6BB5"/>
</g>
<g opacity="0.2">
<path opacity="0.2" d="M894.142 282.009H776.573V282.811H894.142V282.009Z" fill="#7C6BB5"/>
</g>
<g opacity="0.2">
<path opacity="0.2" d="M893.429 252.029H776.573V252.831H893.429V252.029Z" fill="#7C6BB5"/>
</g>
<path opacity="0.2" d="M887.687 222.048H780.531V222.85H887.687V222.048Z" fill="#7C6BB5"/>
<g opacity="0.2">
<path opacity="0.2" d="M885.768 192.073H782.629V192.875H885.768V192.073Z" fill="#7C6BB5"/>
</g>
<g opacity="0.2">
<path opacity="0.2" d="M883.652 162.108L785.61 163.383L785.62 164.185L883.662 162.91L883.652 162.108Z" fill="#7C6BB5"/>
</g>
<path d="M812.693 739.753H810.73V757.89H812.693V739.753Z" fill="#9092BD"/>
<path d="M815.985 739.752H814.021V757.889H815.985V739.752Z" fill="#9092BD"/>
<path d="M819.276 739.752H817.312V757.889H819.276V739.752Z" fill="#9092BD"/>
<path d="M822.567 739.752H820.604V757.889H822.567V739.752Z" fill="#9092BD"/>
<path d="M825.859 739.752H823.896V757.889H825.859V739.752Z" fill="#9092BD"/>
<path d="M829.15 739.752H827.187V757.889H829.15V739.752Z" fill="#9092BD"/>
<path d="M832.44 739.752H830.477V757.889H832.44V739.752Z" fill="#9092BD"/>
<path d="M835.738 739.752H833.775V757.889H835.738V739.752Z" fill="#9092BD"/>
<path d="M839.03 739.752H837.067V757.889H839.03V739.752Z" fill="#9092BD"/>
<path d="M842.321 739.752H840.358V757.889H842.321V739.752Z" fill="#9092BD"/>
<path d="M845.612 739.752H843.649V757.889H845.612V739.752Z" fill="#9092BD"/>
<path d="M848.904 739.752H846.94V757.889H848.904V739.752Z" fill="#9092BD"/>
<path d="M852.195 739.752H850.232V757.889H852.195V739.752Z" fill="#9092BD"/>
<path d="M855.486 739.752H853.523V757.889H855.486V739.752Z" fill="#9092BD"/>
<path d="M858.778 739.752H856.814V757.889H858.778V739.752Z" fill="#9092BD"/>
<path d="M862.076 739.752H860.112V757.889H862.076V739.752Z" fill="#9092BD"/>
<path d="M812.693 761.047H810.73V766.256H812.693V761.047Z" fill="#9092BD"/>
<path d="M815.985 761.046H814.021V766.256H815.985V761.046Z" fill="#9092BD"/>
<path d="M819.276 761.046H817.312V766.256H819.276V761.046Z" fill="#9092BD"/>
<path d="M822.567 761.046H820.604V766.256H822.567V761.046Z" fill="#9092BD"/>
<path d="M825.859 761.046H823.896V766.256H825.859V761.046Z" fill="#9092BD"/>
<path d="M829.15 761.046H827.187V766.256H829.15V761.046Z" fill="#9092BD"/>
<path d="M832.44 761.046H830.477V766.256H832.44V761.046Z" fill="#9092BD"/>
<path d="M835.738 761.046H833.775V766.256H835.738V761.046Z" fill="#9092BD"/>
<path d="M839.03 761.046H837.067V766.256H839.03V761.046Z" fill="#9092BD"/>
<path d="M842.321 761.046H840.358V766.256H842.321V761.046Z" fill="#9092BD"/>
<path d="M845.612 761.046H843.649V766.256H845.612V761.046Z" fill="#9092BD"/>
<path d="M848.904 761.046H846.94V766.256H848.904V761.046Z" fill="#9092BD"/>
<path d="M852.195 761.046H850.232V766.256H852.195V761.046Z" fill="#9092BD"/>
<path d="M855.486 761.046H853.523V766.256H855.486V761.046Z" fill="#9092BD"/>
<path d="M858.778 761.046H856.814V766.256H858.778V761.046Z" fill="#9092BD"/>
<path d="M862.076 761.046H860.112V766.256H862.076V761.046Z" fill="#9092BD"/>
<path d="M812.693 271.668H810.73V289.805H812.693V271.668Z" fill="#9092BD"/>
<path d="M815.985 271.667H814.021V289.805H815.985V271.667Z" fill="#9092BD"/>
<path d="M819.276 271.667H817.312V289.805H819.276V271.667Z" fill="#9092BD"/>
<path d="M822.567 271.667H820.604V289.805H822.567V271.667Z" fill="#9092BD"/>
<path d="M825.859 271.667H823.896V289.805H825.859V271.667Z" fill="#9092BD"/>
<path d="M829.15 271.667H827.187V289.805H829.15V271.667Z" fill="#9092BD"/>
<path d="M832.44 271.667H830.477V289.805H832.44V271.667Z" fill="#9092BD"/>
<path d="M835.738 271.667H833.775V289.805H835.738V271.667Z" fill="#9092BD"/>
<path d="M839.03 271.667H837.067V289.805H839.03V271.667Z" fill="#9092BD"/>
<path d="M842.321 271.667H840.358V289.805H842.321V271.667Z" fill="#9092BD"/>
<path d="M845.612 271.667H843.649V289.805H845.612V271.667Z" fill="#9092BD"/>
<path d="M848.904 271.667H846.94V289.805H848.904V271.667Z" fill="#9092BD"/>
<path d="M852.195 271.667H850.232V289.805H852.195V271.667Z" fill="#9092BD"/>
<path d="M855.486 271.667H853.523V289.805H855.486V271.667Z" fill="#9092BD"/>
<path d="M858.778 271.667H856.814V289.805H858.778V271.667Z" fill="#9092BD"/>
<path d="M862.076 271.667H860.112V289.805H862.076V271.667Z" fill="#9092BD"/>
<path d="M812.693 292.961H810.73V298.171H812.693V292.961Z" fill="#9092BD"/>
<path d="M815.985 292.961H814.021V298.171H815.985V292.961Z" fill="#9092BD"/>
<path d="M819.276 292.961H817.312V298.171H819.276V292.961Z" fill="#9092BD"/>
<path d="M822.567 292.961H820.604V298.171H822.567V292.961Z" fill="#9092BD"/>
<path d="M825.859 292.961H823.896V298.171H825.859V292.961Z" fill="#9092BD"/>
<path d="M829.15 292.961H827.187V298.171H829.15V292.961Z" fill="#9092BD"/>
<path d="M832.44 292.961H830.477V298.171H832.44V292.961Z" fill="#9092BD"/>
<path d="M835.738 292.961H833.775V298.171H835.738V292.961Z" fill="#9092BD"/>
<path d="M839.03 292.961H837.067V298.171H839.03V292.961Z" fill="#9092BD"/>
<path d="M842.321 292.961H840.358V298.171H842.321V292.961Z" fill="#9092BD"/>
<path d="M845.612 292.961H843.649V298.171H845.612V292.961Z" fill="#9092BD"/>
<path d="M848.904 292.961H846.94V298.171H848.904V292.961Z" fill="#9092BD"/>
<path d="M852.195 292.961H850.232V298.171H852.195V292.961Z" fill="#9092BD"/>
<path d="M855.486 292.961H853.523V298.171H855.486V292.961Z" fill="#9092BD"/>
<path d="M858.778 292.961H856.814V298.171H858.778V292.961Z" fill="#9092BD"/>
<path d="M862.076 292.961H860.112V298.171H862.076V292.961Z" fill="#9092BD"/>
<path d="M812.693 361.776H810.73V379.913H812.693V361.776Z" fill="#9092BD"/>
<path d="M815.985 361.776H814.021V379.913H815.985V361.776Z" fill="#9092BD"/>
<path d="M819.276 361.776H817.312V379.913H819.276V361.776Z" fill="#9092BD"/>
<path d="M822.567 361.776H820.604V379.913H822.567V361.776Z" fill="#9092BD"/>
<path d="M825.859 361.776H823.896V379.913H825.859V361.776Z" fill="#9092BD"/>
<path d="M829.15 361.776H827.187V379.913H829.15V361.776Z" fill="#9092BD"/>
<path d="M832.44 361.776H830.477V379.913H832.44V361.776Z" fill="#9092BD"/>
<path d="M835.738 361.776H833.775V379.913H835.738V361.776Z" fill="#9092BD"/>
<path d="M839.03 361.776H837.067V379.913H839.03V361.776Z" fill="#9092BD"/>
<path d="M842.321 361.776H840.358V379.913H842.321V361.776Z" fill="#9092BD"/>
<path d="M845.612 361.776H843.649V379.913H845.612V361.776Z" fill="#9092BD"/>
<path d="M848.904 361.776H846.94V379.913H848.904V361.776Z" fill="#9092BD"/>
<path d="M852.195 361.776H850.232V379.913H852.195V361.776Z" fill="#9092BD"/>
<path d="M855.486 361.776H853.523V379.913H855.486V361.776Z" fill="#9092BD"/>
<path d="M858.778 361.776H856.814V379.913H858.778V361.776Z" fill="#9092BD"/>
<path d="M862.076 361.776H860.112V379.913H862.076V361.776Z" fill="#9092BD"/>
<path d="M812.693 383.076H810.73V388.286H812.693V383.076Z" fill="#9092BD"/>
<path d="M815.985 383.076H814.021V388.286H815.985V383.076Z" fill="#9092BD"/>
<path d="M819.276 383.076H817.312V388.286H819.276V383.076Z" fill="#9092BD"/>
<path d="M822.567 383.076H820.604V388.286H822.567V383.076Z" fill="#9092BD"/>
<path d="M825.859 383.076H823.896V388.286H825.859V383.076Z" fill="#9092BD"/>
<path d="M829.15 383.076H827.187V388.286H829.15V383.076Z" fill="#9092BD"/>
<path d="M832.44 383.076H830.477V388.286H832.44V383.076Z" fill="#9092BD"/>
<path d="M835.738 383.076H833.775V388.286H835.738V383.076Z" fill="#9092BD"/>
<path d="M839.03 383.076H837.067V388.286H839.03V383.076Z" fill="#9092BD"/>
<path d="M842.321 383.076H840.358V388.286H842.321V383.076Z" fill="#9092BD"/>
<path d="M845.612 383.076H843.649V388.286H845.612V383.076Z" fill="#9092BD"/>
<path d="M848.904 383.076H846.94V388.286H848.904V383.076Z" fill="#9092BD"/>
<path d="M852.195 383.076H850.232V388.286H852.195V383.076Z" fill="#9092BD"/>
<path d="M855.486 383.076H853.523V388.286H855.486V383.076Z" fill="#9092BD"/>
<path d="M858.778 383.076H856.814V388.286H858.778V383.076Z" fill="#9092BD"/>
<path d="M862.076 383.076H860.112V388.286H862.076V383.076Z" fill="#9092BD"/>
<path d="M812.693 497.412H810.73V515.549H812.693V497.412Z" fill="#9092BD"/>
<path d="M815.985 497.411H814.021V515.548H815.985V497.411Z" fill="#9092BD"/>
<path d="M819.276 497.411H817.312V515.548H819.276V497.411Z" fill="#9092BD"/>
<path d="M822.567 497.411H820.604V515.548H822.567V497.411Z" fill="#9092BD"/>
<path d="M825.859 497.411H823.896V515.548H825.859V497.411Z" fill="#9092BD"/>
<path d="M829.15 497.411H827.187V515.548H829.15V497.411Z" fill="#9092BD"/>
<path d="M832.44 497.411H830.477V515.548H832.44V497.411Z" fill="#9092BD"/>
<path d="M835.738 497.411H833.775V515.548H835.738V497.411Z" fill="#9092BD"/>
<path d="M839.03 497.411H837.067V515.548H839.03V497.411Z" fill="#9092BD"/>
<path d="M842.321 497.411H840.358V515.548H842.321V497.411Z" fill="#9092BD"/>
<path d="M845.612 497.411H843.649V515.548H845.612V497.411Z" fill="#9092BD"/>
<path d="M848.904 497.411H846.94V515.548H848.904V497.411Z" fill="#9092BD"/>
<path d="M852.195 497.411H850.232V515.548H852.195V497.411Z" fill="#9092BD"/>
<path d="M855.486 497.411H853.523V515.548H855.486V497.411Z" fill="#9092BD"/>
<path d="M858.778 497.411H856.814V515.548H858.778V497.411Z" fill="#9092BD"/>
<path d="M862.076 497.411H860.112V515.548H862.076V497.411Z" fill="#9092BD"/>
<path d="M812.693 518.711H810.73V523.921H812.693V518.711Z" fill="#9092BD"/>
<path d="M815.985 518.711H814.021V523.921H815.985V518.711Z" fill="#9092BD"/>
<path d="M819.276 518.711H817.312V523.921H819.276V518.711Z" fill="#9092BD"/>
<path d="M822.567 518.711H820.604V523.921H822.567V518.711Z" fill="#9092BD"/>
<path d="M825.859 518.711H823.896V523.921H825.859V518.711Z" fill="#9092BD"/>
<path d="M829.15 518.711H827.187V523.921H829.15V518.711Z" fill="#9092BD"/>
<path d="M832.44 518.711H830.477V523.921H832.44V518.711Z" fill="#9092BD"/>
<path d="M835.738 518.711H833.775V523.921H835.738V518.711Z" fill="#9092BD"/>
<path d="M839.03 518.711H837.067V523.921H839.03V518.711Z" fill="#9092BD"/>
<path d="M842.321 518.711H840.358V523.921H842.321V518.711Z" fill="#9092BD"/>
<path d="M845.612 518.711H843.649V523.921H845.612V518.711Z" fill="#9092BD"/>
<path d="M848.904 518.711H846.94V523.921H848.904V518.711Z" fill="#9092BD"/>
<path d="M852.195 518.711H850.232V523.921H852.195V518.711Z" fill="#9092BD"/>
<path d="M855.486 518.711H853.523V523.921H855.486V518.711Z" fill="#9092BD"/>
<path d="M858.778 518.711H856.814V523.921H858.778V518.711Z" fill="#9092BD"/>
<path d="M862.076 518.711H860.112V523.921H862.076V518.711Z" fill="#9092BD"/>
<g opacity="0.2">
<path opacity="0.2" d="M885.768 192.073H782.629V192.875H885.768V192.073Z" fill="#7C6BB5"/>
</g>
<g opacity="0.2">
<path opacity="0.2" d="M784.76 160.864L784.75 161.666L883.696 162.922L883.706 162.12L784.76 160.864Z" fill="#7C6BB5"/>
</g>
<path d="M804.391 439.085H797.385V455.6H804.391V439.085Z" fill="white"/>
<path opacity="0.2" d="M837.965 472.325H830.959V488.84H837.965V472.325Z" fill="#B374BA"/>
<path d="M831.389 592.043H824.383V608.557H831.389V592.043Z" fill="white"/>
<path d="M888.514 711.928H881.508V728.442H888.514V711.928Z" fill="white"/>
<path d="M800.889 682.306H793.883V698.82H800.889V682.306Z" fill="white"/>
<path d="M821.521 567.266H814.515V583.78H821.521V567.266Z" fill="white"/>
<path d="M876.838 411.819H869.832V428.333H876.838V411.819Z" fill="white"/>
<path d="M804.391 316.686H797.385V333.2H804.391V316.686Z" fill="white"/>
<path d="M744.654 804.295L725.247 383.763L658.369 324.95L618.534 381.954L590.176 804.295H744.654Z" fill="url(#paint47_linear)"/>
<path d="M654.494 804.295H590.176L618.534 381.954L658.369 324.95L654.494 804.295Z" fill="url(#paint48_linear)"/>
<path d="M658.37 324.95L648.932 804.295H654.495L659.268 325.739L658.37 324.95Z" fill="#D6BCFF"/>
<path d="M600.422 653.57L655.816 589.791L737.533 649.977L736.808 647.995L655.155 587.802L600.422 651.774V653.57Z" fill="url(#paint49_linear)"/>
<path d="M590.176 804.295L651.312 724.868L737.533 649.977L737.616 651.774L651.158 726.928L594.552 804.295H590.176Z" fill="url(#paint50_linear)"/>
<path d="M744.654 804.295L651.312 724.868L600.422 655.104V653.57L653.166 723.335L744.654 801.697V804.295Z" fill="url(#paint51_linear)"/>
<path d="M732.028 530.805L655.816 589.791L608.346 544.483L655.155 587.802L731.938 528.823L732.028 530.805Z" fill="#D6BCFF"/>
<path d="M731.939 528.823L655.348 469.073L615.089 433.331L615.211 431.496L655.867 467.277L731.855 526.949L731.939 528.823Z" fill="#D6BCFF"/>
<path d="M608.346 533.705L655.347 469.073L727.268 427.608V425.665L655.867 467.277L608.5 531.479L608.346 533.705Z" fill="#D6BCFF"/>
<path d="M726.979 421.308L657.792 354.245L615.211 431.496L615.365 429.18L658.023 351.864L726.941 420.577L726.979 421.308Z" fill="#D6BCFF"/>
<path d="M655.155 587.802L654.494 804.295H714.911V633.316L655.155 587.802Z" fill="url(#paint52_linear)"/>
<path d="M655.867 467.277L586.346 524.127L580.123 804.295H648.932L655.867 467.277Z" fill="url(#paint53_linear)"/>
<path d="M655.155 587.802L735.14 598.151L714.911 633.316L655.155 587.802Z" fill="url(#paint54_linear)"/>
<path d="M714.911 633.316V804.295H744.654L735.14 598.151L714.911 633.316Z" fill="url(#paint55_linear)"/>
<path d="M735.14 598.151L714.911 633.316L655.155 587.802L714.911 638.609L735.14 598.151Z" fill="#D6BCFF"/>
<path d="M654.803 701.22L714.912 638.609L739.112 684.257L739.195 686.053L714.912 642.67L654.803 702.747V701.22Z" fill="#D6BCFF"/>
<path d="M739.965 702.747L714.911 763.664L654.796 705.229L654.802 707.276L714.911 766.282L740.022 703.946L739.965 702.747Z" fill="#D6BCFF"/>
<path d="M714.911 638.609V804.295H717.189L714.911 638.609Z" fill="#D6BCFF"/>
<path d="M655.868 467.277L586.347 524.127L655.155 587.803L589.696 523.883L655.848 468.483L655.868 467.277Z" fill="#D6BCFF"/>
<path d="M582.137 770.516L653.647 702.464L585.756 646.263L655.155 587.802V589.791L589.002 645.217L654.802 701.22V704.364L582.022 772.377L582.137 770.516Z" fill="#D6BCFF"/>
<path d="M586.346 524.127L588.233 523.132L580.123 804.295L586.346 524.127Z" fill="#D6BCFF"/>
<path d="M657.381 326.355L648.008 312.645V310.431L658.369 324.95L657.381 326.355Z" fill="#D6BCFF"/>
<path d="M658.369 324.95L675.384 311.907L676.038 312.645L659.267 325.739L658.369 324.95Z" fill="#D6BCFF"/>
<path d="M675.826 340.303L674.595 237.78H675.307L679.663 343.678L675.826 340.303Z" fill="#D6BCFF"/>
<path d="M648.438 339.161L649.65 237.78H648.945L644.601 344.646L648.438 339.161Z" fill="#D6BCFF"/>
<path d="M647.116 310.867L677.103 312.645V309.963H647.116V310.867Z" fill="#D6BCFF"/>
<path d="M1013.76 278.378L1015.88 263.436L1061.89 240.525V259.452L1013.76 278.378Z" fill="url(#paint56_linear)"/>
<path d="M1061.89 240.525L1101.96 257.45L1104.33 273.983L1061.89 259.452V240.525Z" fill="url(#paint57_linear)"/>
<path d="M1002.47 311.638L1005.95 281.869L1061.89 256.847V294.046L1002.47 311.638Z" fill="url(#paint58_linear)"/>
<path d="M982.589 804.295L991.077 308.988L1046.32 286L1058.4 804.295H982.589Z" fill="url(#paint59_linear)"/>
<path d="M1046.32 286L1064.27 285.667L1069.59 804.295H1053.12L1046.32 286Z" fill="url(#paint60_linear)"/>
<path d="M1115.83 303.579L1112.44 276.948L1061.89 256.847V294.046L1115.83 303.579Z" fill="url(#paint61_linear)"/>
<path d="M1064.27 285.667L1072.88 284.242L1082.11 804.295H1069.59L1064.27 285.667Z" fill="url(#paint62_linear)"/>
<path d="M1072.88 284.242L1126.22 298.646L1152.63 804.295H1082.11L1072.88 284.242Z" fill="url(#paint63_linear)"/>
<path d="M1061.89 240.526L1057.95 215.652L1101.96 257.45L1061.89 240.526Z" fill="url(#paint64_linear)"/>
<path d="M1058.11 98L1057.31 175.759L1059.69 174.828L1058.68 98H1058.11Z" fill="#D6BCFF"/>
<path d="M1057.95 215.652L1015.88 263.436L1061.89 240.526L1057.95 215.652Z" fill="url(#paint65_linear)"/>
<path d="M1058.68 220.239L1064.27 221.323L1060.51 174.828H1058.68V220.239Z" fill="#D6BCFF"/>
<path d="M1058.68 174.828L1056.63 176.214L1052.96 221.323L1058.68 220.239V174.828Z" fill="#A25576"/>
<path d="M1120.7 297.157L1117.85 262.198L1064.27 221.323L1067.54 225.147L1115.52 263.436L1117.52 296.297L1120.7 297.157Z" fill="#D6BCFF"/>
<path d="M996.774 306.614L999.738 268.504L1052.96 221.323L1049.33 225.801L1003.77 268.504L1001.23 304.76L996.774 306.614Z" fill="#D6BCFF"/>
<path d="M1068.66 804.045L1059.44 240.526L1058.68 220.239L1064.27 241.526L1070.66 804.295L1068.66 804.045Z" fill="#D6BCFF"/>
<path d="M1096.01 778.549L1083.05 317.854L1092.48 318.772V296.483L1114.52 303.181L1115.83 320.889L1123.2 321.569L1142.36 777.894L1134.65 778.055L1134.47 792.618L1107.63 792.285L1106.32 778.382L1096.01 778.549Z" fill="url(#paint66_linear)"/>
<path opacity="0.5" d="M1043.66 779.415L1037.48 318.579L1028.1 319.888L1027.17 297.619L1005.38 306.614L1004.83 323.994L998.814 326.368L997.326 780.685L1005.04 780.525L1005.83 795.069L1032.63 793.619L1033.36 779.678L1043.66 779.415Z" fill="url(#paint67_linear)"/>
<g opacity="0.2">
<path opacity="0.2" d="M1127.6 326.753L1073.12 317.039L1073.26 316.27L1127.74 325.983L1127.6 326.753Z" fill="#7C6BB5"/>
</g>
<g opacity="0.2">
<path opacity="0.2" d="M1129.04 353.911L1073.93 346.757L1074.03 345.981L1129.14 353.134L1129.04 353.911Z" fill="#7C6BB5"/>
</g>
<g opacity="0.2">
<path opacity="0.2" d="M1130.75 386.573L1073.93 379.157L1074.03 378.38L1130.84 385.797L1130.75 386.573Z" fill="#7C6BB5"/>
</g>
<g opacity="0.2">
<path opacity="0.2" d="M1132.3 416.336L1075.02 409.278L1075.12 408.502L1132.4 415.559L1132.3 416.336Z" fill="#7C6BB5"/>
</g>
<g opacity="0.2">
<path opacity="0.2" d="M1075.73 443.554L1075.67 444.334L1134 448.662L1134.06 447.882L1075.73 443.554Z" fill="#7C6BB5"/>
</g>
<g opacity="0.2">
<path opacity="0.2" d="M1135.76 482.039L1075.7 479.916L1075.73 479.133L1135.79 481.25L1135.76 482.039Z" fill="#7C6BB5"/>
</g>
<g opacity="0.2">
<path opacity="0.2" d="M1137.55 514.888H1076.98V515.67H1137.55V514.888Z" fill="#7C6BB5"/>
</g>
<g opacity="0.2">
<path opacity="0.2" d="M1140.24 554.537H1077.68V555.32H1140.24V554.537Z" fill="#7C6BB5"/>
</g>
<g opacity="0.2">
<path opacity="0.2" d="M1140.25 585.5H1078.23V586.282H1140.25V585.5Z" fill="#7C6BB5"/>
</g>
<g opacity="0.2">
<path opacity="0.2" d="M1143.03 620.106H1079.46V620.889H1143.03V620.106Z" fill="#7C6BB5"/>
</g>
<g opacity="0.2">
<path opacity="0.2" d="M1144.84 654.706H1079.46V655.489H1144.84V654.706Z" fill="#7C6BB5"/>
</g>
<g opacity="0.2">
<path opacity="0.2" d="M1145.57 689.306H1080.69V690.088H1145.57V689.306Z" fill="#7C6BB5"/>
</g>
<g opacity="0.2">
<path opacity="0.2" d="M1148.45 723.912H1080.69V724.695H1148.45V723.912Z" fill="#7C6BB5"/>
</g>
<g opacity="0.2">
<path opacity="0.2" d="M1150.32 758.512H1081.75V759.295H1150.32V758.512Z" fill="#7C6BB5"/>
</g>
<g opacity="0.2">
<path opacity="0.2" d="M1046.6 316.205L990.297 334.714L990.541 335.458L1046.85 316.948L1046.6 316.205Z" fill="#7C6BB5"/>
</g>
<g opacity="0.2">
<path opacity="0.2" d="M1047.68 345.969L990.179 358.099L990.34 358.865L1047.84 346.735L1047.68 345.969Z" fill="#7C6BB5"/>
</g>
<g opacity="0.2">
<path opacity="0.2" d="M989.813 386.387L989.697 385.611L1047.46 376.917L1047.57 377.694L989.813 386.387Z" fill="#7C6BB5"/>
</g>
<g opacity="0.2">
<path opacity="0.2" d="M989.326 413.243L989.262 412.461L1047.48 407.739L1047.55 408.521L989.326 413.243Z" fill="#7C6BB5"/>
</g>
<g opacity="0.2">
<path opacity="0.2" d="M989.318 444.398L989.273 443.615L1047.7 440.568L1047.74 441.351L989.318 444.398Z" fill="#7C6BB5"/>
</g>
<g opacity="0.2">
<path opacity="0.2" d="M988.208 479.916L988.183 479.133L1048.42 477.016L1048.45 477.798L988.208 479.916Z" fill="#7C6BB5"/>
</g>
<g opacity="0.2">
<path opacity="0.2" d="M987.568 514.67L987.555 513.887L1049.29 512.771L1049.31 513.553L987.568 514.67Z" fill="#7C6BB5"/>
</g>
<g opacity="0.2">
<path opacity="0.2" d="M1049.3 550.501H986.933V551.284H1049.3V550.501Z" fill="#7C6BB5"/>
</g>
<g opacity="0.2">
<path opacity="0.2" d="M1050.55 585.563L986.349 585.024L986.355 584.242L1050.56 584.781L1050.55 585.563Z" fill="#7C6BB5"/>
</g>
<g opacity="0.2">
<path opacity="0.2" d="M986.355 620.555L986.349 619.773L1049.3 619.535V620.318L986.355 620.555Z" fill="#7C6BB5"/>
</g>
<g opacity="0.2">
<path opacity="0.2" d="M1051.13 652.768H985.181V653.551H1051.13V652.768Z" fill="#7C6BB5"/>
</g>
<g opacity="0.2">
<path opacity="0.2" d="M1051.62 689.306H984.552V690.088H1051.62V689.306Z" fill="#7C6BB5"/>
</g>
<g opacity="0.2">
<path opacity="0.2" d="M1051.62 722.764H984.552V723.547H1051.62V722.764Z" fill="#7C6BB5"/>
</g>
<g opacity="0.2">
<path opacity="0.2" d="M1052.53 758.512H983.372V759.295H1052.53V758.512Z" fill="#7C6BB5"/>
</g>
<path d="M1104.83 385.63H1097.82V402.144H1104.83V385.63Z" fill="white"/>
<path opacity="0.2" d="M1126.47 433.081H1119.47V449.595H1126.47V433.081Z" fill="#B374BA"/>
<path d="M1126.47 667.345H1119.47V683.859H1126.47V667.345Z" fill="white"/>
<path d="M1101.32 628.851H1094.32V645.365H1101.32V628.851Z" fill="white"/>
<path d="M1121.96 513.81H1114.95V530.324H1121.96V513.81Z" fill="white"/>
<path d="M1012.56 562.999H1005.55V579.513H1012.56V562.999Z" fill="white"/>
<path d="M1019.38 387.272H1012.38V403.787H1019.38V387.272Z" fill="white"/>
<path d="M1264.6 798.11V377.848L1306.22 365.01L1321.31 796.051L1264.6 798.11Z" fill="url(#paint68_linear)"/>
<path d="M1271.88 375.602L1274.09 369.27L1308.01 355.906L1306.22 365.01L1271.88 375.602Z" fill="url(#paint69_linear)"/>
<path d="M1348.79 369.584L1346.58 363.81L1308.01 355.906L1306.22 365.01L1348.79 369.584Z" fill="url(#paint70_linear)"/>
<path d="M1306.22 365.01L1372.61 372.144L1391.84 793.388L1311.03 796.442L1306.22 365.01Z" fill="url(#paint71_linear)"/>
<path d="M1306.22 365.01L1311.03 796.442L1314.52 796.205V365.01H1306.22Z" fill="url(#paint72_linear)"/>
<path d="M1372.61 372.144H1368.21L1387.21 793.562L1391.84 793.388L1372.61 372.144Z" fill="url(#paint73_linear)"/>
<path d="M1264.6 377.848V798.11L1267.31 798.014V377.014L1264.6 377.848Z" fill="url(#paint74_linear)"/>
<path d="M1334.19 523.825H1329.22V535.546H1334.19V523.825Z" fill="white"/>
<path opacity="0.2" d="M1349.55 557.488H1344.58V569.21H1349.55V557.488Z" fill="#B374BA"/>
<path d="M1353.34 632.354H1348.37V644.075H1353.34V632.354Z" fill="white"/>
<path d="M1376.3 733.895H1371.33V745.616H1376.3V733.895Z" fill="white"/>
<path d="M1331.71 696.401H1326.74V708.123H1331.71V696.401Z" fill="white"/>
<path d="M1341.56 749.543H1336.59V761.264H1341.56V749.543Z" fill="white"/>
<path d="M1346.35 614.774H1341.38V626.495H1346.35V614.774Z" fill="white"/>
<path d="M1359.6 481.212H1354.63V492.933H1359.6V481.212Z" fill="white"/>
<path d="M1323.79 410.081H1318.82V421.802H1323.79V410.081Z" fill="white"/>
<path d="M340.798 805.507L352.725 416.676L391.591 405.98L393.317 805.212L340.798 805.507Z" fill="url(#paint75_linear)"/>
<path d="M359.525 414.808L361.752 409.009L393.516 397.608L391.591 405.98L359.525 414.808Z" fill="url(#paint76_linear)"/>
<path d="M430.856 411.421L428.969 406.013L393.516 397.608L391.591 405.98L430.856 411.421Z" fill="url(#paint77_linear)"/>
<path d="M391.591 405.98L452.823 414.462L458.655 804.75L383.803 805.283L391.591 405.98Z" fill="url(#paint78_linear)"/>
<path d="M391.591 405.98L383.803 805.283L387.036 805.161L399.277 406.211L391.591 405.98Z" fill="#E1CEFF"/>
<path d="M452.823 414.462L448.749 414.34L454.369 804.782L458.655 804.75L452.823 414.462Z" fill="#E1CEFF"/>
<path d="M352.725 416.676L340.798 805.507L343.306 805.495L355.259 415.983L352.725 416.676Z" fill="url(#paint79_linear)"/>
<path d="M1147.7 804.295L1156.06 507.843L1190.87 501.864L1193.21 804.295H1147.7Z" fill="url(#paint80_linear)"/>
<path d="M1190.87 501.864L1266.58 504.411L1279.87 804.295H1188.94L1190.87 501.864Z" fill="url(#paint81_linear)"/>
<path d="M1266.58 504.41L1290.38 509.768L1305.02 804.294H1276.01L1266.58 504.41Z" fill="url(#paint82_linear)"/>
<path d="M1142.89 588.553L1190.36 582.656H1228.09L1229.61 656.335L1271.37 656.675L1301.26 664.412L1308.96 804.294H1138.67L1142.89 588.553Z" fill="url(#paint83_linear)"/>
<path d="M1187.02 583.074L1185.51 804.294H1282.75L1276.01 657.188L1229.61 656.335L1228.09 582.656L1187.02 583.074Z" fill="url(#paint84_linear)"/>
<path d="M1308.96 804.295H1282.75L1276.01 657.188L1301.16 662.526L1308.96 804.295Z" fill="url(#paint85_linear)"/>
<path d="M1155.87 514.329L1190.82 508.857L1266.86 510.781L1290.68 515.888L1290.38 509.768L1266.58 504.411L1190.87 501.864L1156.06 507.843L1155.87 514.329Z" fill="#A25576"/>
<path d="M1266.86 510.781L1266.58 504.41L1290.38 509.768L1290.68 515.888L1266.86 510.781Z" fill="#D6BCFF"/>
<path d="M1142.71 597.182L1186.95 593.024H1228.09V582.657L1186.36 582.413L1142.89 588.553L1142.71 597.182Z" fill="#A25576"/>
<path d="M1186.95 593.024L1186.36 582.413L1228.09 582.657V593.024H1186.95Z" fill="#D6BCFF"/>
<path opacity="0.2" d="M1291.49 533.609L1267.3 529.503L1190.7 527.321L1155.43 531.69L1155.35 530.978L1190.66 526.609L1267.37 528.79L1291.61 532.909L1291.49 533.609Z" fill="#7C6BB5"/>
<path opacity="0.2" d="M1154.27 552.734L1154.18 552.028L1190.53 547.223H1267.93L1292.51 551.079L1292.4 551.784L1267.88 547.928L1190.58 547.935L1154.27 552.734Z" fill="#7C6BB5"/>
<path opacity="0.2" d="M1154.25 573.238L1154.19 572.526L1190.41 569.286L1268.63 569.28L1293.57 572.526L1293.48 573.238L1268.58 569.992L1190.44 569.998L1154.25 573.238Z" fill="#7C6BB5"/>
<path opacity="0.2" d="M1294.13 593.378L1269.22 590.157H1228.24V589.438H1269.26L1294.23 592.666L1294.13 593.378Z" fill="#7C6BB5"/>
<path opacity="0.2" d="M1295.48 613.722L1269.84 610.065L1228.65 610.071V609.353H1269.89L1295.58 613.016L1295.48 613.722Z" fill="#7C6BB5"/>
<path opacity="0.2" d="M1296.74 639.301L1270.59 634.265L1228.93 635.009L1228.93 634.29L1270.65 633.559L1296.87 638.602L1296.74 639.301Z" fill="#7C6BB5"/>
<g opacity="0.2">
<path opacity="0.2" d="M1142.23 623.146L1142.2 622.447L1186.35 620.516H1228.24V621.215H1186.36L1142.23 623.146Z" fill="#7C6BB5"/>
</g>
<g opacity="0.2">
<path opacity="0.2" d="M1141.57 645.332L1141.56 644.633L1186.35 644.004H1229.36V644.704H1186.36L1141.57 645.332Z" fill="#7C6BB5"/>
</g>
<g opacity="0.2">
<path opacity="0.2" d="M1301.85 676.313L1276.69 673.253L1141.26 671.72L1141.27 671.021L1276.74 672.554L1301.94 675.621L1301.85 676.313Z" fill="#7C6BB5"/>
</g>
<g opacity="0.2">
<path opacity="0.2" d="M1303.11 698.345L1140.76 697.96V697.261L1303.11 697.646V698.345Z" fill="#7C6BB5"/>
</g>
<g opacity="0.2">
<path opacity="0.2" d="M1304.35 720.191H1140.31V720.89H1304.35V720.191Z" fill="#7C6BB5"/>
</g>
<g opacity="0.2">
<path opacity="0.2" d="M1305.67 744.185H1140.31V744.885H1305.67V744.185Z" fill="#7C6BB5"/>
</g>
<g opacity="0.2">
<path opacity="0.2" d="M1306.95 770.079H1139.09V770.779H1306.95V770.079Z" fill="#7C6BB5"/>
</g>
<path d="M943.363 539.909L938.339 665.067L934.599 758.23L932.456 811.295H906.69L908.429 760.527L910.835 760.104L914.87 665.067H916.981L922.704 579.552H926.335L929.441 558.059L943.363 539.909Z" fill="url(#paint86_linear)"/>
<path d="M1026.88 811.295H1011.91L1009.77 758.23L1006.03 665.067L1001 539.909L1014.93 558.059L1018.03 579.552H1021.67L1027.41 665.067H1031.29L1033.54 760.104L1035.94 760.527L1037.67 811.295H1028.64H1026.88Z" fill="url(#paint87_linear)"/>
<path d="M932.623 582.022L937.441 552.92H1009.42L1013.48 582.022H932.623Z" fill="url(#paint88_linear)"/>
<path d="M1026.88 811.294H921.473L922.3 758.23L923.77 665.067H1022.84L1025.41 758.23L1026.88 811.294Z" fill="url(#paint89_linear)"/>
<path d="M1026.88 811.294H918.957L919.387 758.23H1027.47L1028.64 811.294H1026.88Z" fill="url(#paint90_linear)"/>
<path d="M926.194 665.074L929.434 579.539H1016.28L1019.92 665.074H926.194Z" fill="url(#paint91_linear)"/>
<path d="M987.785 518.827H984.089V552.914H987.785V518.827Z" fill="#E1CEFF"/>
<path d="M956.091 518.827H952.396V552.914H956.091V518.827Z" fill="#E1CEFF"/>
<path d="M964.016 518.827H960.32V552.914H964.016V518.827Z" fill="#E1CEFF"/>
<path d="M971.939 518.827H968.243V552.914H971.939V518.827Z" fill="#E1CEFF"/>
<path d="M979.862 518.827H976.167V552.914H979.862V518.827Z" fill="#E1CEFF"/>
<path d="M995.715 518.827H992.02V552.914H995.715V518.827Z" fill="#E1CEFF"/>
<path d="M937.441 552.92L952.396 520.129V521.823L943.529 552.92H937.441Z" fill="#E1CEFF"/>
<path d="M1009.42 552.92L995.708 520.129V522.08L1003.86 552.92H1009.42Z" fill="#E1CEFF"/>
<path d="M1009.42 552.92H937.441L943.375 539.909L1003.9 539.717L1009.42 552.92Z" fill="#E1CEFF"/>
<path d="M1031.28 665.074L1027.01 659.197H917.367L914.877 665.074H1031.28Z" fill="#E1CEFF"/>
<path d="M1035.94 760.533L1033.43 755.401H911.027L908.436 760.533H1035.94Z" fill="#E1CEFF"/>
<path d="M1021.66 579.539L1017.7 577.3H926.669L922.711 579.539H1021.66Z" fill="#E1CEFF"/>
<g opacity="0.2">
<path opacity="0.2" d="M1036.97 790.238H907.409V791.04H1036.97V790.238Z" fill="#7C6BB5"/>
</g>
<g opacity="0.2">
<path opacity="0.2" d="M1035.93 760.258H908.436V761.06H1035.93V760.258Z" fill="#7C6BB5"/>
</g>
<g opacity="0.2">
<path opacity="0.2" d="M1032.84 730.283H912.079V731.085H1032.84V730.283Z" fill="#7C6BB5"/>
</g>
<g opacity="0.2">
<path opacity="0.2" d="M1032.12 700.302H914.556V701.104H1032.12V700.302Z" fill="#7C6BB5"/>
</g>
<g opacity="0.2">
<path opacity="0.2" d="M1031.41 670.322H914.556V671.123H1031.41V670.322Z" fill="#7C6BB5"/>
</g>
<g opacity="0.2">
<path opacity="0.2" d="M1025.67 640.348H918.515V641.15H1025.67V640.348Z" fill="#7C6BB5"/>
</g>
<g opacity="0.2">
<path opacity="0.2" d="M1023.75 610.367H920.613V611.169H1023.75V610.367Z" fill="#7C6BB5"/>
</g>
<g opacity="0.2">
<path opacity="0.2" d="M1021.64 580.357L923.603 581.632L923.613 582.434L1021.65 581.159L1021.64 580.357Z" fill="#7C6BB5"/>
</g>
<g opacity="0.2">
<path opacity="0.2" d="M1023.75 610.367H920.613V611.169H1023.75V610.367Z" fill="#7C6BB5"/>
</g>
<g opacity="0.2">
<path opacity="0.2" d="M922.744 579.179L922.733 579.981L1021.68 581.238L1021.69 580.436L922.744 579.179Z" fill="#7C6BB5"/>
</g>
<path d="M518.828 346.417L556.283 415.938L518.828 399.789V346.417Z" fill="url(#paint92_linear)"/>
<path d="M521.427 799.688V399.289L560.094 417.76L569.93 800.804L521.427 799.688Z" fill="url(#paint93_linear)"/>
<path d="M521.426 399.289L471.486 408.932L472.186 805.469L521.426 799.688V399.289Z" fill="url(#paint94_linear)"/>
<path d="M477.004 407.867L479.814 358.299L518.829 346.417V399.789L477.004 407.867Z" fill="url(#paint95_linear)"/>
<path d="M539.615 799.688L537.761 407.091L542.22 404.601L546.929 800.272L539.615 799.688Z" fill="url(#paint96_linear)"/>
<path d="M542.22 404.601L566.427 418.126L573.792 800.805L546.929 800.272L542.22 404.601Z" fill="url(#paint97_linear)"/>
<path d="M490.464 461.4H483.458V477.914H490.464V461.4Z" fill="white"/>
<path opacity="0.2" d="M512.111 508.844H505.105V525.358H512.111V508.844Z" fill="#B374BA"/>
<path opacity="0.2" d="M532.693 420.076H525.687V436.59H532.693V420.076Z" fill="#B374BA"/>
<path d="M517.455 614.351H510.449V630.865H517.455V614.351Z" fill="white"/>
<path d="M486.962 704.62H479.956V721.134H486.962V704.62Z" fill="white"/>
<path d="M507.594 589.58H500.588V606.094H507.594V589.58Z" fill="white"/>
<path d="M562.904 484.4H555.898V500.914H562.904V484.4Z" fill="white"/>
<path d="M409.767 806.951L416.273 523.504L529.388 517.531L541.123 806.457L409.767 806.951Z" fill="url(#paint98_linear)"/>
<path d="M529.389 517.531L552.999 524.081L562.52 805.469H529.19L529.389 517.531Z" fill="url(#paint99_linear)"/>
<path d="M564.226 548.589L584.237 552.496L585.546 578.377L564.226 576.382V548.589Z" fill="url(#paint100_linear)"/>
<path d="M308.462 580.058L311.093 554.363L380.177 550.091V577.89L308.462 580.058Z" fill="#A25576"/>
<path d="M380.178 550.091L402.165 554.389L403.384 580.058L380.178 577.89V550.091Z" fill="url(#paint101_linear)"/>
<path d="M374.327 574.656L415.355 576.382L409.767 806.951H372.845L374.327 574.656Z" fill="url(#paint102_linear)"/>
<path d="M374.326 574.656L297.274 579.911L291.557 805.469L372.844 806.951L374.326 574.656Z" fill="url(#paint103_linear)"/>
<path d="M566.163 576.382L590.902 578.929L594.546 806.303L562.519 805.469L566.163 576.382Z" fill="#FF8372"/>
<g opacity="0.2">
<path opacity="0.2" d="M423.376 523.091L419.298 806.278L420.016 806.289L424.095 523.101L423.376 523.091Z" fill="#7C6BB5"/>
</g>
<g opacity="0.2">
<path opacity="0.2" d="M433.787 805.475L433.069 805.469L437.874 523.113L438.599 523.119L433.787 805.475Z" fill="#7C6BB5"/>
</g>
<g opacity="0.2">
<path opacity="0.2" d="M473.44 520.478L471.359 805.458L472.077 805.463L474.158 520.483L473.44 520.478Z" fill="#7C6BB5"/>
</g>
<g opacity="0.2">
<path opacity="0.2" d="M510.749 517.999L508.65 805.456L509.368 805.461L511.467 518.004L510.749 517.999Z" fill="#7C6BB5"/>
</g>
<g opacity="0.2">
<path opacity="0.2" d="M491.26 519.564H490.541V805.469H491.26V519.564Z" fill="#7C6BB5"/>
</g>
<g opacity="0.2">
<path opacity="0.2" d="M451.027 805.475L450.308 805.469L455.146 521.425L455.864 521.438L451.027 805.475Z" fill="#7C6BB5"/>
</g>
<path d="M492.511 578.557V553.022L564.226 548.589V576.382L492.511 578.557Z" fill="#A25576"/>
<path d="M483.733 578.814L566.163 576.382V806.303L482.251 806.951L483.733 578.814Z" fill="url(#paint104_linear)"/>
<path d="M424.357 525.916H421.707V550.097H424.357V525.916Z" fill="#8B8DBA"/>
<path d="M439.562 525.069H436.912V549.25H439.562V525.069Z" fill="#8B8DBA"/>
<path d="M456.833 525.069H454.183V549.25H456.833V525.069Z" fill="#8B8DBA"/>
<path d="M474.065 524.408H471.416V548.589H474.065V524.408Z" fill="#8B8DBA"/>
<path d="M492.228 523.119H489.579V547.3H492.228V523.119Z" fill="#8B8DBA"/>
<path d="M511.366 521.432H508.716V545.613H511.366V521.432Z" fill="#8B8DBA"/>
<path d="M494.821 806.957L494.096 806.944L497.977 578.377L498.696 578.384L494.821 806.957Z" fill="#7C6BB5"/>
<path d="M524.262 577.633H523.543V806.63H524.262V577.633Z" fill="#7C6BB5"/>
<path d="M554.05 806.309L553.325 806.303L554.403 576.324L555.128 576.331L554.05 806.309Z" fill="#7C6BB5"/>
<path d="M483.233 656.842V656.123L565.835 655.687V656.406L483.233 656.842Z" fill="#7C6BB5"/>
<path d="M566.17 744.763H482.258V745.482H566.17V744.763Z" fill="#7C6BB5"/>
<path d="M306.878 805.744L306.159 805.738L308.103 580.058H308.822L306.878 805.744Z" fill="#7C6BB5"/>
<path d="M335.96 577.218L332.661 806.282L333.38 806.292L336.678 577.228L335.96 577.218Z" fill="#7C6BB5"/>
<path d="M361.63 805.745H360.911L361.694 575.491H362.412L361.63 805.745Z" fill="#7C6BB5"/>
<path d="M372.844 752.148H292.898V752.866H372.844V752.148Z" fill="#7C6BB5"/>
<path d="M373.815 658.126L295.252 660.122L295.271 660.84L373.833 658.844L373.815 658.126Z" fill="#7C6BB5"/>
<path d="M566.165 589.394L483.237 590.306L483.245 591.025L566.173 590.113L566.165 589.394Z" fill="#7C6BB5"/>
<path d="M296.959 593.422L296.927 592.697L373.775 589.464L373.807 590.182L296.959 593.422Z" fill="#7C6BB5"/>
<path d="M322.487 710.054H316.893V723.245H322.487V710.054Z" fill="white"/>
<path opacity="0.2" d="M514.164 622.255H508.569V635.446H514.164V622.255Z" fill="#B374BA"/>
<path d="M540.558 691.808H534.964V704.998H540.558V691.808Z" fill="white"/>
<path d="M505.182 731.861H499.587V745.052H505.182V731.861Z" fill="white"/>
<path d="M346.835 696.151H341.24V709.342H346.835V696.151Z" fill="white"/>
<path d="M326.721 611.553H321.127V624.744H326.721V611.553Z" fill="white"/>
<path d="M1059.13 784.566H975.377V793.304H1059.13V784.566Z" fill="#FF8372"/>
<path d="M1059.13 795.896H975.377V804.635H1059.13V795.896Z" fill="#FF8372"/>
<path d="M1004.11 745.995C1004.11 745.995 971.175 758.454 959.974 768.001C959.974 768.001 980.337 790.244 1005.29 791.566C1030.24 792.887 1036.36 779.389 1036.36 779.389L1004.11 745.995Z" fill="url(#paint105_linear)"/>
<path d="M1000.64 811.192L996.588 770.092C996.588 770.092 1012.54 712.017 1065.79 712.017C1123.19 712.017 1152.13 758.871 1152.13 758.871L1151.6 810.171L1000.64 811.192Z" fill="url(#paint106_linear)"/>
<path d="M996.595 770.099C996.595 770.099 973.081 768.168 973.081 762.297C973.081 756.427 999.302 717.208 1043.56 709.348C1087.81 701.489 1140.94 742.171 1152.13 758.871C1152.13 758.871 1132.33 718.555 1075.17 724.015C1023.53 728.949 996.595 770.099 996.595 770.099Z" fill="url(#paint107_linear)"/>
<path d="M1152.13 758.871C1152.13 758.871 1110.96 709.348 1043.56 709.348C1043.56 709.348 1102.08 698.781 1132.19 721.217C1156.4 739.265 1152.13 758.871 1152.13 758.871Z" fill="url(#paint108_linear)"/>
<path d="M1258.99 773.512L1260.17 811.192H1118.34V764.934C1118.34 764.934 1160.84 747.586 1196.99 747.586C1233.13 747.586 1258.99 773.512 1258.99 773.512Z" fill="url(#paint109_linear)"/>
<path d="M1275.63 773.512H1258.99C1258.99 773.512 1219.87 749.62 1178.9 751.615C1137.94 753.61 1118.34 764.934 1118.34 764.934C1118.34 764.934 1181.76 740.24 1220.41 749.697C1259.06 759.153 1275.63 773.512 1275.63 773.512Z" fill="url(#paint110_linear)"/>
<path d="M1112.56 768.001C1112.56 768.001 1165.01 749.697 1199.7 749.697C1241.48 749.697 1275.64 773.512 1275.64 773.512C1275.64 773.512 1238.27 744.058 1188.78 743.41C1143.51 742.819 1112.56 768.001 1112.56 768.001Z" fill="url(#paint111_linear)"/>
<path d="M1103.64 709.483C1103.64 709.483 1174.75 697.338 1233.13 722.417L1217.33 746.726C1217.33 746.726 1189.25 739.226 1152.13 748.535C1152.13 748.535 1145.47 730.013 1103.64 709.483Z" fill="url(#paint112_linear)"/>
<g opacity="0.2">
<path opacity="0.2" d="M1046.61 733.627L1046.02 733.644L1048.12 811.147L1048.72 811.13L1046.61 733.627Z" fill="#7C6BB5"/>
</g>
<g opacity="0.2">
<path opacity="0.2" d="M1083.53 809.402L1081.42 723.598L1082.02 723.578L1084.13 809.382L1083.53 809.402Z" fill="#7C6BB5"/>
</g>
<g opacity="0.2">
<path opacity="0.2" d="M996.832 776.341V775.744L1046.32 775.218L1046.33 775.815L996.832 776.341Z" fill="#7C6BB5"/>
</g>
<g opacity="0.2">
<path opacity="0.2" d="M1048.02 801.536H999.963V802.133H1048.02V801.536Z" fill="#7C6BB5"/>
</g>
<g opacity="0.2">
<path opacity="0.2" d="M1118.34 801.208H1083.64V801.805H1118.34V801.208Z" fill="#7C6BB5"/>
</g>
<g opacity="0.2">
<path opacity="0.2" d="M1118.34 775.218H1083.84V775.815H1118.34V775.218Z" fill="#7C6BB5"/>
</g>
<path d="M1265.91 781.005H1182.15V789.744H1265.91V781.005Z" fill="#FF8372"/>
<path d="M1266.67 796.069H1182.15V804.224H1266.67V796.069Z" fill="#FF8372"/>
<path d="M996.594 784.765L1118.33 784.566V792.419L996.594 792.618V784.765Z" fill="url(#paint113_linear)"/>
<path d="M1118.34 798.552H998.167V805.712H1118.34V798.552Z" fill="url(#paint114_linear)"/>
<path d="M1403.19 702.682L1399.5 685.879H1357.11L1355.11 702.682H1403.19Z" fill="url(#paint115_linear)"/>
<path d="M1357.11 685.879L1351.1 687.791L1347.93 703.715L1355.11 702.682L1357.11 685.879Z" fill="url(#paint116_linear)"/>
<path d="M1352.65 702.682H1410.13L1413.12 827.565H1349.38L1352.65 702.682Z" fill="#FF8372"/>
<path d="M1341.57 705.101L1352.65 702.682L1349.38 827.565H1336.32L1341.57 705.101Z" fill="url(#paint117_linear)"/>
<path d="M346.796 721.961H395.408L397.93 827.564H344.038L346.796 721.961Z" fill="#FF8372"/>
<path d="M337.436 724.008L346.796 721.961L344.038 827.564H332.996L337.436 724.008Z" fill="url(#paint118_linear)"/>
<path d="M1344.49 765.126L1288.77 787.537L1281.11 827.564H1344.49V765.126Z" fill="#FF8372"/>
<path d="M1288.77 787.537L1275.07 798.476L1268.33 827.565H1281.11L1288.77 787.537Z" fill="url(#paint119_linear)"/>
<path d="M1603.93 827.564H0V835.199H1603.93V827.564Z" fill="url(#paint120_linear)"/>
<path d="M0 852.605L1605.69 850.09L1605.77 853.798H0.0256629L0 852.605Z" fill="url(#paint121_radial)"/>
<path d="M605.934 780.338L475.38 764.337L475.65 796.345H605.934V780.338Z" fill="url(#paint122_linear)"/>
<path d="M816.222 827.565L816.132 796.346H835.244V827.565H816.222Z" fill="url(#paint123_linear)"/>
<path d="M603.258 796.346H475.649V827.565H603.258V796.346Z" fill="url(#paint124_linear)"/>
<path d="M834.975 764.337L813.918 768.315V796.345H835.244L834.975 764.337Z" fill="url(#paint125_linear)"/>
<path d="M603.264 796.346H475.649V798.732L603.264 800.259V796.346Z" fill="url(#paint126_linear)"/>
<path d="M821.2 827.564V705.742L800.041 701.155L798.444 827.564H821.2Z" fill="url(#paint127_linear)"/>
<path d="M800.041 701.155L785.657 706.326L779.1 827.564H798.444L800.041 701.155Z" fill="url(#paint128_linear)"/>
<path d="M282.568 827.564V705.742L261.403 701.155L259.812 827.564H282.568Z" fill="url(#paint129_linear)"/>
<path d="M261.403 701.155L247.025 706.326L240.468 827.564H259.811L261.403 701.155Z" fill="url(#paint130_linear)"/>
<path d="M124.407 827.564V705.742L103.242 701.155L101.651 827.564H124.407Z" fill="url(#paint131_linear)"/>
<path d="M103.242 701.155L88.8643 706.326L82.3074 827.564H101.651L103.242 701.155Z" fill="url(#paint132_linear)"/>
<path d="M769.503 827.564L771.53 761.117L746.752 758.942V827.564H769.503Z" fill="url(#paint133_linear)"/>
<path d="M746.753 758.942L728.013 763.381L727.403 827.564H746.753V758.942Z" fill="url(#paint134_linear)"/>
<path d="M634.432 780.338H734.1L738.315 827.564H629.845L634.432 780.338Z" fill="#FF8372"/>
<path d="M648.81 764.183L646.956 724.329L637.121 724.714L635.645 764.183H648.81Z" fill="url(#paint135_linear)"/>
<path d="M637.121 724.714L626.503 726.921L624.456 764.183H635.645L637.121 724.714Z" fill="url(#paint136_linear)"/>
<path d="M656.836 827.565V758.538L636.633 759.333L634.085 827.565H656.836Z" fill="url(#paint137_linear)"/>
<path d="M636.633 759.333L618.271 763.15L614.736 827.564H634.086L636.633 759.333Z" fill="url(#paint138_linear)"/>
<path d="M339.899 827.565V758.538L319.689 759.333L317.142 827.565H339.899Z" fill="url(#paint139_linear)"/>
<path d="M319.689 759.333L301.334 763.15L297.799 827.564H317.142L319.689 759.333Z" fill="url(#paint140_linear)"/>
<path d="M388.883 721.961V701.405L352.127 698.403V721.961H388.883Z" fill="url(#paint141_linear)"/>
<path d="M352.127 698.403L347.604 701.155L346.796 721.961H352.127V698.403Z" fill="url(#paint142_linear)"/>
<path d="M254.723 827.75L160.444 739.579L179.242 723.398L257.084 820.995L254.723 827.75Z" fill="url(#paint143_linear)"/>
<path d="M160.445 739.579L145.862 781.307L160.233 783.238L250.675 830.586L254.724 827.75L160.445 739.579Z" fill="url(#paint144_linear)"/>
<path d="M260.915 826.499L136.02 793.882L144.841 770.695L259.773 819.436L260.915 826.499Z" fill="url(#paint145_linear)"/>
<path d="M136.02 793.882L142.288 832.665L156.627 832.37L258.708 830.926L260.915 826.499L136.02 793.882Z" fill="url(#paint146_linear)"/>
<path d="M1483.43 827.564V705.742L1462.27 701.155L1460.67 827.564H1483.43Z" fill="url(#paint147_linear)"/>
<path d="M1462.27 701.155L1447.88 706.326L1441.32 827.564H1460.67L1462.27 701.155Z" fill="url(#paint148_linear)"/>
<path d="M354.078 701.406L385.733 703.831V706.962L354.078 704.184V701.406Z" fill="url(#paint149_linear)"/>
<path d="M397.93 726.741H410.062L409.202 827.565H400.913L397.93 726.741Z" fill="#FF8372"/>
<path d="M397.929 726.741H395.023L397.929 827.565H400.913L397.929 726.741Z" fill="url(#paint150_linear)"/>
<path d="M1603.93 823.76H0V835.443H1603.93V823.76Z" fill="url(#paint151_linear)"/>
<mask id="mask0" mask-type="alpha" maskUnits="userSpaceOnUse" x="1339" y="729" width="70" height="98">
<path d="M1408.56 729.923H1339.07V826.506H1408.56V729.923Z" fill="url(#paint152_linear)"/>
</mask>
<g mask="url(#mask0)">
<path d="M1408.56 729.923H1339.07V826.506H1408.56V729.923Z" fill="url(#paint153_linear)"/>
<path opacity="0.61" d="M1603.93 780.505H0V827.622H1603.93V780.505Z" fill="url(#paint154_linear)"/>
</g>
<path opacity="0.5" d="M1673.2 1199.56H-75.0237V1140.85L1674.41 1172.13L1673.2 1199.56Z" fill="white"/>
<path opacity="0.5" d="M1673.13 1045.41L-75.0652 1012.75V1007.79L1673.15 1040.09L1673.13 1045.41Z" fill="white"/>
<path opacity="0.5" d="M1673.2 977.158L-75.0513 979.137L-74.6806 976.046L1673.2 971.424V977.158Z" fill="white"/>
</g>
<defs>
<linearGradient id="paint0_linear" x1="799.001" y1="910.945" x2="799.001" y2="-0.494873" gradientUnits="userSpaceOnUse">
<stop stop-color="#FFFF79"/>
<stop offset="0.5734" stop-color="#FF8996"/>
<stop offset="0.996" stop-color="#4267D9"/>
</linearGradient>
<linearGradient id="paint1_linear" x1="798.999" y1="1200" x2="798.999" y2="877.002" gradientUnits="userSpaceOnUse">
<stop offset="0.00396825" stop-color="#4267D9"/>
<stop offset="1" stop-color="#FF8996"/>
</linearGradient>
<linearGradient id="paint2_linear" x1="107.005" y1="826.52" x2="122.794" y2="322.383" gradientUnits="userSpaceOnUse">
<stop stop-color="#E57B7C"/>
<stop offset="1" stop-color="#FFC29C"/>
</linearGradient>
<linearGradient id="paint3_linear" x1="57.5185" y1="816.641" x2="71.7334" y2="362.767" gradientUnits="userSpaceOnUse">
<stop stop-color="#BB536A"/>
<stop offset="1" stop-color="#C593A8"/>
</linearGradient>
<linearGradient id="paint4_linear" x1="104.912" y1="355.284" x2="106.927" y2="290.949" gradientUnits="userSpaceOnUse">
<stop stop-color="#E57B7C"/>
<stop offset="1" stop-color="#FFC29C"/>
</linearGradient>
<linearGradient id="paint5_linear" x1="86.1982" y1="356.611" x2="88.2729" y2="290.365" gradientUnits="userSpaceOnUse">
<stop stop-color="#BB536A"/>
<stop offset="1" stop-color="#C593A8"/>
</linearGradient>
<linearGradient id="paint6_linear" x1="1455.52" y1="331.03" x2="1455.52" y2="293.807" gradientUnits="userSpaceOnUse">
<stop stop-color="#BB536A"/>
<stop offset="1" stop-color="#C593A8"/>
</linearGradient>
<linearGradient id="paint7_linear" x1="1502.2" y1="337.043" x2="1502.2" y2="306.03" gradientUnits="userSpaceOnUse">
<stop stop-color="#E57B7C"/>
<stop offset="1" stop-color="#FFC29C"/>
</linearGradient>
<linearGradient id="paint8_linear" x1="1468.32" y1="824.77" x2="1468.32" y2="311.713" gradientUnits="userSpaceOnUse">
<stop stop-color="#BB536A"/>
<stop offset="1" stop-color="#C593A8"/>
</linearGradient>
<linearGradient id="paint9_linear" x1="1525.15" y1="823.956" x2="1525.15" y2="334.335" gradientUnits="userSpaceOnUse">
<stop stop-color="#E57B7C"/>
<stop offset="1" stop-color="#FFC29C"/>
</linearGradient>
<linearGradient id="paint10_linear" x1="1437.32" y1="824.126" x2="1437.32" y2="331.899" gradientUnits="userSpaceOnUse">
<stop stop-color="#BB536A"/>
<stop offset="1" stop-color="#C593A8"/>
</linearGradient>
<linearGradient id="paint11_linear" x1="1444.1" y1="825.256" x2="1444.1" y2="331.899" gradientUnits="userSpaceOnUse">
<stop stop-color="#E57B7C"/>
<stop offset="1" stop-color="#FFC29C"/>
</linearGradient>
<linearGradient id="paint12_linear" x1="1398.41" y1="811.199" x2="1398.41" y2="432.154" gradientUnits="userSpaceOnUse">
<stop stop-color="#63163D"/>
<stop offset="1" stop-color="#95294D"/>
</linearGradient>
<linearGradient id="paint13_linear" x1="1452.82" y1="811.199" x2="1452.82" y2="432.154" gradientUnits="userSpaceOnUse">
<stop stop-color="#63163D"/>
<stop offset="1" stop-color="#95294D"/>
</linearGradient>
<linearGradient id="paint14_linear" x1="1428.63" y1="811.199" x2="1428.63" y2="432.154" gradientUnits="userSpaceOnUse">
<stop stop-color="#B42F5C"/>
<stop offset="1" stop-color="#E76056"/>
</linearGradient>
<linearGradient id="paint15_linear" x1="1470.46" y1="809.196" x2="1470.46" y2="437.157" gradientUnits="userSpaceOnUse">
<stop stop-color="#B42F5C"/>
<stop offset="1" stop-color="#E76056"/>
</linearGradient>
<linearGradient id="paint16_linear" x1="961.487" y1="309.994" x2="961.487" y2="271.925" gradientUnits="userSpaceOnUse">
<stop stop-color="#E57B7C"/>
<stop offset="1" stop-color="#FFC29C"/>
</linearGradient>
<linearGradient id="paint17_linear" x1="877.687" y1="293.896" x2="953.473" y2="293.896" gradientUnits="userSpaceOnUse">
<stop stop-color="#B42F5C"/>
<stop offset="1" stop-color="#E76056"/>
</linearGradient>
<linearGradient id="paint18_linear" x1="970.85" y1="811.018" x2="970.85" y2="305.418" gradientUnits="userSpaceOnUse">
<stop stop-color="#BB536A"/>
<stop offset="1" stop-color="#C593A8"/>
</linearGradient>
<linearGradient id="paint19_linear" x1="912.033" y1="811.018" x2="912.033" y2="305.418" gradientUnits="userSpaceOnUse">
<stop stop-color="#B42F5C"/>
<stop offset="1" stop-color="#E76056"/>
</linearGradient>
<linearGradient id="paint20_linear" x1="956.151" y1="810.493" x2="907.336" y2="436.031" gradientUnits="userSpaceOnUse">
<stop stop-color="#B42F5C"/>
<stop offset="1" stop-color="#E76056"/>
</linearGradient>
<linearGradient id="paint21_linear" x1="944.262" y1="812.043" x2="895.447" y2="437.581" gradientUnits="userSpaceOnUse">
<stop stop-color="#63163D"/>
<stop offset="1" stop-color="#95294D"/>
</linearGradient>
<linearGradient id="paint22_linear" x1="888.381" y1="269.095" x2="953.473" y2="269.095" gradientUnits="userSpaceOnUse">
<stop stop-color="#B42F5C"/>
<stop offset="1" stop-color="#E76056"/>
</linearGradient>
<linearGradient id="paint23_linear" x1="954.34" y1="275.708" x2="951.804" y2="256.258" gradientUnits="userSpaceOnUse">
<stop stop-color="#E57B7C"/>
<stop offset="1" stop-color="#FFC29C"/>
</linearGradient>
<linearGradient id="paint24_linear" x1="871.94" y1="484.138" x2="984.23" y2="484.138" gradientUnits="userSpaceOnUse">
<stop stop-color="#63163D"/>
<stop offset="1" stop-color="#95294D"/>
</linearGradient>
<linearGradient id="paint25_linear" x1="871.94" y1="740.544" x2="989.502" y2="740.544" gradientUnits="userSpaceOnUse">
<stop stop-color="#344AB5"/>
<stop offset="1" stop-color="#7900A2"/>
</linearGradient>
<linearGradient id="paint26_linear" x1="230.058" y1="349.019" x2="230.058" y2="314.731" gradientUnits="userSpaceOnUse">
<stop stop-color="#F7726A"/>
<stop offset="1" stop-color="#F9AB77"/>
</linearGradient>
<linearGradient id="paint27_linear" x1="188.71" y1="354.308" x2="188.71" y2="314.731" gradientUnits="userSpaceOnUse">
<stop stop-color="#B42F5C"/>
<stop offset="1" stop-color="#E76056"/>
</linearGradient>
<linearGradient id="paint28_linear" x1="238.49" y1="800.279" x2="238.49" y2="344.897" gradientUnits="userSpaceOnUse">
<stop stop-color="#F7726A"/>
<stop offset="1" stop-color="#F9AB77"/>
</linearGradient>
<linearGradient id="paint29_linear" x1="185.514" y1="800.279" x2="185.514" y2="344.897" gradientUnits="userSpaceOnUse">
<stop stop-color="#B42F5C"/>
<stop offset="1" stop-color="#E76056"/>
</linearGradient>
<linearGradient id="paint30_linear" x1="227.622" y1="317.159" x2="220.84" y2="265.133" gradientUnits="userSpaceOnUse">
<stop stop-color="#F7726A"/>
<stop offset="1" stop-color="#F9AB77"/>
</linearGradient>
<linearGradient id="paint31_linear" x1="196.808" y1="318.999" x2="190.305" y2="269.114" gradientUnits="userSpaceOnUse">
<stop stop-color="#B42F5C"/>
<stop offset="1" stop-color="#E76056"/>
</linearGradient>
<linearGradient id="paint32_linear" x1="173.855" y1="318.286" x2="168.326" y2="275.875" gradientUnits="userSpaceOnUse">
<stop stop-color="#F7726A"/>
<stop offset="1" stop-color="#F9AB77"/>
</linearGradient>
<linearGradient id="paint33_linear" x1="262.369" y1="444.063" x2="262.369" y2="422.401" gradientUnits="userSpaceOnUse">
<stop stop-color="#63163D"/>
<stop offset="1" stop-color="#95294D"/>
</linearGradient>
<linearGradient id="paint34_linear" x1="304.531" y1="804.099" x2="304.531" y2="433.929" gradientUnits="userSpaceOnUse">
<stop stop-color="#B42F5C"/>
<stop offset="1" stop-color="#E76056"/>
</linearGradient>
<linearGradient id="paint35_linear" x1="224.392" y1="802.371" x2="224.392" y2="433.929" gradientUnits="userSpaceOnUse">
<stop stop-color="#63163D"/>
<stop offset="1" stop-color="#95294D"/>
</linearGradient>
<linearGradient id="paint36_linear" x1="298.889" y1="438.88" x2="298.889" y2="422.401" gradientUnits="userSpaceOnUse">
<stop stop-color="#B42F5C"/>
<stop offset="1" stop-color="#E76056"/>
</linearGradient>
<linearGradient id="paint37_linear" x1="1229.8" y1="314.611" x2="1229.8" y2="294.173" gradientUnits="userSpaceOnUse">
<stop stop-color="#B42F5C"/>
<stop offset="1" stop-color="#E76056"/>
</linearGradient>
<linearGradient id="paint38_linear" x1="1197.97" y1="803.41" x2="1197.97" y2="305.049" gradientUnits="userSpaceOnUse">
<stop stop-color="#63163D"/>
<stop offset="1" stop-color="#95294D"/>
</linearGradient>
<linearGradient id="paint39_linear" x1="1258.48" y1="801.779" x2="1258.48" y2="305.049" gradientUnits="userSpaceOnUse">
<stop stop-color="#B42F5C"/>
<stop offset="1" stop-color="#E76056"/>
</linearGradient>
<linearGradient id="paint40_linear" x1="1202.23" y1="309.72" x2="1202.23" y2="294.173" gradientUnits="userSpaceOnUse">
<stop stop-color="#63163D"/>
<stop offset="1" stop-color="#95294D"/>
</linearGradient>
<linearGradient id="paint41_linear" x1="779.891" y1="812.343" x2="779.891" y2="121.612" gradientUnits="userSpaceOnUse">
<stop stop-color="#635383"/>
<stop offset="1" stop-color="#875F7E"/>
</linearGradient>
<linearGradient id="paint42_linear" x1="888.514" y1="812.343" x2="888.514" y2="121.612" gradientUnits="userSpaceOnUse">
<stop stop-color="#E57B7C"/>
<stop offset="1" stop-color="#FFC29C"/>
</linearGradient>
<linearGradient id="paint43_linear" x1="835.07" y1="163.726" x2="835.07" y2="134.622" gradientUnits="userSpaceOnUse">
<stop stop-color="#6F538B"/>
<stop offset="0.996" stop-color="#C4B4BB"/>
</linearGradient>
<linearGradient id="paint44_linear" x1="838.121" y1="716.65" x2="838.121" y2="246.78" gradientUnits="userSpaceOnUse">
<stop stop-color="#6F538B"/>
<stop offset="0.996" stop-color="#C4B4BB"/>
</linearGradient>
<linearGradient id="paint45_linear" x1="838.799" y1="812.343" x2="838.799" y2="339.941" gradientUnits="userSpaceOnUse">
<stop stop-color="#6F538B"/>
<stop offset="0.996" stop-color="#C4B4BB"/>
</linearGradient>
<linearGradient id="paint46_linear" x1="835.069" y1="246.78" x2="835.069" y2="161.243" gradientUnits="userSpaceOnUse">
<stop stop-color="#6F538B"/>
<stop offset="0.996" stop-color="#C4B4BB"/>
</linearGradient>
<linearGradient id="paint47_linear" x1="667.417" y1="804.292" x2="667.417" y2="324.948" gradientUnits="userSpaceOnUse">
<stop stop-color="#E57B7C"/>
<stop offset="1" stop-color="#FFC29C"/>
</linearGradient>
<linearGradient id="paint48_linear" x1="624.273" y1="804.292" x2="624.273" y2="324.948" gradientUnits="userSpaceOnUse">
<stop stop-color="#635383"/>
<stop offset="1" stop-color="#875F7E"/>
</linearGradient>
<linearGradient id="paint49_linear" x1="668.976" y1="653.569" x2="668.976" y2="587.804" gradientUnits="userSpaceOnUse">
<stop stop-color="#6066FE"/>
<stop offset="1" stop-color="#1B93BB"/>
</linearGradient>
<linearGradient id="paint50_linear" x1="663.897" y1="804.292" x2="663.897" y2="649.976" gradientUnits="userSpaceOnUse">
<stop stop-color="#6066FE"/>
<stop offset="1" stop-color="#1B93BB"/>
</linearGradient>
<linearGradient id="paint51_linear" x1="672.537" y1="804.292" x2="672.537" y2="653.569" gradientUnits="userSpaceOnUse">
<stop stop-color="#6066FE"/>
<stop offset="1" stop-color="#1B93BB"/>
</linearGradient>
<linearGradient id="paint52_linear" x1="684.702" y1="804.292" x2="684.702" y2="587.804" gradientUnits="userSpaceOnUse">
<stop stop-color="#635383"/>
<stop offset="1" stop-color="#875F7E"/>
</linearGradient>
<linearGradient id="paint53_linear" x1="617.997" y1="804.292" x2="617.997" y2="467.277" gradientUnits="userSpaceOnUse">
<stop stop-color="#635383"/>
<stop offset="1" stop-color="#875F7E"/>
</linearGradient>
<linearGradient id="paint54_linear" x1="695.148" y1="633.315" x2="695.148" y2="587.804" gradientUnits="userSpaceOnUse">
<stop stop-color="#E57B7C"/>
<stop offset="1" stop-color="#FFC29C"/>
</linearGradient>
<linearGradient id="paint55_linear" x1="729.783" y1="804.292" x2="729.783" y2="598.152" gradientUnits="userSpaceOnUse">
<stop stop-color="#BB536A"/>
<stop offset="1" stop-color="#C593A8"/>
</linearGradient>
<linearGradient id="paint56_linear" x1="1037.83" y1="278.379" x2="1037.83" y2="240.526" gradientUnits="userSpaceOnUse">
<stop stop-color="#7F2F5C"/>
<stop offset="1" stop-color="#BA5E7E"/>
</linearGradient>
<linearGradient id="paint57_linear" x1="1083.11" y1="273.982" x2="1083.11" y2="240.526" gradientUnits="userSpaceOnUse">
<stop stop-color="#E57B7C"/>
<stop offset="1" stop-color="#FFC29C"/>
</linearGradient>
<linearGradient id="paint58_linear" x1="1032.18" y1="311.635" x2="1032.18" y2="256.849" gradientUnits="userSpaceOnUse">
<stop stop-color="#7F2F5C"/>
<stop offset="1" stop-color="#BA5E7E"/>
</linearGradient>
<linearGradient id="paint59_linear" x1="1020.49" y1="804.292" x2="1020.49" y2="286.001" gradientUnits="userSpaceOnUse">
<stop stop-color="#7F2F5C"/>
<stop offset="1" stop-color="#BA5E7E"/>
</linearGradient>
<linearGradient id="paint60_linear" x1="1057.95" y1="804.292" x2="1057.95" y2="285.664" gradientUnits="userSpaceOnUse">
<stop stop-color="#E57B7C"/>
<stop offset="1" stop-color="#FFC29C"/>
</linearGradient>
<linearGradient id="paint61_linear" x1="1088.86" y1="303.577" x2="1088.86" y2="256.849" gradientUnits="userSpaceOnUse">
<stop stop-color="#E57B7C"/>
<stop offset="1" stop-color="#FFC29C"/>
</linearGradient>
<linearGradient id="paint62_linear" x1="1064.27" y1="544.267" x2="1082.11" y2="544.267" gradientUnits="userSpaceOnUse">
<stop stop-color="#7F2F5C"/>
<stop offset="1" stop-color="#BA5E7E"/>
</linearGradient>
<linearGradient id="paint63_linear" x1="1112.76" y1="804.292" x2="1112.76" y2="284.242" gradientUnits="userSpaceOnUse">
<stop stop-color="#E57B7C"/>
<stop offset="1" stop-color="#FFC29C"/>
</linearGradient>
<linearGradient id="paint64_linear" x1="1079.96" y1="257.449" x2="1079.96" y2="215.654" gradientUnits="userSpaceOnUse">
<stop stop-color="#E57B7C"/>
<stop offset="1" stop-color="#FFC29C"/>
</linearGradient>
<linearGradient id="paint65_linear" x1="1038.89" y1="263.434" x2="1038.89" y2="215.654" gradientUnits="userSpaceOnUse">
<stop stop-color="#7F2F5C"/>
<stop offset="1" stop-color="#BA5E7E"/>
</linearGradient>
<linearGradient id="paint66_linear" x1="1112.71" y1="792.62" x2="1112.71" y2="296.483" gradientUnits="userSpaceOnUse">
<stop stop-color="#BB536A"/>
<stop offset="1" stop-color="#C593A8"/>
</linearGradient>
<linearGradient id="paint67_linear" x1="1027.56" y1="794.166" x2="1006.97" y2="298.456" gradientUnits="userSpaceOnUse">
<stop stop-color="#BB536A"/>
<stop offset="1" stop-color="#C593A8"/>
</linearGradient>
<linearGradient id="paint68_linear" x1="1292.95" y1="798.11" x2="1292.95" y2="365.008" gradientUnits="userSpaceOnUse">
<stop stop-color="#63163D"/>
<stop offset="1" stop-color="#95294D"/>
</linearGradient>
<linearGradient id="paint69_linear" x1="1289.95" y1="375.604" x2="1289.95" y2="355.906" gradientUnits="userSpaceOnUse">
<stop stop-color="#63163D"/>
<stop offset="1" stop-color="#95294D"/>
</linearGradient>
<linearGradient id="paint70_linear" x1="1327.5" y1="369.583" x2="1327.5" y2="355.906" gradientUnits="userSpaceOnUse">
<stop stop-color="#B42F5C"/>
<stop offset="1" stop-color="#E76056"/>
</linearGradient>
<linearGradient id="paint71_linear" x1="1349.03" y1="796.442" x2="1349.03" y2="365.008" gradientUnits="userSpaceOnUse">
<stop stop-color="#B42F5C"/>
<stop offset="1" stop-color="#E76056"/>
</linearGradient>
<linearGradient id="paint72_linear" x1="1310.37" y1="796.442" x2="1310.37" y2="365.008" gradientUnits="userSpaceOnUse">
<stop stop-color="#B42F5C"/>
<stop offset="1" stop-color="#FF8B6B"/>
</linearGradient>
<linearGradient id="paint73_linear" x1="1380.02" y1="793.565" x2="1380.02" y2="372.143" gradientUnits="userSpaceOnUse">
<stop stop-color="#B42F5C"/>
<stop offset="1" stop-color="#FF8B6B"/>
</linearGradient>
<linearGradient id="paint74_linear" x1="1265.95" y1="798.11" x2="1265.95" y2="377.015" gradientUnits="userSpaceOnUse">
<stop stop-color="#B42F5C"/>
<stop offset="1" stop-color="#E76056"/>
</linearGradient>
<linearGradient id="paint75_linear" x1="367.022" y1="806.311" x2="379.33" y2="405.602" gradientUnits="userSpaceOnUse">
<stop stop-color="#B42F5C"/>
<stop offset="1" stop-color="#E76056"/>
</linearGradient>
<linearGradient id="paint76_linear" x1="376.242" y1="415.32" x2="376.801" y2="397.094" gradientUnits="userSpaceOnUse">
<stop stop-color="#BB536A"/>
<stop offset="1" stop-color="#C593A8"/>
</linearGradient>
<linearGradient id="paint77_linear" x1="411.158" y1="410.814" x2="411.547" y2="398.161" gradientUnits="userSpaceOnUse">
<stop stop-color="#BB536A"/>
<stop offset="1" stop-color="#C593A8"/>
</linearGradient>
<linearGradient id="paint78_linear" x1="421.228" y1="805.28" x2="421.228" y2="405.978" gradientUnits="userSpaceOnUse">
<stop stop-color="#F7726A"/>
<stop offset="1" stop-color="#F9AB77"/>
</linearGradient>
<linearGradient id="paint79_linear" x1="342.043" y1="805.544" x2="354.009" y2="415.944" gradientUnits="userSpaceOnUse">
<stop stop-color="#B42F5C"/>
<stop offset="1" stop-color="#E76056"/>
</linearGradient>
<linearGradient id="paint80_linear" x1="1170.46" y1="804.292" x2="1170.46" y2="501.865" gradientUnits="userSpaceOnUse">
<stop stop-color="#63163D"/>
<stop offset="1" stop-color="#95294D"/>
</linearGradient>
<linearGradient id="paint81_linear" x1="1234.41" y1="804.292" x2="1234.41" y2="501.865" gradientUnits="userSpaceOnUse">
<stop stop-color="#B42F5C"/>
<stop offset="1" stop-color="#E76056"/>
</linearGradient>
<linearGradient id="paint82_linear" x1="1285.8" y1="804.292" x2="1285.8" y2="504.409" gradientUnits="userSpaceOnUse">
<stop stop-color="#D95C5C"/>
<stop offset="1" stop-color="#FF9056"/>
</linearGradient>
<linearGradient id="paint83_linear" x1="1223.81" y1="804.291" x2="1223.81" y2="582.659" gradientUnits="userSpaceOnUse">
<stop stop-color="#63163D"/>
<stop offset="1" stop-color="#95294D"/>
</linearGradient>
<linearGradient id="paint84_linear" x1="1234.13" y1="804.291" x2="1234.13" y2="582.659" gradientUnits="userSpaceOnUse">
<stop stop-color="#A00037"/>
<stop offset="1" stop-color="#A43463"/>
</linearGradient>
<linearGradient id="paint85_linear" x1="1292.48" y1="804.292" x2="1292.48" y2="657.19" gradientUnits="userSpaceOnUse">
<stop stop-color="#B42F5C"/>
<stop offset="1" stop-color="#E76056"/>
</linearGradient>
<linearGradient id="paint86_linear" x1="925.027" y1="811.294" x2="925.027" y2="539.909" gradientUnits="userSpaceOnUse">
<stop stop-color="#635383"/>
<stop offset="1" stop-color="#875F7E"/>
</linearGradient>
<linearGradient id="paint87_linear" x1="1019.34" y1="811.294" x2="1019.34" y2="539.909" gradientUnits="userSpaceOnUse">
<stop stop-color="#635383"/>
<stop offset="1" stop-color="#875F7E"/>
</linearGradient>
<linearGradient id="paint88_linear" x1="973.052" y1="582.023" x2="973.052" y2="552.919" gradientUnits="userSpaceOnUse">
<stop stop-color="#6F538B"/>
<stop offset="0.996" stop-color="#C4B4BB"/>
</linearGradient>
<linearGradient id="paint89_linear" x1="974.175" y1="811.294" x2="974.175" y2="665.069" gradientUnits="userSpaceOnUse">
<stop stop-color="#6F538B"/>
<stop offset="0.996" stop-color="#C4B4BB"/>
</linearGradient>
<linearGradient id="paint90_linear" x1="973.8" y1="811.294" x2="973.8" y2="758.231" gradientUnits="userSpaceOnUse">
<stop stop-color="#6F538B"/>
<stop offset="0.996" stop-color="#C4B4BB"/>
</linearGradient>
<linearGradient id="paint91_linear" x1="973.052" y1="665.077" x2="973.052" y2="579.54" gradientUnits="userSpaceOnUse">
<stop stop-color="#6F538B"/>
<stop offset="0.996" stop-color="#C4B4BB"/>
</linearGradient>
<linearGradient id="paint92_linear" x1="537.554" y1="415.939" x2="537.554" y2="346.417" gradientUnits="userSpaceOnUse">
<stop stop-color="#F7726A"/>
<stop offset="1" stop-color="#F9AB77"/>
</linearGradient>
<linearGradient id="paint93_linear" x1="545.68" y1="800.804" x2="545.68" y2="399.286" gradientUnits="userSpaceOnUse">
<stop stop-color="#F7726A"/>
<stop offset="1" stop-color="#F9AB77"/>
</linearGradient>
<linearGradient id="paint94_linear" x1="496.456" y1="805.471" x2="496.456" y2="399.286" gradientUnits="userSpaceOnUse">
<stop stop-color="#B42F5C"/>
<stop offset="1" stop-color="#E76056"/>
</linearGradient>
<linearGradient id="paint95_linear" x1="497.917" y1="407.868" x2="497.917" y2="346.417" gradientUnits="userSpaceOnUse">
<stop stop-color="#B42F5C"/>
<stop offset="1" stop-color="#E76056"/>
</linearGradient>
<linearGradient id="paint96_linear" x1="542.346" y1="800.274" x2="542.346" y2="404.603" gradientUnits="userSpaceOnUse">
<stop stop-color="#B42F5C"/>
<stop offset="1" stop-color="#E76056"/>
</linearGradient>
<linearGradient id="paint97_linear" x1="558.004" y1="800.805" x2="558.004" y2="404.603" gradientUnits="userSpaceOnUse">
<stop stop-color="#F7726A"/>
<stop offset="1" stop-color="#F9AB77"/>
</linearGradient>
<linearGradient id="paint98_linear" x1="475.446" y1="806.952" x2="475.446" y2="517.532" gradientUnits="userSpaceOnUse">
<stop stop-color="#6F538B"/>
<stop offset="0.996" stop-color="#C4B4BB"/>
</linearGradient>
<linearGradient id="paint99_linear" x1="545.854" y1="805.471" x2="545.854" y2="517.532" gradientUnits="userSpaceOnUse">
<stop stop-color="#E57B7C"/>
<stop offset="1" stop-color="#FFC29C"/>
</linearGradient>
<linearGradient id="paint100_linear" x1="576.207" y1="579.597" x2="572.032" y2="547.572" gradientUnits="userSpaceOnUse">
<stop stop-color="#E57B7C"/>
<stop offset="1" stop-color="#FFC29C"/>
</linearGradient>
<linearGradient id="paint101_linear" x1="393.162" y1="581.391" x2="388.933" y2="548.951" gradientUnits="userSpaceOnUse">
<stop stop-color="#E57B7C"/>
<stop offset="1" stop-color="#FFC29C"/>
</linearGradient>
<linearGradient id="paint102_linear" x1="394.102" y1="806.952" x2="394.102" y2="574.657" gradientUnits="userSpaceOnUse">
<stop stop-color="#63163D"/>
<stop offset="1" stop-color="#95294D"/>
</linearGradient>
<linearGradient id="paint103_linear" x1="332.942" y1="806.952" x2="332.942" y2="574.657" gradientUnits="userSpaceOnUse">
<stop stop-color="#BB536A"/>
<stop offset="1" stop-color="#C593A8"/>
</linearGradient>
<linearGradient id="paint104_linear" x1="524.209" y1="806.952" x2="524.209" y2="576.384" gradientUnits="userSpaceOnUse">
<stop stop-color="#BB536A"/>
<stop offset="1" stop-color="#C593A8"/>
</linearGradient>
<linearGradient id="paint105_linear" x1="959.972" y1="768.826" x2="1036.36" y2="768.826" gradientUnits="userSpaceOnUse">
<stop stop-color="#EDA2A3"/>
<stop offset="1" stop-color="#FFDCC6"/>
</linearGradient>
<linearGradient id="paint106_linear" x1="1074.36" y1="811.192" x2="1074.36" y2="712.019" gradientUnits="userSpaceOnUse">
<stop stop-color="#BB536A"/>
<stop offset="1" stop-color="#C593A8"/>
</linearGradient>
<linearGradient id="paint107_linear" x1="1062.6" y1="770.096" x2="1062.6" y2="708.352" gradientUnits="userSpaceOnUse">
<stop stop-color="#63163D"/>
<stop offset="1" stop-color="#95294D"/>
</linearGradient>
<linearGradient id="paint108_linear" x1="1043.56" y1="732.868" x2="1152.42" y2="732.868" gradientUnits="userSpaceOnUse">
<stop stop-color="#EDA2A3"/>
<stop offset="1" stop-color="#FFDCC6"/>
</linearGradient>
<linearGradient id="paint109_linear" x1="1189.25" y1="811.192" x2="1189.25" y2="747.587" gradientUnits="userSpaceOnUse">
<stop stop-color="#BB536A"/>
<stop offset="1" stop-color="#C593A8"/>
</linearGradient>
<linearGradient id="paint110_linear" x1="1196.99" y1="773.51" x2="1196.99" y2="747.54" gradientUnits="userSpaceOnUse">
<stop stop-color="#63163D"/>
<stop offset="1" stop-color="#95294D"/>
</linearGradient>
<linearGradient id="paint111_linear" x1="1112.56" y1="758.455" x2="1275.63" y2="758.455" gradientUnits="userSpaceOnUse">
<stop stop-color="#EDA2A3"/>
<stop offset="1" stop-color="#FFDCC6"/>
</linearGradient>
<linearGradient id="paint112_linear" x1="1103.64" y1="727.537" x2="1233.13" y2="727.537" gradientUnits="userSpaceOnUse">
<stop stop-color="#EDA2A3"/>
<stop offset="1" stop-color="#FFDCC6"/>
</linearGradient>
<linearGradient id="paint113_linear" x1="996.592" y1="788.593" x2="1118.34" y2="788.593" gradientUnits="userSpaceOnUse">
<stop stop-color="#B42F5C"/>
<stop offset="1" stop-color="#E76056"/>
</linearGradient>
<linearGradient id="paint114_linear" x1="998.166" y1="802.132" x2="1118.34" y2="802.132" gradientUnits="userSpaceOnUse">
<stop stop-color="#B42F5C"/>
<stop offset="1" stop-color="#E76056"/>
</linearGradient>
<linearGradient id="paint115_linear" x1="1379.15" y1="702.685" x2="1379.15" y2="685.882" gradientUnits="userSpaceOnUse">
<stop stop-color="#D9485C"/>
<stop offset="1" stop-color="#E76056"/>
</linearGradient>
<linearGradient id="paint116_linear" x1="1352.52" y1="703.714" x2="1352.52" y2="685.882" gradientUnits="userSpaceOnUse">
<stop stop-color="#63163D"/>
<stop offset="1" stop-color="#95294D"/>
</linearGradient>
<linearGradient id="paint117_linear" x1="1344.48" y1="827.563" x2="1344.48" y2="702.686" gradientUnits="userSpaceOnUse">
<stop stop-color="#63163D"/>
<stop offset="1" stop-color="#95294D"/>
</linearGradient>
<linearGradient id="paint118_linear" x1="339.896" y1="827.563" x2="339.896" y2="721.963" gradientUnits="userSpaceOnUse">
<stop stop-color="#63163D"/>
<stop offset="1" stop-color="#95294D"/>
</linearGradient>
<linearGradient id="paint119_linear" x1="1278.55" y1="827.563" x2="1278.55" y2="787.535" gradientUnits="userSpaceOnUse">
<stop stop-color="#63163D"/>
<stop offset="1" stop-color="#95294D"/>
</linearGradient>
<linearGradient id="paint120_linear" x1="-0.0017964" y1="831.382" x2="1603.93" y2="831.382" gradientUnits="userSpaceOnUse">
<stop stop-color="#63163D"/>
<stop offset="1" stop-color="#95294D"/>
</linearGradient>
<radialGradient id="paint121_radial" cx="0" cy="0" r="1" gradientUnits="userSpaceOnUse" gradientTransform="translate(802.888 851.943) scale(567.73 567.109)">
<stop offset="0.00396825" stop-color="#842C5E"/>
<stop offset="1" stop-color="#613668"/>
</radialGradient>
<linearGradient id="paint122_linear" x1="475.383" y1="780.341" x2="605.937" y2="780.341" gradientUnits="userSpaceOnUse">
<stop stop-color="#D9485C"/>
<stop offset="1" stop-color="#E76056"/>
</linearGradient>
<linearGradient id="paint123_linear" x1="825.687" y1="827.563" x2="825.687" y2="796.344" gradientUnits="userSpaceOnUse">
<stop stop-color="#63163D"/>
<stop offset="1" stop-color="#95294D"/>
</linearGradient>
<linearGradient id="paint124_linear" x1="475.652" y1="811.953" x2="603.261" y2="811.953" gradientUnits="userSpaceOnUse">
<stop stop-color="#D9485C"/>
<stop offset="1" stop-color="#E76056"/>
</linearGradient>
<linearGradient id="paint125_linear" x1="824.581" y1="796.344" x2="824.581" y2="764.339" gradientUnits="userSpaceOnUse">
<stop stop-color="#63163D"/>
<stop offset="1" stop-color="#95294D"/>
</linearGradient>
<linearGradient id="paint126_linear" x1="539.457" y1="800.258" x2="539.457" y2="796.344" gradientUnits="userSpaceOnUse">
<stop stop-color="#63163D"/>
<stop offset="1" stop-color="#95294D"/>
</linearGradient>
<linearGradient id="paint127_linear" x1="809.823" y1="827.563" x2="809.823" y2="701.158" gradientUnits="userSpaceOnUse">
<stop stop-color="#D9485C"/>
<stop offset="1" stop-color="#E76056"/>
</linearGradient>
<linearGradient id="paint128_linear" x1="789.57" y1="827.563" x2="789.57" y2="701.158" gradientUnits="userSpaceOnUse">
<stop stop-color="#63163D"/>
<stop offset="1" stop-color="#95294D"/>
</linearGradient>
<linearGradient id="paint129_linear" x1="271.19" y1="827.563" x2="271.19" y2="701.158" gradientUnits="userSpaceOnUse">
<stop stop-color="#D9485C"/>
<stop offset="1" stop-color="#E76056"/>
</linearGradient>
<linearGradient id="paint130_linear" x1="250.937" y1="827.563" x2="250.937" y2="701.158" gradientUnits="userSpaceOnUse">
<stop stop-color="#63163D"/>
<stop offset="1" stop-color="#95294D"/>
</linearGradient>
<linearGradient id="paint131_linear" x1="113.028" y1="827.563" x2="113.028" y2="701.158" gradientUnits="userSpaceOnUse">
<stop stop-color="#D9485C"/>
<stop offset="1" stop-color="#E76056"/>
</linearGradient>
<linearGradient id="paint132_linear" x1="92.7746" y1="827.563" x2="92.7746" y2="701.158" gradientUnits="userSpaceOnUse">
<stop stop-color="#63163D"/>
<stop offset="1" stop-color="#95294D"/>
</linearGradient>
<linearGradient id="paint133_linear" x1="759.139" y1="827.563" x2="759.139" y2="758.942" gradientUnits="userSpaceOnUse">
<stop stop-color="#D9485C"/>
<stop offset="1" stop-color="#E76056"/>
</linearGradient>
<linearGradient id="paint134_linear" x1="737.079" y1="827.563" x2="737.079" y2="758.942" gradientUnits="userSpaceOnUse">
<stop stop-color="#63163D"/>
<stop offset="1" stop-color="#95294D"/>
</linearGradient>
<linearGradient id="paint135_linear" x1="642.229" y1="764.181" x2="642.229" y2="724.328" gradientUnits="userSpaceOnUse">
<stop stop-color="#D9485C"/>
<stop offset="1" stop-color="#E76056"/>
</linearGradient>
<linearGradient id="paint136_linear" x1="630.79" y1="764.181" x2="630.79" y2="724.714" gradientUnits="userSpaceOnUse">
<stop stop-color="#63163D"/>
<stop offset="1" stop-color="#95294D"/>
</linearGradient>
<linearGradient id="paint137_linear" x1="645.461" y1="827.563" x2="645.461" y2="758.537" gradientUnits="userSpaceOnUse">
<stop stop-color="#D9485C"/>
<stop offset="1" stop-color="#E76056"/>
</linearGradient>
<linearGradient id="paint138_linear" x1="625.686" y1="827.563" x2="625.686" y2="759.331" gradientUnits="userSpaceOnUse">
<stop stop-color="#63163D"/>
<stop offset="1" stop-color="#95294D"/>
</linearGradient>
<linearGradient id="paint139_linear" x1="328.519" y1="827.563" x2="328.519" y2="758.537" gradientUnits="userSpaceOnUse">
<stop stop-color="#D9485C"/>
<stop offset="1" stop-color="#E76056"/>
</linearGradient>
<linearGradient id="paint140_linear" x1="308.744" y1="827.563" x2="308.744" y2="759.331" gradientUnits="userSpaceOnUse">
<stop stop-color="#63163D"/>
<stop offset="1" stop-color="#95294D"/>
</linearGradient>
<linearGradient id="paint141_linear" x1="370.505" y1="721.963" x2="370.505" y2="698.4" gradientUnits="userSpaceOnUse">
<stop stop-color="#D9485C"/>
<stop offset="1" stop-color="#E76056"/>
</linearGradient>
<linearGradient id="paint142_linear" x1="349.463" y1="721.963" x2="349.463" y2="698.4" gradientUnits="userSpaceOnUse">
<stop stop-color="#63163D"/>
<stop offset="1" stop-color="#95294D"/>
</linearGradient>
<linearGradient id="paint143_linear" x1="198.984" y1="808.274" x2="223.27" y2="738.783" gradientUnits="userSpaceOnUse">
<stop stop-color="#D9485C"/>
<stop offset="1" stop-color="#E76056"/>
</linearGradient>
<linearGradient id="paint144_linear" x1="197.661" y1="812.061" x2="216.183" y2="759.061" gradientUnits="userSpaceOnUse">
<stop stop-color="#63163D"/>
<stop offset="1" stop-color="#95294D"/>
</linearGradient>
<linearGradient id="paint145_linear" x1="202.625" y1="835.921" x2="190.885" y2="763.259" gradientUnits="userSpaceOnUse">
<stop stop-color="#D9485C"/>
<stop offset="1" stop-color="#E76056"/>
</linearGradient>
<linearGradient id="paint146_linear" x1="203.265" y1="839.881" x2="194.312" y2="784.465" gradientUnits="userSpaceOnUse">
<stop stop-color="#63163D"/>
<stop offset="1" stop-color="#95294D"/>
</linearGradient>
<linearGradient id="paint147_linear" x1="1472.05" y1="827.563" x2="1472.05" y2="701.158" gradientUnits="userSpaceOnUse">
<stop stop-color="#D9485C"/>
<stop offset="1" stop-color="#E76056"/>
</linearGradient>
<linearGradient id="paint148_linear" x1="1451.79" y1="827.563" x2="1451.79" y2="701.158" gradientUnits="userSpaceOnUse">
<stop stop-color="#63163D"/>
<stop offset="1" stop-color="#95294D"/>
</linearGradient>
<linearGradient id="paint149_linear" x1="369.904" y1="706.963" x2="369.904" y2="701.405" gradientUnits="userSpaceOnUse">
<stop stop-color="#9500B5"/>
<stop offset="1" stop-color="#FF9300"/>
</linearGradient>
<linearGradient id="paint150_linear" x1="397.969" y1="827.563" x2="397.969" y2="726.745" gradientUnits="userSpaceOnUse">
<stop stop-color="#63163D"/>
<stop offset="1" stop-color="#95294D"/>
</linearGradient>
<linearGradient id="paint151_linear" x1="801.965" y1="835.447" x2="801.965" y2="823.761" gradientUnits="userSpaceOnUse">
<stop stop-color="#02689B"/>
<stop offset="1"/>
</linearGradient>
<linearGradient id="paint152_linear" x1="1373.82" y1="826.504" x2="1373.82" y2="729.924" gradientUnits="userSpaceOnUse">
<stop stop-color="white"/>
<stop offset="1"/>
</linearGradient>
<linearGradient id="paint153_linear" x1="1373.82" y1="826.504" x2="1373.82" y2="729.924" gradientUnits="userSpaceOnUse">
<stop stop-color="#FFB1E3"/>
<stop offset="1" stop-color="#FFC200"/>
</linearGradient>
<linearGradient id="paint154_linear" x1="801.965" y1="827.618" x2="801.965" y2="780.503" gradientUnits="userSpaceOnUse">
<stop stop-color="#A7605B"/>
<stop offset="1"/>
</linearGradient>
<clipPath id="clip0">
<rect width="1600" height="1200" fill="white"/>
</clipPath>
</defs>
</svg>
