<svg width="1600" height="1200" viewBox="0 0 1600 1200" fill="none" xmlns="http://www.w3.org/2000/svg">
<g clip-path="url(#clip0)">
<rect width="1600" height="1200" fill="url(#paint0_linear)"/>
<path d="M1721 882H-27V1205H1721V882Z" fill="url(#paint1_linear)"/>
<path opacity="0.4" d="M1340.76 800.327C1341.07 799.129 1341.23 797.893 1341.23 796.653C1341.23 794.729 1340.85 792.824 1340.11 791.046C1339.37 789.269 1338.29 787.655 1336.93 786.295C1335.57 784.936 1333.95 783.859 1332.17 783.125C1330.39 782.392 1328.49 782.017 1326.56 782.021C1325.85 782.009 1325.13 782.062 1324.43 782.178C1323.61 775.986 1320.65 770.275 1316.06 766.037C1311.47 761.799 1305.54 759.299 1299.31 758.972C1296.8 753.399 1292.45 748.854 1287 746.096C1281.55 743.337 1275.31 742.532 1269.33 743.813C1263.36 745.095 1258 748.387 1254.16 753.14C1250.32 757.893 1248.22 763.819 1248.22 769.931V770.999C1246.92 770.771 1245.61 770.655 1244.29 770.653C1238.84 770.646 1233.59 772.702 1229.6 776.406C1225.6 780.111 1223.16 785.191 1222.75 790.624V790.624V802.777H1221.93C1221.52 802.745 1221.1 802.745 1220.68 802.777C1220.21 799.178 1218.49 795.858 1215.82 793.397C1213.15 790.936 1209.7 789.488 1206.08 789.306C1204.62 786.085 1202.1 783.459 1198.95 781.863C1195.79 780.267 1192.19 779.796 1188.73 780.529C1185.27 781.262 1182.17 783.154 1179.93 785.892C1177.7 788.631 1176.46 792.051 1176.43 795.586C1176.42 795.784 1176.42 795.984 1176.43 796.182C1175.68 796.056 1174.91 795.993 1174.14 795.994C1170.97 795.984 1167.92 797.173 1165.59 799.322C1163.26 801.471 1161.83 804.421 1161.58 807.581V807.581L1161.83 850.569H1222.97V864.574H1347.41V807.707C1347.42 805.868 1346.74 804.093 1345.51 802.728C1344.28 801.363 1342.59 800.507 1340.76 800.327V800.327Z" fill="url(#paint2_linear)"/>
<path opacity="0.4" d="M1593.44 759.506C1593.76 758.307 1593.91 757.072 1593.91 755.832C1593.91 751.943 1592.37 748.213 1589.62 745.463C1586.87 742.713 1583.14 741.168 1579.25 741.168C1578.53 741.172 1577.82 741.225 1577.11 741.325C1576.28 735.139 1573.32 729.436 1568.73 725.204C1564.15 720.972 1558.22 718.477 1551.99 718.151C1549.48 712.578 1545.14 708.033 1539.68 705.274C1534.23 702.516 1527.99 701.71 1522.02 702.992C1516.04 704.274 1510.69 707.566 1506.84 712.319C1503 717.072 1500.9 722.998 1500.9 729.11V730.178C1499.61 729.927 1498.29 729.8 1496.98 729.801C1491.53 729.801 1486.28 731.859 1482.29 735.562C1478.29 739.265 1475.85 744.341 1475.43 749.772V749.772V761.924H1474.62C1474.2 761.893 1473.78 761.893 1473.36 761.924C1472.89 758.323 1471.18 755 1468.51 752.537C1465.84 750.075 1462.39 748.629 1458.76 748.453C1457.3 745.232 1454.79 742.607 1451.63 741.011C1448.48 739.414 1444.87 738.944 1441.41 739.677C1437.96 740.409 1434.85 742.301 1432.62 745.04C1430.38 747.778 1429.15 751.198 1429.12 754.733C1429.1 754.932 1429.1 755.131 1429.12 755.33C1428.36 755.204 1427.59 755.14 1426.83 755.141C1423.66 755.132 1420.6 756.321 1418.27 758.47C1415.94 760.619 1414.51 763.569 1414.27 766.728L1414.49 809.716H1475.65V823.721H1600.28V766.791C1600.28 764.935 1599.57 763.15 1598.3 761.797C1597.03 760.445 1595.29 759.626 1593.44 759.506V759.506Z" fill="url(#paint3_linear)"/>
<path opacity="0.4" d="M750.671 757.653C751.125 755.835 751.357 753.969 751.362 752.095C751.362 746.266 749.046 740.675 744.924 736.553C740.802 732.431 735.211 730.115 729.381 730.115C728.33 730.123 727.28 730.206 726.241 730.366C725.003 720.994 720.515 712.353 713.561 705.949C706.606 699.546 697.626 695.785 688.183 695.323C684.396 686.895 677.833 680.021 669.59 675.848C661.347 671.674 651.922 670.454 642.888 672.39C633.854 674.326 625.756 679.302 619.948 686.487C614.139 693.672 610.969 702.631 610.968 711.871C610.968 712.405 610.968 712.938 610.968 713.472C608.999 713.119 607.003 712.941 605.002 712.938C596.77 712.938 588.842 716.047 582.805 721.642C576.767 727.238 573.065 734.907 572.439 743.115V743.115L573.067 855.059H761.128V768.675C761.124 765.85 760.038 763.133 758.093 761.083C756.149 759.033 753.493 757.806 750.671 757.653V757.653Z" fill="url(#paint4_linear)"/>
<path opacity="0.4" d="M200.652 611.042C200.969 609.833 201.127 608.587 201.123 607.337C201.115 603.453 199.566 599.731 196.817 596.988C194.068 594.245 190.343 592.704 186.459 592.704C185.744 592.708 185.031 592.761 184.324 592.861C183.498 586.671 180.536 580.965 175.949 576.727C171.362 572.49 165.438 569.989 159.203 569.656C156.719 564.052 152.385 559.473 146.926 556.685C141.467 553.898 135.216 553.071 129.221 554.345C123.225 555.618 117.85 558.914 113.996 563.68C110.141 568.445 108.042 574.391 108.051 580.52V581.588C106.755 581.36 105.441 581.244 104.126 581.243C98.6766 581.235 93.4267 583.291 89.4308 586.995C85.4349 590.7 82.989 595.78 82.5845 601.214V613.397C82.3126 613.382 82.04 613.382 81.7681 613.397C81.35 613.366 80.9302 613.366 80.5121 613.397C80.044 609.799 78.3244 606.48 75.6546 604.023C72.9848 601.566 69.5353 600.126 65.9106 599.957C64.4523 596.737 61.9376 594.111 58.783 592.515C55.6285 590.919 52.0233 590.448 48.5647 591.181C45.1061 591.914 42.0015 593.806 39.7652 596.544C37.529 599.282 36.2952 602.702 36.2682 606.238C36.2525 606.447 36.2525 606.657 36.2682 606.866C35.5137 606.713 34.7455 606.64 33.9759 606.646C30.8067 606.636 27.751 607.825 25.4216 609.974C23.0921 612.123 21.6611 615.073 21.4155 618.233V618.233L21.6667 661.221H82.8044V675.257H207.34V618.201C207.308 616.392 206.607 614.659 205.372 613.337C204.136 612.015 202.455 611.197 200.652 611.042V611.042Z" fill="url(#paint5_linear)"/>
<path opacity="0.4" d="M813.975 373.462C814.291 372.263 814.45 371.028 814.446 369.788C814.446 365.904 812.905 362.179 810.162 359.43C807.418 356.68 803.697 355.132 799.813 355.124C799.088 355.127 798.364 355.179 797.646 355.281C796.82 349.094 793.856 343.391 789.269 339.159C784.681 334.927 778.758 332.433 772.525 332.107C770.017 326.533 765.673 321.988 760.219 319.23C754.765 316.471 748.53 315.666 742.554 316.948C736.578 318.23 731.222 321.521 727.379 326.274C723.536 331.027 721.438 336.954 721.436 343.066V344.133C720.143 343.879 718.829 343.753 717.511 343.756C712.039 343.751 706.768 345.823 702.764 349.553C698.76 353.283 696.32 358.394 695.939 363.853V363.853V376.005H695.154C694.725 375.974 694.295 375.974 693.866 376.005C693.399 372.404 691.68 369.081 689.011 366.619C686.342 364.156 682.892 362.71 679.265 362.534C677.806 359.314 675.292 356.688 672.137 355.092C668.982 353.495 665.377 353.025 661.919 353.758C658.46 354.49 655.356 356.383 653.119 359.121C650.883 361.859 649.649 365.279 649.622 368.814C649.622 369.003 649.622 369.223 649.622 369.411C648.865 369.285 648.098 369.222 647.33 369.223C644.161 369.213 641.105 370.402 638.776 372.551C636.446 374.7 635.015 377.65 634.77 380.809L635.021 423.797H696.19V437.802H820.632V380.747C820.631 378.921 819.948 377.161 818.716 375.813C817.485 374.465 815.793 373.626 813.975 373.462V373.462Z" fill="url(#paint6_linear)"/>
<path opacity="0.4" d="M1780.84 819.608C1781.51 816.96 1781.85 814.238 1781.84 811.506C1781.84 802.978 1778.46 794.8 1772.43 788.77C1766.4 782.739 1758.22 779.352 1749.69 779.352C1748.1 779.355 1746.52 779.47 1744.95 779.697C1743.15 766.085 1736.63 753.536 1726.53 744.231C1716.43 734.926 1703.4 729.454 1689.68 728.765C1684.17 716.524 1674.63 706.542 1662.65 700.482C1650.67 694.423 1636.97 692.652 1623.84 695.465C1610.71 698.278 1598.95 705.505 1590.5 715.941C1582.05 726.377 1577.44 739.392 1577.42 752.818C1577.42 753.603 1577.42 754.388 1577.42 755.173C1574.56 754.657 1571.66 754.394 1568.76 754.388C1556.78 754.387 1545.24 758.919 1536.46 767.073C1527.68 775.228 1522.32 786.401 1521.44 798.349H1521.22V800.924C1514.82 796.312 1507.12 793.839 1499.24 793.859C1496.93 793.86 1494.63 794.07 1492.36 794.487C1492.36 793.89 1492.36 793.262 1492.36 792.634C1492.36 781.946 1488.69 771.582 1481.97 763.271C1475.25 754.96 1465.88 749.204 1455.43 746.963C1444.98 744.723 1434.08 746.133 1424.54 750.958C1415 755.783 1407.41 763.733 1403.02 773.48C1392.11 774.038 1381.75 778.397 1373.72 785.802C1365.68 793.207 1360.5 803.19 1359.06 814.018C1357.82 813.828 1356.56 813.734 1355.29 813.736C1350.3 813.741 1345.42 815.207 1341.24 817.951C1337.07 820.696 1333.79 824.601 1331.81 829.185C1330.9 822.775 1327.79 816.88 1323.01 812.513C1318.23 808.146 1312.08 805.581 1305.62 805.257C1303.02 799.435 1298.5 794.683 1292.81 791.796C1287.13 788.909 1280.62 788.062 1274.39 789.397C1268.15 790.732 1262.57 794.169 1258.56 799.131C1254.56 804.093 1252.38 810.28 1252.39 816.656V817.786C1251.04 817.532 1249.66 817.406 1248.28 817.41C1242.66 817.444 1237.26 819.576 1233.14 823.387C1229.01 827.198 1226.46 832.413 1225.99 838.009V838.009L1226.46 915.161H1319.09V958.086H1522.32V960.849H1795.5V835.622C1795.5 831.603 1794 827.73 1791.28 824.765C1788.57 821.801 1784.84 819.961 1780.84 819.608V819.608Z" fill="url(#paint7_linear)"/>
<g opacity="0.2">
<path opacity="0.2" d="M0.156738 205.152C0.156738 205.152 113.483 199.846 243.765 199.846C374.048 199.846 656.499 214.541 785.682 219.22C914.866 223.899 1359.85 229.802 1359.85 229.802C1359.85 229.802 848.013 240.353 710.509 240.353C573.004 240.353 551.997 230.933 325.376 230.933C325.376 230.933 820.883 266.164 1013.46 265.003H0.156738V205.152Z" fill="white"/>
<path opacity="0.2" d="M1795.5 619.048C1795.5 619.048 1683.65 641.939 1565.65 634.748C1447.65 627.557 1459.11 622.408 1399.66 622.408C1340.22 622.408 1284.74 629.065 1210.16 627.495C1135.58 625.925 1005.27 617.132 963.6 618.891C921.931 620.649 772.054 638.862 772.054 638.862C772.054 638.862 1070.61 639.144 1181.59 647.968C1292.56 656.792 1407.01 662.036 1488.03 660.277C1569.04 658.519 1669.74 667.625 1705.57 675.255C1741.4 682.886 1780.72 684.676 1758.95 694.63C1737.19 704.584 1676.18 711.649 1676.18 711.649L1795.35 715.763L1795.5 619.048Z" fill="white"/>
<path opacity="0.2" d="M1795.51 311.131C1769.35 316.049 1742.71 317.935 1716.13 316.751C1675.3 314.302 1679.32 312.481 1658.79 312.481C1638.25 312.481 1619.1 314.773 1593.32 314.239C1567.54 313.706 1522.54 310.66 1508.16 311.099C1493.78 311.539 1442.06 318.007 1442.06 318.007C1442.06 318.007 1545.18 318.007 1583.36 321.148C1621.55 324.288 1661.24 326.015 1689.21 325.418C1717.19 324.821 1752.02 327.93 1764.36 330.568C1776.7 333.206 1790.33 333.708 1782.82 337.288C1775.32 340.867 1754.21 343.16 1754.21 343.16L1795.38 344.573L1795.51 311.131Z" fill="white"/>
<path opacity="0.2" d="M0.156738 484.495C0.156738 484.495 57.9973 483.49 103.78 486.567C149.562 489.645 276.83 497.118 317.306 497.118C357.782 497.118 463.509 520.92 517.644 520.041C571.779 519.162 835.579 520.92 869.021 527.954C902.463 534.988 1066.31 546.449 1149.96 545.57C1233.62 544.691 1262.73 555.398 1262.73 555.398C1262.73 555.398 1054 552.761 979.144 555.398C904.284 558.036 852.347 550.123 801.258 550.123C750.168 550.123 580.226 543.843 535.292 543.843C490.357 543.843 398.792 525.348 332.755 527.985C266.719 530.623 87.0431 562.307 87.0431 562.307C87.0431 562.307 172.485 564.505 202.85 564.505C233.215 564.505 284.304 573.736 314.26 573.736C344.217 573.736 438.42 577.285 483.825 577.724C529.231 578.164 842.675 583.439 842.675 583.439C842.675 583.439 530.048 590.473 481.565 590.473H0.156738V484.495Z" fill="white"/>
<path opacity="0.2" d="M1262.88 151.111C1262.88 151.111 1463.38 137.044 1511.52 137.044C1559.65 137.044 1672.51 161.693 1672.51 161.693C1672.51 161.693 1431.1 148.756 1262.88 151.111Z" fill="white"/>
</g>
<path opacity="0.4" d="M1177.47 796.057C1178.17 793.414 1178.52 790.69 1178.51 787.956C1178.5 779.425 1175.11 771.246 1169.07 765.217C1163.04 759.188 1154.85 755.801 1146.32 755.801C1144.75 755.804 1143.17 755.92 1141.61 756.146C1139.8 742.535 1133.28 729.99 1123.17 720.69C1113.07 711.391 1100.03 705.926 1086.32 705.245C1080.81 692.993 1071.28 682.998 1059.29 676.93C1047.31 670.861 1033.61 669.086 1020.48 671.901C1007.34 674.715 995.575 681.95 987.132 692.396C978.69 702.842 974.086 715.867 974.089 729.299C974.089 730.084 974.089 730.869 974.089 731.622C971.229 731.105 968.328 730.842 965.422 730.837C953.447 730.844 941.917 735.38 933.146 743.533C924.375 751.687 919.012 762.856 918.132 774.799H917.881V777.373C911.477 772.774 903.785 770.313 895.9 770.34C893.583 770.34 891.271 770.551 888.992 770.968C888.992 770.34 888.992 769.712 888.992 769.084C888.989 758.395 885.321 748.031 878.601 739.72C871.88 731.409 862.514 725.653 852.063 723.413C841.612 721.172 830.71 722.582 821.173 727.407C811.636 732.233 804.041 740.182 799.656 749.929C788.745 750.481 778.373 754.838 770.341 762.245C762.31 769.651 757.127 779.637 755.695 790.468C750.106 789.628 744.397 790.664 739.46 793.414C734.523 796.164 730.636 800.472 728.408 805.666C727.51 799.25 724.404 793.347 719.624 788.974C714.844 784.601 708.69 782.031 702.219 781.707C699.677 775.788 695.16 770.934 689.439 767.974C683.717 765.015 677.146 764.132 670.846 765.477C664.546 766.822 658.909 770.312 654.895 775.351C650.881 780.389 648.74 786.664 648.838 793.105C648.838 793.482 648.838 793.859 648.838 794.236C647.481 793.983 646.104 793.857 644.724 793.859C639.046 793.859 633.578 796.004 629.415 799.864C625.251 803.725 622.7 809.016 622.272 814.678V814.678L622.712 891.861H715.345V934.755H918.886V937.518H1192.07V812.071C1192.07 808.064 1190.57 804.203 1187.87 801.242C1185.17 798.28 1181.46 796.432 1177.47 796.057V796.057Z" fill="url(#paint8_linear)"/>
<path opacity="0.4" d="M15.0411 759.506C13.8026 754.749 13.6712 749.771 14.6571 744.955C15.6429 740.14 17.7198 735.614 20.728 731.726C23.7362 727.839 27.5957 724.693 32.0098 722.53C36.4239 720.367 41.2752 719.245 46.1908 719.25C47.7774 719.254 49.3618 719.37 50.9323 719.595C52.7369 705.987 59.2548 693.442 69.3521 684.142C79.4495 674.842 92.4874 669.376 106.198 668.694C111.7 656.442 121.238 646.447 133.22 640.378C145.202 634.31 158.903 632.535 172.036 635.349C185.169 638.164 196.939 645.398 205.381 655.844C213.824 666.29 218.428 679.316 218.425 692.747C218.425 693.532 218.425 694.317 218.425 695.102C221.282 694.559 224.183 694.286 227.092 694.286C239.067 694.293 250.597 698.829 259.367 706.982C268.138 715.136 273.502 726.304 274.381 738.247H274.633V740.665C281.043 736.079 288.731 733.619 296.613 733.631C298.93 733.632 301.242 733.842 303.521 734.259C303.521 733.631 303.521 733.003 303.521 732.375C303.515 721.684 307.177 711.315 313.896 702.999C320.615 694.684 329.984 688.926 340.438 686.687C350.891 684.449 361.797 685.865 371.332 690.7C380.867 695.535 388.454 703.496 392.826 713.252C403.734 713.797 414.106 718.148 422.138 725.549C430.17 732.95 435.354 742.932 436.787 753.759C442.376 752.92 448.085 753.956 453.022 756.705C457.959 759.455 461.846 763.764 464.074 768.957C464.978 762.544 468.085 756.645 472.864 752.273C477.643 747.901 483.794 745.329 490.263 744.998C492.904 739.252 497.424 734.578 503.078 731.744C508.731 728.911 515.182 728.089 521.366 729.413C527.549 730.736 533.098 734.127 537.096 739.027C541.095 743.926 543.305 750.042 543.362 756.366C543.362 756.742 543.362 757.088 543.362 757.465C544.718 757.212 546.095 757.086 547.475 757.088C553.153 757.088 558.622 759.232 562.785 763.093C566.948 766.954 569.499 772.245 569.927 777.907V777.907L569.487 855.09H476.855V897.984H273.691V900.81H0.502441V775.52C0.506786 771.523 1.99729 767.67 4.68425 764.71C7.3712 761.75 11.0626 759.895 15.0411 759.506V759.506Z" fill="url(#paint9_linear)"/>
<path d="M1693.43 1117.23C1680.14 1134.53 1650.05 1139.78 1629.09 1146.06C1596.77 1155.73 1563.9 1163.78 1530.71 1170.75C1400.98 1197.85 1268.06 1206.27 1135.13 1208.59C1000.25 1210.92 862.443 1214.22 728.861 1195.06C658.887 1184.97 591.051 1165.68 520.841 1156.7C453.472 1148.1 384.379 1147.59 316.869 1155.31C259.166 1161.91 194.823 1185.01 145.817 1145.17C103.692 1111 100.671 1059.11 111.177 1012.52C119.778 974.446 130.008 926.043 159.53 894.289C146.928 892.57 134.421 889.921 121.96 886.015C120.472 885.552 121.075 883.783 122.613 883.969C137.493 885.829 152.367 886.663 167.246 886.804C168.362 885.829 169.428 884.803 170.594 883.828C182.774 874.066 205.746 859.142 222.993 868.622C229.131 871.97 232.338 877.364 232.806 882.848C277.207 877.595 321.237 867.969 364.619 859.599C368.71 837.933 403.536 829.84 421.854 829.237C439.985 828.634 457.931 833.284 476.113 832.912C496.059 832.494 510.888 820.36 529.91 816.776C538.325 815.197 546.413 816.077 554.833 815.428C566.877 814.498 574.875 810.175 586.17 806.732C604.719 801.012 622.016 806.219 640.801 804.455C647.914 802.876 654.936 801.293 662.004 799.619C686.133 791.531 711.101 777.069 735.325 781.02C764.289 773.163 793.163 764.793 822.178 756.097C887.828 736.432 955.434 718.994 1025.36 727.595C1066.79 732.712 1105.94 745.219 1144.06 760.048C1161.41 761.35 1179.77 771.67 1193.67 778.552C1228.83 795.939 1264.72 796.312 1303.91 798.589C1324.83 799.845 1328.23 810.678 1340.37 823.371C1349.76 833.183 1361.06 841.688 1373.61 848.153C1400.53 862.057 1431.68 866.566 1462.46 863.821C1478.59 862.334 1494.4 861.032 1508.9 869.029C1521.04 875.68 1525.59 887.583 1539.59 891.534C1569.72 900.09 1600.31 894.465 1628.16 911.154C1650.57 924.59 1666.1 946.583 1671.96 969.877C1672.33 971.505 1672.7 973.18 1673.03 974.854C1676.05 977.085 1678.94 979.458 1681.59 982.107C1700.7 1001.22 1697.72 1028.79 1698.6 1052.55C1699.29 1071.39 1706.41 1100.35 1693.43 1117.23Z" fill="url(#paint10_linear)"/>
<path d="M1759 902H-68V1210H1759V902Z" fill="url(#paint11_linear)"/>
<g style="mix-blend-mode:soft-light">
<path d="M1759 1039L-68 1048.07L-67.9696 1203H1759V1039Z" fill="#CD9FB3"/>
</g>
<path d="M1085.23 828.235V1066.49H1102.68V898.118C1102.68 878.629 1132.92 878.659 1132.92 898.118V1066.49H1155.37V898.118C1155.37 878.629 1185.61 878.659 1185.61 898.118V1066.49H1201.49V828.235H1085.23V828.235Z" fill="#9E9694"/>
<path d="M1100.75 828.235H1075.96V1066.49H1100.75V828.235Z" fill="#313230"/>
<path d="M1492.97 783.433V1066.49H1530.08V864.027C1530.08 838.089 1570.32 838.129 1570.32 864.027V1066.49H1595.17V867.124C1595.17 841.186 1635.41 841.226 1635.41 867.124V1066.49H1658.68V783.433H1492.97Z" fill="#FCFBFD"/>
<path d="M1508.22 783.433C1510.15 791.455 1506.95 797.794 1501.54 801.61C1501.12 833.917 1500.9 866.229 1500.84 898.541C1501.18 904.086 1501.54 909.625 1501.77 915.175C1503.89 965.453 1504.04 1015.96 1503.63 1066.49H1520.78V864.027C1520.78 838.089 1561.03 838.129 1561.03 864.027V1066.49H1585.87V867.124C1585.87 841.186 1626.12 841.226 1626.12 867.124V1066.49H1649.39V783.433H1508.22Z" fill="#FCFBFD"/>
<path d="M1508.22 783.433C1510.15 791.455 1506.95 797.794 1501.54 801.61C1501.12 833.917 1500.9 866.229 1500.84 898.541C1501.18 904.086 1501.54 909.625 1501.77 915.175C1503.89 965.453 1504.04 1015.96 1503.63 1066.49H1511.48V864.027C1511.48 838.089 1551.73 838.129 1551.73 864.027V1066.49H1576.57V867.124C1576.57 841.186 1616.82 841.226 1616.82 867.124V1066.49H1640.09V783.433H1508.22Z" fill="#9E9694"/>
<path d="M1511.45 783.433H1488.32V1066.49H1511.45V783.433Z" fill="#8E6A5E"/>
<path d="M1630.27 1206.64C1498.95 1251.29 1363.85 1277.47 1230.31 1313.63C1188.4 1324.98 1146.72 1337.52 1105.16 1350.66H1658.68V1196.71C1649.25 1200.09 1639.79 1203.41 1630.27 1206.64Z" fill="#6A4E44"/>
<path d="M607.327 980.518C607.342 980.507 607.357 980.497 607.373 980.487C607.272 980.407 607.161 980.361 607.061 980.286C606.925 980.165 606.809 980.03 606.649 979.929C604.276 978.451 602.386 975.797 600.516 973.756C599.129 972.243 596.791 973.525 596.615 975.214C594.951 974.646 593.272 974.093 591.588 973.495C584.918 971.132 578.448 968.343 572.044 965.336C560.251 959.792 548.82 953.694 537.822 946.692C515.136 932.255 494.415 915.244 474.569 897.158C437.135 863.041 397.227 817.644 342.505 816.538C334.513 816.377 326.565 817.267 318.774 818.941C315.748 818.976 312.722 819.011 309.715 819.006C295.042 818.996 280.369 818.986 265.696 818.976C236.349 818.956 207.003 818.926 177.661 818.916C148.34 818.901 118.933 818.484 89.627 819.439C74.9387 819.916 60.3006 821.474 45.6073 821.887C30.929 822.304 16.2759 822.47 1.5876 822.495C-14.6289 822.525 -30.8504 822.063 -47.0618 821.776C-64.0373 821.474 -80.5906 820.359 -97.1488 824.717C-102.281 826.069 -102.286 833.765 -97.1488 835.122C-82.7672 838.907 -68.7776 838.45 -54.0139 838.189C-39.3406 837.927 -24.6674 837.651 -9.99415 837.404C19.3976 836.912 48.7139 837.907 78.0402 839.727C107.306 841.546 136.763 840.828 166.075 840.903C195.421 840.978 224.768 840.888 254.109 840.868C258.769 840.863 263.424 840.863 268.084 840.858C263.514 844.341 259.251 848.277 255.16 852.238C251.234 856.034 255.28 862.604 260.408 861.252C273.829 857.718 286.054 852.334 298.822 846.885C304.07 844.643 309.535 842.607 315.109 840.938C328.003 841.114 340.992 841.34 353.73 840.104C355.585 839.923 357.153 839.385 358.48 838.631C375.652 842.356 391.517 851.183 406.049 861.473C426.935 876.267 445.826 894.006 465.607 910.233C485.769 926.776 506.228 943.309 528.386 957.138C540.154 964.482 552.43 971.238 565.253 976.571C571.652 979.236 578.247 981.493 584.893 983.453C591.608 985.434 598.757 987.942 605.789 986.459C608.599 985.876 609.031 982.357 607.327 980.518Z" fill="#C6BAB6"/>
<path d="M722.597 950.156C721.757 950.156 721.752 951.463 722.597 951.463C723.436 951.463 723.436 950.156 722.597 950.156Z" fill="#6A4E44"/>
<path opacity="0.2" d="M1669.38 1085.38C1606.7 1136.34 1521.11 1118.39 1446.34 1114.21C1290.63 1105.47 1134.97 1094.87 979.399 1084.13C900.081 1078.69 820.758 1073.2 741.44 1067.76C702.196 1065.06 662.861 1062.79 623.667 1059.63C616.74 1059.07 609.763 1058.46 602.791 1057.62C578.335 1059.34 553.83 1060.83 529.374 1061.99C508.126 1062.92 496.087 1041.35 501.013 1023.13C486.275 1007.5 496.409 980.303 516.169 974.728C535.231 969.334 551.367 974.125 568.337 983.374C569.78 984.163 571.223 984.907 572.66 985.651C617.152 979.141 664.254 986.536 709.912 987.139C749.9 987.652 790.532 977.563 829.404 969.193C850.466 964.639 871.478 959.939 892.496 955.289C907.606 951.987 953.777 948.548 945.036 924.696C939.084 908.424 963.68 893.731 974.794 907.399C991.996 928.461 1022.5 949.197 1049.98 950.73C1079.18 952.359 1107.02 945.618 1131.34 929.341C1144.17 920.785 1162.77 935.107 1157.8 949.659C1158.68 947.055 1190.72 950.544 1194.67 950.499C1209.26 950.358 1223.07 947.292 1237.07 943.662C1257.94 938.223 1279.75 932.317 1301.32 937.665C1319.36 942.084 1330.98 955.611 1341.17 970.4C1345.45 976.583 1348.51 983.882 1351.49 991.09C1360.47 991.789 1369.39 992.578 1378.27 993.784C1401.05 996.856 1423.65 1002.15 1446.2 994.252C1473.17 984.721 1500.08 954.219 1527.66 981.464C1528.96 982.72 1530.07 984.023 1531.15 985.324C1536.73 984.535 1542.35 983.836 1547.98 983.233C1562.25 981.7 1562.48 1002.11 1551.09 1006.39C1550.21 1006.71 1549.37 1007.13 1548.53 1007.5C1552.77 1009.78 1558.62 1010.52 1568.01 1008.62C1583.54 1005.5 1593.63 999.832 1610.18 1002.34C1642.92 1007.32 1665.74 1032.52 1675.23 1063.11C1677.47 1070.27 1675.37 1080.5 1669.38 1085.38Z" fill="url(#paint12_linear)"/>
<path d="M1075.96 828.235V1066.49H1116.63V898.118C1116.63 878.629 1146.87 878.659 1146.87 898.118V1066.49H1169.32V898.118C1169.32 878.629 1199.56 878.659 1199.56 898.118V1066.49H1215.44V828.235H1075.96V828.235Z" fill="#FBFBFC"/>
<path d="M1492.97 783.433V1066.49H1530.08V864.027C1530.08 838.089 1570.32 838.129 1570.32 864.027V1066.49H1595.17V867.124C1595.17 841.186 1635.41 841.226 1635.41 867.124V1066.49H1658.68V783.433H1492.97Z" fill="#FCFBFD"/>
<path d="M859.718 468.844H805.712V1042.53H859.718V468.844Z" fill="black"/>
<path d="M841.717 468.844H823.716V1042.53H841.717V468.844Z" fill="#5E4B42"/>
<path d="M860.056 468.844H851.054V1042.53H860.056V468.844Z" fill="#CEC9D0"/>
<path d="M813.331 468.844H804.329V1042.53H813.331V468.844Z" fill="#57423C"/>
<path d="M870.798 461.979H794.635V475.353H870.798V461.979Z" fill="#835D4B"/>
<path d="M880.029 449.685H785.403V461.975H880.029V449.685Z" fill="#835D4B"/>
<path d="M880.029 437.397H785.403V449.686H880.029V437.397Z" fill="#835D4B"/>
<path d="M834.103 135.917H829.675V279.312H834.103V135.917Z" fill="#E6C5BB"/>
<path d="M833.124 116.939V76H830.921V117.481C830.921 118.179 830.342 118.571 829.672 118.69V219.398H834.1V118.088C833.555 117.912 833.124 117.538 833.124 116.939Z" fill="#5E5451"/>
<path d="M834.103 130.222H831.597V219.395H834.103V130.222Z" fill="#D4B4AB"/>
<path d="M838.758 170.049H826.903V358.204H838.758V170.049Z" fill="#71483A"/>
<path d="M828.947 204.818C828.26 204.832 827.587 204.804 826.903 204.804V251.221C829.595 251.031 832.314 250.886 835.079 250.832C836.314 250.807 837.535 250.844 838.758 250.864V204.259C835.559 204.548 832.289 204.753 828.947 204.818Z" fill="#623827"/>
<path d="M880.029 425.104H785.403V437.394H880.029V425.104Z" fill="#835D4B"/>
<path d="M888.963 421.648H776.98V427.638H888.963V421.648Z" fill="#5C4E44"/>
<path d="M831.332 398.459C872.513 398.459 905.897 396.009 905.897 392.986C905.897 389.963 872.513 387.512 831.332 387.512C790.151 387.512 756.768 389.963 756.768 392.986C756.768 396.009 790.151 398.459 831.332 398.459Z" fill="#291A14"/>
<path d="M831.333 425.467C867.536 425.467 896.884 423.313 896.884 420.655C896.884 417.998 867.536 415.844 831.333 415.844C795.13 415.844 765.781 417.998 765.781 420.655C765.781 423.313 795.13 425.467 831.333 425.467Z" fill="#5C4C46"/>
<path d="M830.747 373.943C864.338 373.943 891.569 370.925 891.569 367.201C891.569 363.478 864.338 360.459 830.747 360.459C797.156 360.459 769.925 363.478 769.925 367.201C769.925 370.925 797.156 373.943 830.747 373.943Z" fill="#312621"/>
<path d="M830.748 380.451C873.134 380.451 907.495 377.432 907.495 373.709C907.495 369.985 873.134 366.966 830.748 366.966C788.361 366.966 754 369.985 754 373.709C754 377.432 788.361 380.451 830.748 380.451Z" fill="#575A53"/>
<path d="M888.957 391.825H773.704L765.781 373.413H896.883L888.957 391.825Z" fill="#3B1F16"/>
<path d="M831.332 379.765C867.535 379.765 896.883 377.611 896.883 374.953C896.883 372.296 867.535 370.142 831.332 370.142C795.129 370.142 765.781 372.296 765.781 374.953C765.781 377.611 795.129 379.765 831.332 379.765Z" fill="#3B1F16"/>
<path d="M859.096 387.385C858.855 386.903 858.727 386.395 858.804 385.884C859.119 383.726 859.551 381.591 860.039 379.462C858.472 378.318 857.603 376.484 858.319 374.923C858.554 374.406 858.849 373.91 859.142 373.413H790.692C790.686 373.529 790.698 373.645 790.692 373.759C791.933 377.083 791.952 380.904 791.745 383.97C791.618 385.821 791.368 387.76 790.919 389.676C791.339 390.406 791.771 391.104 792.197 391.823H859.942C859.148 391.025 858.662 390.054 858.81 389.137C858.898 388.552 859 387.97 859.096 387.385Z" fill="#27120B"/>
<path d="M896.884 421.646H765.781L756.768 392.986H905.894L896.884 421.646Z" fill="#3B1F16"/>
<path d="M861.935 412.573C862.386 409.948 862.696 407.055 862.244 404.44C861.901 402.456 861.22 400.486 860.717 398.524C860.323 396.991 859.619 394.99 859.252 392.986H792.903C792.932 393.031 792.943 393.088 792.971 393.136C793.343 393.752 793.71 394.391 794.076 394.995C795.191 396.829 794.703 398.68 793.409 399.992C793.392 407.174 793.954 414.51 795.637 421.649H859.514C860.527 418.663 861.404 415.651 861.935 412.573Z" fill="#27120B"/>
<path d="M831.333 425.467C867.536 425.467 896.884 423.313 896.884 420.655C896.884 417.998 867.536 415.844 831.333 415.844C795.13 415.844 765.781 417.998 765.781 420.655C765.781 423.313 795.13 425.467 831.333 425.467Z" fill="#5C4C46"/>
<path d="M831.332 399.293C871.561 399.293 904.174 396.898 904.174 393.945C904.174 390.991 871.561 388.596 831.332 388.596C791.103 388.596 758.491 390.991 758.491 393.945C758.491 396.898 791.103 399.293 831.332 399.293Z" fill="#575A53"/>
<path d="M830.472 400.63C871.176 400.63 904.174 398.172 904.174 395.14C904.174 392.108 871.176 389.65 830.472 389.65C789.768 389.65 756.771 392.108 756.771 395.14C756.771 398.172 789.768 400.63 830.472 400.63Z" fill="#3B1F16"/>
<path d="M865.727 394.017C865.699 393.827 865.73 393.642 865.744 393.458C864.867 393.606 863.956 393.654 863.033 393.489C861.165 393.157 859.28 391.644 858.877 390.068C850.134 389.796 840.538 389.645 830.472 389.645C816.096 389.645 802.728 389.955 791.396 390.486C791.83 391.232 792.267 391.956 792.707 392.689C792.909 392.947 793.082 393.225 793.21 393.535C793.499 394.014 793.786 394.517 794.075 394.991C795.163 396.779 794.723 398.582 793.502 399.885C804.375 400.356 816.993 400.626 830.472 400.626C843.528 400.626 855.78 400.373 866.414 399.928C866.247 397.921 866.008 395.939 865.727 394.017Z" fill="#27120B"/>
<path d="M865.727 394.017C865.699 393.827 865.73 393.642 865.744 393.458C864.867 393.606 863.956 393.654 863.033 393.489C861.165 393.157 859.28 391.644 858.877 390.068C850.134 389.796 840.538 389.645 830.472 389.645C816.096 389.645 802.728 389.955 791.396 390.486C791.83 391.232 792.267 391.956 792.707 392.689C792.909 392.947 793.082 393.225 793.21 393.535C793.499 394.014 793.786 394.517 794.075 394.991C795.163 396.779 794.723 398.582 793.502 399.885C804.375 400.356 816.993 400.626 830.472 400.626C843.528 400.626 855.78 400.373 866.414 399.928C866.247 397.921 866.008 395.939 865.727 394.017Z" fill="#27120B"/>
<path d="M880.029 434.504H785.403V437.397H880.029V434.504Z" fill="#543227"/>
<path d="M880.029 448.241H785.403V451.134H880.029V448.241Z" fill="#543227"/>
<path d="M870.798 461.99H794.635V465.328H870.798V461.99Z" fill="#543227"/>
<path d="M831.333 427.635C867.536 427.635 896.884 425.481 896.884 422.823C896.884 420.166 867.536 418.011 831.333 418.011C795.13 418.011 765.781 420.166 765.781 422.823C765.781 425.481 795.13 427.635 831.333 427.635Z" fill="#291A14"/>
<path d="M833.64 349.856C851.485 349.856 865.951 347.779 865.951 345.218C865.951 342.656 851.485 340.579 833.64 340.579C815.794 340.579 801.328 342.656 801.328 345.218C801.328 347.779 815.794 349.856 833.64 349.856Z" fill="#2C1D18"/>
<path d="M853.487 345.218H814.021V356.119H853.487V345.218Z" fill="#71625C"/>
<path d="M833.641 362.628C857.223 362.628 876.339 360.552 876.339 357.99C876.339 355.428 857.223 353.351 833.641 353.351C810.059 353.351 790.942 355.428 790.942 357.99C790.942 360.552 810.059 362.628 833.641 362.628Z" fill="#2C1D18"/>
<path d="M817.367 313.673C819.089 313.673 820.484 310.074 820.484 305.634C820.484 301.193 819.089 297.594 817.367 297.594C815.646 297.594 814.25 301.193 814.25 305.634C814.25 310.074 815.646 313.673 817.367 313.673Z" fill="#623827"/>
<path d="M817.367 297.594H810.673V313.676H817.367V297.594Z" fill="#623827"/>
<path d="M810.674 313.675C812.395 313.675 813.791 310.075 813.791 305.635C813.791 301.195 812.395 297.596 810.674 297.596C808.952 297.596 807.557 301.195 807.557 305.635C807.557 310.075 808.952 313.675 810.674 313.675Z" fill="#B47961"/>
<path d="M851.17 342.19L848.408 342.355L839.86 254.246L842.62 254.082L851.17 342.19Z" fill="#A39A99"/>
<path d="M817.561 342.24L814.808 341.996L827.562 254.2L830.313 254.444L817.561 342.24Z" fill="#814C37"/>
<path d="M833.515 259.002H829.674V343.048H833.515V259.002Z" fill="#A39A99"/>
<path d="M833.177 238.399C840.569 238.399 846.562 237.063 846.562 235.415C846.562 233.767 840.569 232.432 833.177 232.432C825.785 232.432 819.792 233.767 819.792 235.415C819.792 237.063 825.785 238.399 833.177 238.399Z" fill="#734D3D"/>
<path d="M833.177 257.815C840.569 257.815 846.562 256.48 846.562 254.832C846.562 253.184 840.569 251.848 833.177 251.848C825.785 251.848 819.792 253.184 819.792 254.832C819.792 256.48 825.785 257.815 833.177 257.815Z" fill="#734D3D"/>
<path d="M831.888 132.12C836.361 132.12 839.987 131.27 839.987 130.221C839.987 129.172 836.361 128.322 831.888 128.322C827.415 128.322 823.789 129.172 823.789 130.221C823.789 131.27 827.415 132.12 831.888 132.12Z" fill="#5E5451"/>
<path d="M839.987 170.05C839.987 171.098 836.362 171.95 831.888 171.95C827.414 171.95 823.789 171.101 823.789 170.05C823.789 169 827.414 168.151 831.888 168.151C836.362 168.151 839.987 169.003 839.987 170.05Z" fill="#5E5451"/>
<path d="M804.911 513.395L770.962 425.735L776.262 424.477L810.212 512.137L804.911 513.395Z" fill="#57423C"/>
<path d="M858.298 511.549L894.317 423.173L889.599 421.53L859.377 495.688C858.724 500.955 858.639 506.263 858.298 511.549Z" fill="#57423C"/>
<path d="M833.515 415.844H827.977V507.887H833.515V415.844Z" fill="#5E4B42"/>
<path d="M842.04 509.258L837.169 507.958L869.174 418.018L874.045 419.318L842.04 509.258Z" fill="#5E4B42"/>
<path d="M822.657 513.043L798.266 416.855L802.456 415.666L826.844 511.854L822.657 513.043Z" fill="#5E4B42"/>
<path d="M891.109 1066.39H782.172L804.329 884.919L860.053 888.533L891.109 1066.39Z" fill="#27120B"/>
<path d="M850.713 1066.38H891.109L860.053 888.531L850.713 887.927V1066.38Z" fill="#CEC9D0"/>
<path d="M871.55 1000.91C873.452 1015.42 874.84 1029.97 876.998 1044.46C878.088 1051.78 879.334 1059.09 880.634 1066.39H891.107L860.053 888.536L858.097 888.408V905.887C860.393 922.644 862.857 939.388 865.287 956.134C867.456 971.052 869.594 985.973 871.55 1000.91Z" fill="#645F5C"/>
<path d="M864.72 1028.77C862.721 1008.65 861.259 988.464 859.314 968.334C858.92 964.263 858.5 960.198 858.094 956.13V1066.38H869.117C867.502 1053.87 865.969 1041.34 864.72 1028.77Z" fill="#645F5C"/>
<path d="M838.949 886.941L804.145 884.919L779.402 1066.39H838.949V886.941Z" fill="#5E4B42"/>
<path d="M823.715 884.919H813.328V1062.77H823.715V884.919Z" fill="black"/>
<path d="M796.31 1028.77C797.8 1008.65 798.891 988.464 800.344 968.334C800.636 964.263 800.951 960.198 801.255 956.13V1066.38H793.028C794.232 1053.87 795.379 1041.34 796.31 1028.77Z" fill="black"/>
<path d="M466.612 911.369C449.646 903.376 432.892 894.951 416.575 885.652C399.182 875.739 381.895 864.574 366.03 851.816H-66.7422V1054.71H549.016V956.555C521.932 940.947 494.078 926.444 466.612 911.369Z" fill="#95294D"/>
<path d="M561.628 972.159C558.733 954.178 538.882 949.096 524.686 940.585C505.464 929.059 486.638 916.864 468.26 904.03C448.525 890.247 429.408 875.634 410.603 860.604C404.144 855.441 398.132 849.892 391.531 845.579C390.395 842.884 388.545 840.542 385.791 839.2C350.668 822.074 306.518 830.056 268.43 830.307C228.668 830.574 188.916 830.87 149.154 830.699C109.397 830.529 69.6351 830.534 29.8781 830.147C8.4539 829.935 -12.9251 829.488 -34.3493 829.945C-53.049 830.343 -71.1254 828.945 -87.6485 838.918C-97.1693 844.664 -97.1693 858.578 -87.6485 864.324C-71.05 874.342 -53.1496 872.894 -34.3493 873.297C-13.5032 873.744 7.29773 873.327 28.1439 873.116C27.2139 882.048 26.6861 891.122 26.3996 900.089C25.8114 918.558 25.6456 937.001 25.5551 955.48C25.4244 982.68 25.3138 1009.88 25.2082 1037.08C32.0899 1040.04 38.5845 1043.76 44.8127 1048C46.5872 1049.21 48.3365 1050.46 50.0909 1051.7C50.0959 1049.97 50.1009 1048.24 50.111 1046.51C50.1211 1044.03 50.1814 1041.53 49.925 1039.06C49.8144 1011.2 49.7038 983.338 49.5681 955.48C49.4776 937.001 49.3117 918.558 48.7236 900.089C48.4421 891.242 47.8238 882.36 47.0095 873.548C46.9944 873.362 46.9642 873.186 46.9491 873C65.3422 872.864 83.7302 872.749 102.123 872.693C102.018 873.623 101.912 874.563 101.802 875.478C100.806 883.903 100.439 892.378 100.168 900.854C99.6149 918.156 98.9966 935.443 98.8509 952.755C98.7051 969.671 98.5593 986.586 98.4085 1003.5C98.2627 1020.45 96.7647 1038.64 103.46 1054.58C105.677 1059.85 112.031 1059.86 114.248 1054.58C120.808 1038.97 119.456 1021.26 119.31 1004.66L118.863 952.755C118.717 935.83 118.124 918.925 117.581 902.01C117.309 893.529 116.932 885.079 116.032 876.634C115.892 875.322 115.746 873.985 115.6 872.648C126.785 872.613 137.969 872.588 149.154 872.538C159.645 872.492 170.141 872.543 180.632 872.553C180.888 885.919 179.41 899.582 178.983 912.837C178.45 929.476 178.616 946.17 178.455 962.819C178.299 979.091 178.31 995.362 178.289 1011.64C178.279 1019.77 178.038 1027.93 178.49 1036.05C178.983 1044.86 180.129 1052.71 182.376 1061.25C184.211 1068.23 194.687 1068.24 196.527 1061.25C198.769 1052.72 199.92 1044.86 200.412 1036.05C200.845 1028.32 200.623 1020.55 200.613 1012.8C200.593 996.137 200.603 979.478 200.448 962.819C200.292 946.552 200.357 930.265 199.955 913.999C199.618 900.341 198.015 886.316 198.276 872.563C221.661 872.638 245.045 872.774 268.435 872.93C271.954 872.955 275.533 873.05 279.147 873.181C279.011 874.719 278.901 876.247 278.805 877.76C278.328 885.406 278.288 893.147 278.222 900.803C278.081 917.316 278.001 933.829 277.835 950.342C277.669 966.473 277.197 982.604 276.865 998.73C276.538 1014.53 274.638 1031.28 279.187 1046.58C279.177 1050.73 282.359 1053.61 286.165 1054.5C286.356 1054.55 286.552 1054.58 286.743 1054.61C287.089 1054.67 287.436 1054.73 287.793 1054.76C288.06 1054.78 288.326 1054.78 288.592 1054.78C288.909 1054.78 289.221 1054.78 289.533 1054.76C289.839 1054.73 290.141 1054.68 290.447 1054.63C290.684 1054.59 290.915 1054.56 291.146 1054.5C294.941 1053.6 298.103 1050.73 298.093 1046.58C302.542 1031.63 300.757 1015.34 300.441 999.887C300.099 983.379 299.611 966.86 299.445 950.347C299.279 934.221 299.194 918.09 299.068 901.959C299.008 893.917 298.948 885.798 298.48 877.765C298.41 876.544 298.324 875.307 298.224 874.066C323.107 875.322 348.849 876.348 371.861 869.396C371.218 877.871 371.128 886.341 370.997 894.831C370.74 911.425 370.479 928.018 370.218 944.612C369.961 961.205 369.7 977.799 369.439 994.392C369.308 1002.88 369.142 1011.37 369.041 1019.86C368.991 1024.02 368.775 1028.35 369.579 1032.45C370.454 1036.91 372.676 1040.75 374.541 1044.84C376.984 1050.21 386.273 1050.21 388.716 1044.84C390.42 1041.1 392.486 1037.58 393.431 1033.53C394.467 1029.07 394.271 1024.41 394.216 1019.86C394.115 1011.37 393.949 1002.88 393.819 994.387C393.557 977.794 393.301 961.2 393.039 944.607C392.778 928.013 392.522 911.42 392.26 894.826C392.18 889.689 392.069 884.562 391.883 879.434C412.091 896.329 432.746 912.858 454.07 928.295C472.242 941.45 490.871 953.977 509.913 965.845C523.967 974.602 538.837 989.335 555.837 982.343C560.346 980.493 562.417 977.065 561.628 972.159Z" fill="#5C0011"/>
<path d="M1645.72 1053.71H-34.5049V1094.69H1645.72V1053.71Z" fill="#832C5E"/>
</g>
<defs>
<linearGradient id="paint0_linear" x1="799.999" y1="1200" x2="799.999" y2="0" gradientUnits="userSpaceOnUse">
<stop stop-color="#FFFF79"/>
<stop offset="0.486655" stop-color="#FF8996"/>
<stop offset="0.996" stop-color="#4267D9"/>
</linearGradient>
<linearGradient id="paint1_linear" x1="846.999" y1="1205" x2="846.999" y2="882.002" gradientUnits="userSpaceOnUse">
<stop offset="0.00396825" stop-color="#4267D9"/>
<stop offset="1" stop-color="#FF8996"/>
</linearGradient>
<linearGradient id="paint2_linear" x1="1254.47" y1="864.762" x2="1254.47" y2="743.272" gradientUnits="userSpaceOnUse">
<stop offset="0.52" stop-color="#F6E8CC" stop-opacity="0"/>
<stop offset="0.82" stop-color="white"/>
</linearGradient>
<linearGradient id="paint3_linear" x1="93929" y1="-1.96909e+06" x2="93929" y2="-1.9644e+06" gradientUnits="userSpaceOnUse">
<stop offset="0.52" stop-color="#F6E8CC" stop-opacity="0"/>
<stop offset="0.82" stop-color="white"/>
</linearGradient>
<linearGradient id="paint4_linear" x1="43895.3" y1="-2.98151e+06" x2="43895.3" y2="-2.97077e+06" gradientUnits="userSpaceOnUse">
<stop offset="0.52" stop-color="#F6E8CC" stop-opacity="0"/>
<stop offset="0.82" stop-color="white"/>
</linearGradient>
<linearGradient id="paint5_linear" x1="10022.3" y1="-1.96629e+06" x2="10022.3" y2="-1.96159e+06" gradientUnits="userSpaceOnUse">
<stop offset="0.52" stop-color="#F6E8CC" stop-opacity="0"/>
<stop offset="0.82" stop-color="white"/>
</linearGradient>
<linearGradient id="paint6_linear" x1="46934.9" y1="-1.95659e+06" x2="46934.9" y2="-1.95189e+06" gradientUnits="userSpaceOnUse">
<stop offset="0.52" stop-color="#F6E8CC" stop-opacity="0"/>
<stop offset="0.82" stop-color="white"/>
</linearGradient>
<linearGradient id="paint7_linear" x1="1510.7" y1="961.006" x2="1510.7" y2="694.13" gradientUnits="userSpaceOnUse">
<stop offset="0.19" stop-color="white" stop-opacity="0"/>
<stop offset="0.82" stop-color="white"/>
</linearGradient>
<linearGradient id="paint8_linear" x1="175164" y1="-4.34269e+06" x2="175164" y2="-4.32001e+06" gradientUnits="userSpaceOnUse">
<stop offset="0.19" stop-color="white" stop-opacity="0"/>
<stop offset="0.82" stop-color="white"/>
</linearGradient>
<linearGradient id="paint9_linear" x1="-2.65794e+06" y1="4.28686e+06" x2="-2.65794e+06" y2="4.26419e+06" gradientUnits="userSpaceOnUse">
<stop offset="0.19" stop-color="white" stop-opacity="0"/>
<stop offset="0.82" stop-color="white"/>
</linearGradient>
<linearGradient id="paint10_linear" x1="903.614" y1="1210.39" x2="903.614" y2="725.343" gradientUnits="userSpaceOnUse">
<stop stop-color="#FFFF79"/>
<stop offset="0.479167" stop-color="#FF8996"/>
<stop offset="1" stop-color="#4267D9"/>
</linearGradient>
<linearGradient id="paint11_linear" x1="845.5" y1="1210" x2="845.5" y2="902" gradientUnits="userSpaceOnUse">
<stop stop-color="#4267D9"/>
<stop offset="1" stop-color="#FF8996"/>
</linearGradient>
<linearGradient id="paint12_linear" x1="-5.51729e+06" y1="3.51465e+06" x2="-5.51729e+06" y2="3.49607e+06" gradientUnits="userSpaceOnUse">
<stop offset="0.19" stop-color="white" stop-opacity="0"/>
<stop offset="0.82" stop-color="white"/>
</linearGradient>
<clipPath id="clip0">
<rect width="1600" height="1200" fill="white"/>
</clipPath>
</defs>
</svg>
