<svg width="120" height="119" viewBox="0 0 120 119" fill="none" xmlns="http://www.w3.org/2000/svg">
<g clip-path="url(#clip0)">
<path d="M119.122 59.2027C119.122 91.8242 92.675 118.272 60.0549 118.272C58.4544 118.272 56.873 118.205 55.3106 118.082C54.2245 117.996 53.1575 117.881 52.0905 117.739C27.3968 114.413 7.54278 95.8162 2.33157 71.7692C2.11246 70.7784 1.92192 69.7685 1.75996 68.7491C1.25504 65.6432 0.988281 62.4515 0.988281 59.2027C0.988281 31.5068 20.0516 8.26011 45.7742 1.8768C50.3471 0.733524 55.1296 0.133301 60.0549 0.133301C60.3884 0.133301 60.7218 0.133303 61.0553 0.14283C83.6911 0.514396 103.231 13.6335 112.815 32.6215C115.101 37.1565 116.826 42.0249 117.883 47.1316C118.693 51.0282 119.122 55.0678 119.122 59.2027Z" fill="url(#paint0_linear)"/>
<path d="M79.8323 58.0579C78.3277 58.8076 76.6699 59.1985 74.9888 59.1998H65.9615C64.1345 59.2019 62.3829 59.9286 61.091 61.2205C59.7992 62.5124 59.0725 64.264 59.0704 66.091V75.9354C59.0685 78.8068 57.9271 81.5601 55.8966 83.5906C53.8662 85.621 51.1129 86.7625 48.2415 86.7643H39.2732C40.5187 84.8736 41.6337 82.9001 42.6105 80.8576H46.2726C48.0996 80.8555 49.8512 80.1288 51.143 78.837C52.4349 77.5451 53.1616 75.7935 53.1637 73.9665V64.1221C53.1655 61.2506 54.307 58.4973 56.3374 56.4669C58.3678 54.4365 61.1212 53.295 63.9926 53.2932H73.02C74.7339 53.2861 76.4286 52.9311 78.0012 52.2497C79.0644 53.7559 79.8618 54.7698 79.9603 54.888C80.0516 55.0044 80.1681 55.0986 80.3011 55.1634C80.4342 55.2281 80.5802 55.2618 80.7281 55.2618C80.8761 55.2618 81.0221 55.2281 81.1552 55.1634C81.2882 55.0986 81.4048 55.0044 81.496 54.888C83.1385 52.7972 84.6414 50.6004 85.9949 48.3119L90.0312 46.2938L89.1451 44.5415L87.6193 45.2995C88.7511 43.2081 89.4224 40.8987 89.5882 38.5265C89.5882 36.1767 88.6547 33.9231 86.9931 32.2615C85.3315 30.6 83.078 29.6665 80.7281 29.6665C78.3783 29.6665 76.1248 30.6 74.4632 32.2615C72.8016 33.9231 71.8682 36.1767 71.8682 38.5265C71.8682 42.1886 74.5951 47.1109 76.8888 50.5958C75.6547 51.0737 74.3433 51.3206 73.02 51.3243H63.9926C60.5994 51.3274 57.346 52.6767 54.9467 55.0761C52.5473 57.4755 51.1979 60.7288 51.1948 64.1221V73.9665C51.1948 75.272 50.6762 76.5239 49.7531 77.447C48.83 78.3701 47.5781 78.8887 46.2726 78.8887H43.4472C43.9525 77.6337 44.242 76.3024 44.3037 74.9509C44.3037 73.1233 43.5777 71.3705 42.2853 70.0782C40.993 68.7859 39.2402 68.0598 37.4126 68.0598C35.585 68.0598 33.8322 68.7859 32.5398 70.0782C31.2475 71.3705 30.5215 73.1233 30.5215 74.9509C30.5215 79.6467 35.9852 87.4436 36.6152 88.3197C36.7058 88.4469 36.8253 88.5508 36.964 88.6227C37.1026 88.6946 37.2564 88.7324 37.4126 88.7332H48.2415C51.6347 88.73 54.8881 87.3807 57.2874 84.9813C59.6868 82.582 61.0361 79.3286 61.0393 75.9354V66.091C61.0393 64.7855 61.5579 63.5335 62.4809 62.6104C63.404 61.6873 64.656 61.1687 65.9615 61.1687H74.9888C76.9741 61.168 78.932 60.7063 80.7085 59.82L90.0312 55.1538L89.1451 53.4015L79.8323 58.0579ZM80.7281 35.5732C81.3123 35.5732 81.8833 35.7464 82.3689 36.0709C82.8546 36.3954 83.2331 36.8567 83.4567 37.3963C83.6802 37.936 83.7387 38.5298 83.6247 39.1027C83.5108 39.6756 83.2295 40.2018 82.8165 40.6148C82.4034 41.0279 81.8772 41.3091 81.3043 41.4231C80.7314 41.537 80.1376 41.4786 79.598 41.255C79.0583 41.0315 78.5971 40.653 78.2725 40.1673C77.948 39.6816 77.7748 39.1106 77.7748 38.5265C77.7772 37.7439 78.0891 36.9941 78.6424 36.4408C79.1958 35.8874 79.9456 35.5755 80.7281 35.5732ZM34.4593 74.9509C34.4593 74.3668 34.6325 73.7958 34.957 73.3102C35.2815 72.8245 35.7428 72.446 36.2824 72.2224C36.8221 71.9989 37.4159 71.9404 37.9888 72.0544C38.5617 72.1683 39.0879 72.4496 39.5009 72.8626C39.9139 73.2757 40.1952 73.8019 40.3092 74.3748C40.4231 74.9477 40.3647 75.5415 40.1411 76.0811C39.9176 76.6208 39.5391 77.082 39.0534 77.4066C38.5677 77.7311 37.9967 77.9043 37.4126 77.9043C36.63 77.9019 35.8802 77.59 35.3269 77.0367C34.7735 76.4833 34.4616 75.7335 34.4593 74.9509Z" fill="white"/>
<path d="M64.9773 57.2316V55.2627C62.3672 55.2656 59.8649 56.3037 58.0193 58.1492C56.1738 59.9948 55.1357 62.4971 55.1328 65.1071H57.1017C57.104 63.0191 57.9345 61.0173 59.411 59.5409C60.8874 58.0644 62.8892 57.2339 64.9773 57.2316Z" fill="white"/>
<path d="M47.2598 82.8272V84.7961C49.8698 84.7932 52.3721 83.7551 54.2177 81.9096C56.0632 80.064 57.1013 77.5617 57.1042 74.9517H55.1353C55.133 77.0397 54.3025 79.0415 52.826 80.5179C51.3496 81.9944 49.3478 82.8249 47.2598 82.8272Z" fill="white"/>
<path d="M43.3184 82.8257H45.2872V84.7946H43.3184V82.8257Z" fill="white"/>
<path d="M55.1328 67.0757H57.1017V69.0446H55.1328V67.0757Z" fill="white"/>
<path d="M55.1328 71.0127H57.1017V72.9816H55.1328V71.0127Z" fill="white"/>
<path d="M66.9492 55.2627H68.9181V57.2316H66.9492V55.2627Z" fill="white"/>
<path d="M70.8809 55.2627H72.8497V57.2316H70.8809V55.2627Z" fill="white"/>
<path d="M74.8223 55.2627H76.7912V57.2316H74.8223V55.2627Z" fill="white"/>
</g>
<defs>
<linearGradient id="paint0_linear" x1="0.988281" y1="78.8919" x2="119.122" y2="78.8919" gradientUnits="userSpaceOnUse">
<stop stop-color="#4E6BEE"/>
<stop offset="1" stop-color="#00D6CA"/>
</linearGradient>
<clipPath id="clip0">
<rect width="118.133" height="118.133" fill="white" transform="translate(0.988281 0.133301)"/>
</clipPath>
</defs>
</svg>
