<svg width="120" height="119" viewBox="0 0 120 119" fill="none" xmlns="http://www.w3.org/2000/svg">
<g clip-path="url(#clip0)">
<path d="M119.122 59.2139C119.122 91.8354 92.675 118.283 60.0549 118.283C58.4544 118.283 56.873 118.217 55.3106 118.093C54.2245 118.007 53.1575 117.893 52.0905 117.75C27.3968 114.425 7.54278 95.8274 2.33157 71.7804C2.11246 70.7896 1.92192 69.7797 1.75996 68.7603C1.25504 65.6544 0.988281 62.4627 0.988281 59.2139C0.988281 31.518 20.0516 8.27134 45.7742 1.88803C50.3471 0.744754 55.1296 0.144531 60.0549 0.144531C60.3884 0.144531 60.7218 0.144533 61.0553 0.154061C83.6911 0.525626 103.231 13.6447 112.815 32.6327C115.101 37.1677 116.826 42.0362 117.883 47.1428C118.693 51.0395 119.122 55.0791 119.122 59.2139Z" fill="url(#paint0_linear)"/>
<path d="M63.084 82.395H75.7864V88.7462H63.084V82.395Z" fill="white"/>
<path d="M84.6126 66.0836L89.2172 48.893C89.2699 48.7144 89.2949 48.5288 89.2913 48.3426C89.2895 47.8578 89.1214 47.3884 88.815 47.0127C88.5087 46.637 88.0827 46.3778 87.6083 46.2784C87.0523 46.1921 86.4842 46.3185 86.0173 46.6324C85.5504 46.9463 85.2189 47.4247 85.089 47.9721L81.8181 58.0599L81.8816 58.1552C82.4409 59.1264 82.5932 60.2794 82.305 61.3625C82.1633 61.9016 81.9152 62.4069 81.5752 62.8486C81.2353 63.2904 80.8104 63.6597 80.3256 63.9347L74.2602 67.4385C74.0183 67.565 73.7368 67.5932 73.4746 67.5172C73.2124 67.4411 72.9897 67.2666 72.8531 67.0303C72.7165 66.7939 72.6764 66.5139 72.7414 66.2487C72.8063 65.9835 72.9712 65.7537 73.2017 65.6072L79.267 62.1035C79.5089 61.9659 79.7213 61.7819 79.8921 61.5621C80.0628 61.3424 80.1885 61.0911 80.2621 60.8227C80.4011 60.2791 80.3253 59.7028 80.0503 59.2137C79.9112 58.972 79.7256 58.7602 79.5043 58.5904C79.283 58.4207 79.0303 58.2963 78.7608 58.2245C78.4913 58.1527 78.2102 58.1348 77.9338 58.172C77.6573 58.2091 77.391 58.3006 77.15 58.441L67.8031 63.9136C66.6917 64.5714 65.77 65.5063 65.1281 66.627C64.4861 67.7476 64.1459 69.0156 64.1406 70.3071V80.2785H74.7259V77.9497C74.7281 77.203 74.8865 76.465 75.191 75.7832C75.4954 75.1014 75.9392 74.4909 76.4937 73.9908L83.6599 67.629C84.122 67.2183 84.4533 66.6809 84.6126 66.0836Z" fill="white"/>
<path d="M80.104 56.481L83.0573 47.367C83.297 46.4522 83.829 45.6407 84.5722 45.056C85.3155 44.4714 86.2294 44.1455 87.175 44.1279V44.1067C87.1731 43.622 87.005 43.1525 86.6987 42.7768C86.3924 42.4011 85.9664 42.142 85.4919 42.0426C84.9359 41.9563 84.3679 42.0827 83.9009 42.3966C83.434 42.7105 83.1025 43.1888 82.9726 43.7362L78.6855 56.0787C79.1775 56.1329 79.6569 56.2689 80.104 56.481Z" fill="white"/>
<path d="M35.2003 66.0716C35.3567 66.6732 35.6883 67.2148 36.153 67.6277L43.3086 73.9895C43.8664 74.4875 44.3131 75.0974 44.6195 75.7795C44.9259 76.4616 45.0852 77.2006 45.087 77.9484V80.2771H55.6723V70.3058C55.667 69.0143 55.3268 67.7463 54.6849 66.6256C54.0429 65.505 53.1212 64.5701 52.0098 63.9122L42.6523 58.429C42.4112 58.2907 42.1451 58.2013 41.8694 58.1658C41.5936 58.1303 41.3136 58.1494 41.0452 58.2222C40.7769 58.2949 40.5255 58.4198 40.3054 58.5897C40.0853 58.7596 39.9009 58.9712 39.7626 59.2124C39.4876 59.7015 39.4118 60.2777 39.5508 60.8213C39.6244 61.0897 39.7501 61.341 39.9208 61.5608C40.0916 61.7806 40.304 61.9645 40.5459 62.1022L46.6113 65.6059C46.8417 65.7524 47.0066 65.9822 47.0715 66.2474C47.1365 66.5125 47.0965 66.7926 46.9598 67.0289C46.8232 67.2653 46.6005 67.4397 46.3383 67.5158C46.0761 67.5919 45.7946 67.5637 45.5527 67.4372L39.4873 63.9334C39.0025 63.6583 38.5776 63.2891 38.2377 62.8473C37.8977 62.4056 37.6496 61.9003 37.5079 61.3612C37.2197 60.2781 37.372 59.125 37.9313 58.1538L37.9948 58.0586L34.7451 48.0237C34.6193 47.4641 34.2863 46.9728 33.813 46.6488C33.3397 46.3248 32.7613 46.192 32.1941 46.2771C31.7215 46.3786 31.298 46.6387 30.9937 47.0142C30.6895 47.3897 30.5229 47.858 30.5216 48.3412C30.5199 48.5266 30.5413 48.7115 30.5851 48.8917L35.2003 66.0716Z" fill="white"/>
<path d="M44.0293 82.395H56.7317V88.7462H44.0293V82.395Z" fill="white"/>
<path d="M34.319 42.0423C33.8465 42.1438 33.4229 42.4039 33.1187 42.7794C32.8144 43.1549 32.6478 43.6231 32.6465 44.1064V44.1276C33.6003 44.1522 34.5202 44.4869 35.267 45.0808C36.0137 45.6748 36.5467 46.4958 36.7853 47.4196L39.7175 56.4807C40.1646 56.2686 40.644 56.1326 41.1359 56.0784L36.8806 43.81C36.7554 43.2465 36.4219 42.7512 35.9468 42.4233C35.4717 42.0955 34.8902 41.9594 34.319 42.0423Z" fill="white"/>
<path d="M60.9645 41.1106V36.8765H58.8474V41.1106H54.6133V43.2277H58.8474V47.4618H60.9645V43.2277H65.1986V41.1106H60.9645Z" fill="white"/>
<path d="M67.3895 29.6794C66.2776 29.6755 65.176 29.8929 64.149 30.3191C63.122 30.7453 62.1902 31.3716 61.4077 32.1617L60.6541 32.9153C60.4556 33.1138 60.1864 33.2253 59.9057 33.2253C59.625 33.2253 59.3558 33.1138 59.1573 32.9153L58.4057 32.1638C57.6198 31.3762 56.6863 30.7513 55.6586 30.325C54.6309 29.8987 53.5292 29.6792 52.4166 29.6792C51.3039 29.6792 50.2022 29.8987 49.1745 30.325C48.1468 30.7513 47.2133 31.3762 46.4274 32.1638C44.8418 33.7516 43.9512 35.9037 43.9512 38.1477C43.9512 40.3916 44.8418 42.5438 46.4274 44.1315L59.9057 57.6098L73.384 44.1315C74.5673 42.9466 75.3727 41.4375 75.6984 39.7949C76.0242 38.1523 75.8556 36.45 75.214 34.9032C74.5724 33.3564 73.4866 32.0346 72.0939 31.1048C70.7012 30.1749 69.0641 29.6789 67.3895 29.6794ZM67.3154 44.2872C67.3154 44.5679 67.2039 44.8371 67.0054 45.0356C66.8069 45.2342 66.5376 45.3457 66.2569 45.3457H63.0813V48.5213C63.0813 48.802 62.9698 49.0713 62.7712 49.2698C62.5727 49.4683 62.3035 49.5798 62.0227 49.5798H57.7886C57.5079 49.5798 57.2386 49.4683 57.0401 49.2698C56.8416 49.0713 56.7301 48.802 56.7301 48.5213V45.3457H53.5545C53.2737 45.3457 53.0045 45.2342 52.806 45.0356C52.6075 44.8371 52.496 44.5679 52.496 44.2872V40.053C52.496 39.7723 52.6075 39.503 52.806 39.3045C53.0045 39.106 53.2737 38.9945 53.5545 38.9945H56.7301V35.8189C56.7301 35.5382 56.8416 35.2689 57.0401 35.0704C57.2386 34.8719 57.5079 34.7604 57.7886 34.7604H62.0227C62.3035 34.7604 62.5727 34.8719 62.7712 35.0704C62.9698 35.2689 63.0813 35.5382 63.0813 35.8189V38.9945H66.2569C66.5376 38.9945 66.8069 39.106 67.0054 39.3045C67.2039 39.503 67.3154 39.7723 67.3154 40.053V44.2872Z" fill="white"/>
</g>
<defs>
<linearGradient id="paint0_linear" x1="0.988281" y1="78.9031" x2="119.122" y2="78.9031" gradientUnits="userSpaceOnUse">
<stop stop-color="#4E6BEE"/>
<stop offset="1" stop-color="#00D6CA"/>
</linearGradient>
<clipPath id="clip0">
<rect width="118.133" height="118.133" fill="white" transform="translate(0.988281 0.144531)"/>
</clipPath>
</defs>
</svg>
