<svg width="119" height="119" viewBox="0 0 119 119" fill="none" xmlns="http://www.w3.org/2000/svg">
<g clip-path="url(#clip0)">
<path d="M118.266 59.2027C118.266 91.8242 91.8195 118.272 59.1995 118.272C57.599 118.272 56.0175 118.205 54.4551 118.082C53.369 117.996 52.302 117.881 51.235 117.739C26.5413 114.414 6.68731 95.8162 1.47611 71.7692C1.25699 70.7784 1.06645 69.7685 0.904495 68.7491C0.39957 65.6432 0.132812 62.4515 0.132812 59.2027C0.132812 31.5068 19.1961 8.26011 44.9187 1.8768C49.4916 0.733524 54.2741 0.133301 59.1995 0.133301C59.5329 0.133301 59.8664 0.133303 60.1998 0.14283C82.8357 0.514396 102.375 13.6335 111.959 32.6215C114.246 37.1565 115.97 42.0249 117.028 47.1316C117.837 51.0282 118.266 55.0678 118.266 59.2027Z" fill="url(#paint0_linear)"/>
<path d="M58.5742 35.5732C48.0483 35.5732 39.5117 44.1098 39.5117 54.6357C39.5117 63.827 54.0415 78.8353 57.7432 82.4866C58.2217 82.9399 58.9519 82.9399 59.4304 82.4866C63.1069 78.8353 77.6619 63.827 77.6619 54.6357C77.6619 44.1098 69.1001 35.5732 58.5742 35.5732ZM58.5742 65.3379C52.6565 65.3379 47.872 60.5534 47.872 54.6357C47.872 48.718 52.6565 43.9335 58.5742 43.9335C64.4919 43.9335 69.2764 48.718 69.2764 54.6357C69.2764 60.5534 64.4919 65.3379 58.5742 65.3379Z" fill="white"/>
<path d="M58.5757 41.8691C51.5248 41.8691 45.8086 47.5854 45.8086 54.6362C45.8086 61.6871 51.5248 67.4033 58.5757 67.4033C65.6265 67.4033 71.3428 61.6871 71.3428 54.6362C71.368 47.5854 65.6517 41.8691 58.5757 41.8691ZM58.5757 63.2735C53.8163 63.2735 49.9636 59.4207 49.9636 54.6614C49.9636 49.9021 53.8163 46.0493 58.5757 46.0493C63.335 46.0493 67.1878 49.9021 67.1878 54.6614C67.1878 59.3955 63.335 63.2735 58.5757 63.2735Z" fill="#F4F4F4"/>
</g>
<defs>
<linearGradient id="paint0_linear" x1="0.132812" y1="78.8919" x2="118.266" y2="78.8919" gradientUnits="userSpaceOnUse">
<stop stop-color="#4E6BEE"/>
<stop offset="1" stop-color="#00D6CA"/>
</linearGradient>
<clipPath id="clip0">
<rect width="118.133" height="118.133" fill="white" transform="translate(0.132812 0.133301)"/>
</clipPath>
</defs>
</svg>
