<svg width="119" height="119" viewBox="0 0 119 119" fill="none" xmlns="http://www.w3.org/2000/svg">
<g clip-path="url(#clip0)">
<path d="M118.266 59.2139C118.266 91.8355 91.8195 118.283 59.1995 118.283C57.599 118.283 56.0175 118.217 54.4551 118.093C53.369 118.007 52.302 117.893 51.235 117.75C26.5413 114.425 6.68731 95.8274 1.47611 71.7804C1.25699 70.7896 1.06645 69.7797 0.904495 68.7603C0.39957 65.6544 0.132812 62.4627 0.132812 59.2139C0.132812 31.518 19.1961 8.27134 44.9187 1.88803C49.4916 0.744754 54.2741 0.144531 59.1995 0.144531C59.5329 0.144531 59.8664 0.144533 60.1998 0.154061C82.8357 0.525626 102.375 13.6447 111.959 32.6327C114.246 37.1677 115.97 42.0362 117.028 47.1428C117.837 51.0395 118.266 55.0791 118.266 59.2139Z" fill="url(#paint0_linear)"/>
<path d="M77.9038 81.8031V63.01C78.7469 62.7924 79.4942 62.3013 80.0285 61.6137C80.5629 60.9262 80.8543 60.0809 80.8571 59.2101V54.2879C80.8571 54.0268 80.7534 53.7764 80.5688 53.5918C80.3842 53.4071 80.1338 53.3034 79.8727 53.3034H61.1781C63.4423 50.2123 68.0593 43.3113 68.0593 38.5368C68.0593 36.1869 67.1259 33.9334 65.4643 32.2718C63.8027 30.6102 61.5492 29.6768 59.1993 29.6768C56.8495 29.6768 54.596 30.6102 52.9344 32.2718C51.2728 33.9334 50.3393 36.1869 50.3393 38.5368C50.3393 43.3113 54.9564 50.2123 57.2206 53.3034H38.526C38.2649 53.3034 38.0145 53.4071 37.8299 53.5918C37.6453 53.7764 37.5416 54.0268 37.5416 54.2879V59.2101C37.5444 60.0809 37.8358 60.9262 38.3702 61.6137C38.9045 62.3013 39.6518 62.7924 40.4949 63.01V81.8031C34.1354 83.2896 29.666 85.6227 29.666 88.7434H31.6349C31.6349 85.8688 42.1192 81.8523 59.1993 81.8523C76.2795 81.8523 86.7638 85.8688 86.7638 88.7434H88.7327C88.7327 85.6227 84.2633 83.2896 77.9038 81.8031ZM63.1371 55.2723H67.0749V59.2101C67.0749 59.7323 66.8675 60.2331 66.4982 60.6023C66.129 60.9715 65.6282 61.179 65.106 61.179C64.5838 61.179 64.083 60.9715 63.7138 60.6023C63.3446 60.2331 63.1371 59.7323 63.1371 59.2101V55.2723ZM56.246 38.5368C56.246 37.9526 56.4192 37.3816 56.7437 36.896C57.0683 36.4103 57.5295 36.0318 58.0692 35.8082C58.6088 35.5847 59.2026 35.5262 59.7755 35.6402C60.3484 35.7541 60.8746 36.0354 61.2877 36.4484C61.7007 36.8615 61.982 37.3877 62.0959 37.9606C62.2099 38.5335 62.1514 39.1273 61.9279 39.6669C61.7043 40.2066 61.3258 40.6678 60.8401 40.9924C60.3545 41.3169 59.7835 41.4901 59.1993 41.4901C58.4168 41.4878 57.667 41.1758 57.1136 40.6225C56.5603 40.0691 56.2484 39.3193 56.246 38.5368ZM61.1682 55.2723V59.2101C61.1682 59.7323 60.9608 60.2331 60.5916 60.6023C60.2223 60.9715 59.7215 61.179 59.1993 61.179C58.6772 61.179 58.1764 60.9715 57.8071 60.6023C57.4379 60.2331 57.2305 59.7323 57.2305 59.2101V55.2723H61.1682ZM51.3238 55.2723H55.2616V59.2101C55.2616 59.7323 55.0541 60.2331 54.6849 60.6023C54.3157 60.9715 53.8149 61.179 53.2927 61.179C52.7705 61.179 52.2697 60.9715 51.9005 60.6023C51.5312 60.2331 51.3238 59.7323 51.3238 59.2101V55.2723ZM43.4482 59.2101C43.4482 59.7323 43.2408 60.2331 42.8716 60.6023C42.5023 60.9715 42.0015 61.179 41.4793 61.179C40.9572 61.179 40.4564 60.9715 40.0871 60.6023C39.7179 60.2331 39.5105 59.7323 39.5105 59.2101V55.2723H43.4482V59.2101ZM45.4171 59.2101V55.2723H49.3549V59.2101C49.3549 59.7323 49.1475 60.2331 48.7782 60.6023C48.409 60.9715 47.9082 61.179 47.386 61.179C46.8638 61.179 46.363 60.9715 45.9938 60.6023C45.6246 60.2331 45.4171 59.7323 45.4171 59.2101ZM71.9971 74.9612H46.4016V69.0545H71.9971V74.9612ZM72.9816 59.2101C72.9816 59.7323 72.7741 60.2331 72.4049 60.6023C72.0357 60.9715 71.5349 61.179 71.0127 61.179C70.4905 61.179 69.9897 60.9715 69.6205 60.6023C69.2512 60.2331 69.0438 59.7323 69.0438 59.2101V55.2723H72.9816V59.2101ZM74.9505 59.2101V55.2723H78.8882V59.2101C78.8882 59.7323 78.6808 60.2331 78.3116 60.6023C77.9423 60.9715 77.4415 61.179 76.9193 61.179C76.3972 61.179 75.8964 60.9715 75.5271 60.6023C75.1579 60.2331 74.9505 59.7323 74.9505 59.2101Z" fill="white"/>
<path d="M30.9575 36.2243L33.4481 37.4746L34.6984 39.9652C34.781 40.1265 34.9065 40.2618 35.0611 40.3563C35.2157 40.4508 35.3933 40.5008 35.5745 40.5008C35.7557 40.5008 35.9334 40.4508 36.088 40.3563C36.2426 40.2618 36.3681 40.1265 36.4507 39.9652L37.7009 37.4746L40.1916 36.2243C40.3548 36.1436 40.4921 36.0187 40.5878 35.8638C40.6835 35.7089 40.7338 35.5303 40.733 35.3482C40.7343 35.1647 40.6843 34.9846 40.5886 34.828C40.4929 34.6714 40.3554 34.5447 40.1916 34.4622L37.7009 33.2218L36.4507 30.7311C36.361 30.5784 36.233 30.4518 36.0793 30.3638C35.9256 30.2758 35.7516 30.2295 35.5745 30.2295C35.3974 30.2295 35.2234 30.2758 35.0697 30.3638C34.916 30.4518 34.788 30.5784 34.6984 30.7311L33.4481 33.2218L30.9575 34.4622C30.7936 34.5447 30.6561 34.6714 30.5605 34.828C30.4648 34.9846 30.4148 35.1647 30.416 35.3482C30.4152 35.5303 30.4655 35.7089 30.5613 35.8638C30.657 36.0187 30.7943 36.1436 30.9575 36.2243ZM34.6196 34.8363C34.8103 34.7391 34.9654 34.584 35.0626 34.3933L35.5745 33.3695L36.0864 34.3933C36.1836 34.584 36.3387 34.7391 36.5294 34.8363L37.5533 35.3482L36.5294 35.8601C36.3373 35.9506 36.1812 36.1032 36.0864 36.2933L35.5745 37.3171L35.0626 36.2933C34.9678 36.1032 34.8118 35.9506 34.6196 35.8601L33.5958 35.3482L34.6196 34.8363Z" fill="white"/>
<path d="M79.2094 40.1599L81.7001 41.4101L82.9503 43.9008C83.0329 44.062 83.1585 44.1974 83.313 44.2919C83.4676 44.3864 83.6453 44.4364 83.8265 44.4364C84.0077 44.4364 84.1853 44.3864 84.3399 44.2919C84.4945 44.1974 84.62 44.062 84.7026 43.9008L85.9529 41.4101L88.4435 40.1599C88.6067 40.0792 88.744 39.9543 88.8397 39.7994C88.9355 39.6445 88.9858 39.4658 88.985 39.2837C88.9862 39.1003 88.9362 38.9201 88.8406 38.7635C88.7449 38.607 88.6074 38.4803 88.4435 38.3977L85.9529 37.1573L84.7026 34.6667C84.613 34.514 84.485 34.3873 84.3313 34.2993C84.1776 34.2113 84.0036 34.165 83.8265 34.165C83.6494 34.165 83.4754 34.2113 83.3217 34.2993C83.168 34.3873 83.04 34.514 82.9503 34.6667L81.7001 37.1573L79.2094 38.3977C79.0456 38.4803 78.9081 38.607 78.8124 38.7635C78.7167 38.9201 78.6667 39.1003 78.668 39.2837C78.6672 39.4658 78.7175 39.6445 78.8132 39.7994C78.9089 39.9543 79.0462 40.0792 79.2094 40.1599ZM82.8716 38.7718C83.0623 38.6746 83.2174 38.5196 83.3146 38.3288L83.8265 37.305L84.3384 38.3288C84.4356 38.5196 84.5907 38.6746 84.7814 38.7718L85.8052 39.2837L84.7814 39.7956C84.5893 39.8862 84.4332 40.0387 84.3384 40.2288L83.8265 41.2526L83.3146 40.2288C83.2198 40.0387 83.0637 39.8862 82.8716 39.7956L81.8478 39.2837L82.8716 38.7718Z" fill="white"/>
</g>
<defs>
<linearGradient id="paint0_linear" x1="0.132812" y1="78.9031" x2="118.266" y2="78.9031" gradientUnits="userSpaceOnUse">
<stop stop-color="#4E6BEE"/>
<stop offset="1" stop-color="#00D6CA"/>
</linearGradient>
<clipPath id="clip0">
<rect width="118.133" height="118.133" fill="white" transform="translate(0.132812 0.144531)"/>
</clipPath>
</defs>
</svg>
